<?xml version="1.0" encoding="UTF-8"?>
<svg width="24px" height="24px" viewBox="0 0 24 24" version="1.1" xmlns="http://www.w3.org/2000/svg" xmlns:xlink="http://www.w3.org/1999/xlink">
    <!-- Generator: Sketch 63.1 (92452) - https://sketch.com -->
    <title>delete_inactive</title>
    <desc>Created with Sketch.</desc>
    <g id="Page-1" stroke="none" stroke-width="1" fill="none" fill-rule="evenodd">
        <g id="0P11_Iconography" transform="translate(-281.000000, -535.000000)">
            <g id="static_icns" transform="translate(40.000000, 480.000000)">
                <g id="24px_icons" transform="translate(21.000000, 55.000000)">
                    <g id="delete_inactive" transform="translate(220.000000, 0.000000)">
                        <rect id="Bounding" x="0" y="0" width="24" height="24"></rect>
                        <path d="M9,3 L9,4 L4,4 L4,6 L5,6 L5,19 C5,20.1045695 5.8954305,21 7,21 L17,21 C18.1045695,21 19,20.1045695 19,19 L19,6 L20,6 L20,4 L15,4 L15,3 L9,3 M7,6 L17,6 L17,19 L7,19 L7,6 M9,8 L9,17 L11,17 L11,8 L9,8 M13,8 L13,17 L15,17 L15,8 L13,8 Z" id="Shape" fill="#C4C4C4" fill-rule="nonzero"></path>
                    </g>
                </g>
            </g>
        </g>
    </g>
</svg>