<svg xmlns="http://www.w3.org/2000/svg" xmlns:xlink="http://www.w3.org/1999/xlink" width="500" zoomAndPan="magnify" viewBox="0 0 375 374.999991" height="500" preserveAspectRatio="xMidYMid meet" version="1.0"><defs><clipPath id="2dd7f399a9"><path d="M 91.773438 138.90625 L 283.023438 138.90625 L 283.023438 236.085938 L 91.773438 236.085938 Z M 91.773438 138.90625 " clip-rule="nonzero"/></clipPath></defs><g clip-path="url(#2dd7f399a9)"><path fill="#66c2fe" d="M 282.820312 188.949219 C 278.460938 188.949219 274.105469 188.949219 269.746094 188.949219 C 262.796875 188.949219 255.847656 188.949219 248.898438 188.949219 C 247.402344 188.949219 245.910156 188.949219 244.414062 188.949219 C 241.796875 182.765625 239.175781 176.582031 236.558594 170.398438 C 236.179688 169.503906 235.800781 168.609375 235.421875 167.714844 C 235.207031 167.210938 233.996094 167.832031 233.769531 167.957031 C 233.222656 168.261719 232.503906 168.730469 232.371094 169.390625 C 231.476562 173.933594 230.582031 178.472656 229.683594 183.015625 C 228.605469 188.476562 227.527344 193.9375 226.449219 199.402344 C 226.144531 196.839844 225.835938 194.277344 225.53125 191.714844 C 224.484375 182.953125 223.4375 174.191406 222.386719 165.429688 C 222.148438 163.421875 221.910156 161.417969 221.667969 159.414062 C 221.589844 158.742188 220.527344 159.191406 220.183594 159.359375 C 219.539062 159.667969 218.773438 160.175781 218.582031 160.902344 C 216.253906 169.644531 213.925781 178.382812 211.597656 187.125 C 211.4375 187.730469 211.277344 188.339844 211.113281 188.949219 C 207.480469 188.949219 203.847656 188.949219 200.210938 188.949219 C 193.261719 188.949219 186.3125 188.949219 179.363281 188.949219 C 177.867188 188.949219 176.371094 188.949219 174.875 188.949219 C 172.953125 184.699219 171.03125 180.449219 169.113281 176.203125 C 168.683594 175.246094 166.171875 177.234375 166.066406 177.878906 C 164.988281 184.414062 163.910156 190.945312 162.832031 197.480469 C 161.480469 205.65625 160.132812 213.828125 158.785156 222.003906 C 158.339844 215.363281 157.894531 208.726562 157.449219 202.085938 C 156.839844 192.949219 156.226562 183.808594 155.613281 174.667969 C 155.082031 166.746094 154.550781 158.820312 154.019531 150.898438 C 153.847656 148.300781 153.671875 145.699219 153.496094 143.101562 C 153.417969 141.898438 153.457031 140.605469 153.25 139.410156 C 153.242188 139.359375 153.242188 139.308594 153.238281 139.253906 C 153.167969 138.164062 150.292969 139.921875 150.152344 140.746094 C 148.957031 147.855469 147.761719 154.964844 146.566406 162.078125 C 144.664062 173.410156 142.757812 184.742188 140.851562 196.074219 C 140.84375 196.121094 140.835938 196.164062 140.828125 196.210938 C 139.09375 190.304688 137.355469 184.398438 135.617188 178.492188 C 135.289062 177.375 134.960938 176.257812 134.632812 175.140625 C 134.503906 174.695312 133.363281 175.1875 133.1875 175.273438 C 132.605469 175.550781 131.945312 175.988281 131.652344 176.585938 C 129.617188 180.707031 127.585938 184.824219 125.550781 188.949219 C 122.449219 188.949219 119.347656 188.949219 116.246094 188.949219 C 110.335938 188.949219 104.425781 188.949219 98.519531 188.949219 C 97.152344 188.949219 95.785156 188.949219 94.417969 188.949219 C 93.632812 188.949219 92.773438 189.46875 92.238281 190.015625 C 91.964844 190.289062 91.375 191.132812 92.183594 191.132812 C 95.886719 191.132812 99.585938 191.132812 103.289062 191.132812 C 109.199219 191.132812 115.109375 191.132812 121.015625 191.132812 C 122.382812 191.132812 123.746094 191.132812 125.113281 191.132812 C 126.050781 191.132812 127.296875 190.367188 127.710938 189.523438 C 129.296875 186.308594 130.886719 183.09375 132.472656 179.878906 C 134.515625 186.820312 136.554688 193.761719 138.597656 200.703125 C 138.925781 201.820312 139.253906 202.9375 139.582031 204.054688 C 139.734375 204.570312 141.050781 203.910156 141.234375 203.808594 C 141.765625 203.515625 142.519531 203.035156 142.628906 202.378906 C 143.824219 195.269531 145.019531 188.15625 146.214844 181.046875 C 147.796875 171.636719 149.378906 162.226562 150.960938 152.816406 C 151.410156 159.511719 151.859375 166.210938 152.308594 172.910156 C 152.917969 182.050781 153.53125 191.1875 154.144531 200.328125 C 154.675781 208.25 155.207031 216.175781 155.738281 224.097656 C 155.910156 226.695312 156.085938 229.292969 156.261719 231.894531 C 156.339844 233.097656 156.296875 234.390625 156.507812 235.582031 C 156.515625 235.636719 156.515625 235.691406 156.515625 235.742188 C 156.589844 236.832031 159.46875 235.082031 159.605469 234.25 C 160.683594 227.714844 161.761719 221.179688 162.839844 214.648438 C 164.550781 204.273438 166.265625 193.898438 167.972656 183.527344 C 168.027344 183.203125 168.082031 182.878906 168.136719 182.550781 C 169.402344 185.359375 170.671875 188.164062 171.941406 190.972656 C 172.039062 191.089844 172.167969 191.144531 172.324219 191.132812 C 176.683594 191.132812 181.039062 191.132812 185.398438 191.132812 C 192.347656 191.132812 199.296875 191.132812 206.25 191.132812 C 207.847656 191.132812 209.449219 191.132812 211.050781 191.132812 C 212.027344 191.132812 213.449219 190.277344 213.710938 189.292969 C 215.613281 182.15625 217.515625 175.015625 219.414062 167.878906 C 219.792969 171.050781 220.175781 174.226562 220.554688 177.402344 C 221.601562 186.167969 222.648438 194.925781 223.695312 203.6875 C 223.9375 205.695312 224.175781 207.699219 224.414062 209.707031 C 224.550781 210.851562 227.351562 208.992188 227.503906 208.214844 C 228.398438 203.671875 229.296875 199.128906 230.191406 194.585938 C 231.550781 187.707031 232.910156 180.828125 234.265625 173.949219 C 236.289062 178.726562 238.316406 183.507812 240.339844 188.285156 C 240.714844 189.179688 241.097656 190.074219 241.476562 190.972656 C 241.574219 191.089844 241.703125 191.144531 241.859375 191.132812 C 246.21875 191.132812 250.574219 191.132812 254.933594 191.132812 C 261.882812 191.132812 268.832031 191.132812 275.78125 191.132812 C 277.382812 191.132812 278.984375 191.132812 280.585938 191.132812 C 281.371094 191.132812 282.230469 190.609375 282.765625 190.0625 C 283.035156 189.792969 283.628906 188.949219 282.820312 188.949219 " fill-opacity="1" fill-rule="nonzero"/></g></svg>