<svg xmlns="http://www.w3.org/2000/svg" xmlns:xlink="http://www.w3.org/1999/xlink" width="500" zoomAndPan="magnify" viewBox="0 0 375 374.999991" height="500" preserveAspectRatio="xMidYMid meet" version="1.0"><defs><clipPath id="7d42da2954"><path d="M 122 123.195312 L 141 123.195312 L 141 154 L 122 154 Z M 122 123.195312 " clip-rule="nonzero"/></clipPath><clipPath id="2cea1a8679"><path d="M 178.160156 235.519531 L 257.359375 235.519531 L 257.359375 251.433594 L 178.160156 251.433594 Z M 178.160156 235.519531 " clip-rule="nonzero"/></clipPath><clipPath id="7ff3c3d9cd"><path d="M 209.8125 198.472656 L 263.8125 198.472656 L 263.8125 251.710938 L 209.8125 251.710938 Z M 209.8125 198.472656 " clip-rule="nonzero"/></clipPath><clipPath id="9146ab7057"><path d="M 210 223 L 263.8125 223 L 263.8125 249 L 210 249 Z M 210 223 " clip-rule="nonzero"/></clipPath></defs><path fill="#cc905e" d="M 186.53125 180.953125 C 188.84375 182.789062 192.238281 185.34375 196.324219 188.011719 C 198.578125 189.484375 201.605469 188.777344 202.957031 186.453125 L 216.058594 163.980469 C 204.917969 159.46875 199.335938 176.414062 199.335938 176.414062 C 199.335938 176.414062 196.246094 161.957031 186.734375 156.070312 C 176.210938 149.558594 173.460938 159.863281 173.460938 159.863281 C 173.460938 159.863281 160.152344 133.207031 134.148438 145.292969 C 111.113281 156 119.566406 177.269531 121.796875 181.988281 C 122.617188 183.722656 123.417969 185.46875 124.164062 187.234375 C 132.699219 207.335938 141.742188 238.152344 141.742188 238.152344 C 123.695312 238.625 125.117188 246.289062 125.117188 246.289062 L 149.378906 246.289062 C 151.601562 246.289062 153.355469 244.402344 153.199219 242.191406 C 150.941406 210.429688 156.546875 185.976562 156.546875 185.976562 C 156.546875 185.976562 169.417969 182.976562 179.171875 179.667969 C 181.683594 178.816406 184.457031 179.308594 186.53125 180.953125 " fill-opacity="1" fill-rule="nonzero"/><g clip-path="url(#7d42da2954)"><path fill="#cc905e" d="M 131.292969 152.355469 C 131.292969 152.355469 117.28125 142.402344 123.929688 123.207031 C 123.929688 123.207031 127.730469 142.636719 137.707031 149.273438 C 147.679688 155.910156 131.292969 152.355469 131.292969 152.355469 " fill-opacity="1" fill-rule="nonzero"/></g><path fill="#484347" d="M 141.269531 158.003906 C 141.210938 158.003906 141.152344 157.988281 141.097656 157.957031 C 139.210938 156.898438 134.785156 156.425781 134.738281 156.421875 C 134.546875 156.402344 134.40625 156.226562 134.425781 156.035156 C 134.445312 155.839844 134.621094 155.699219 134.8125 155.722656 C 135 155.742188 139.433594 156.214844 141.441406 157.34375 C 141.613281 157.441406 141.671875 157.65625 141.578125 157.824219 C 141.511719 157.941406 141.394531 158.003906 141.269531 158.003906 " fill-opacity="1" fill-rule="nonzero"/><path fill="#484347" d="M 137.390625 160.128906 C 137.207031 160.128906 137.050781 159.984375 137.039062 159.800781 C 136.851562 156.96875 138.75 153.410156 138.832031 153.261719 C 138.925781 153.089844 139.136719 153.023438 139.308594 153.117188 C 139.480469 153.210938 139.546875 153.425781 139.453125 153.59375 C 139.433594 153.628906 137.566406 157.125 137.742188 159.753906 C 137.757812 159.945312 137.609375 160.113281 137.414062 160.128906 C 137.40625 160.128906 137.398438 160.128906 137.390625 160.128906 " fill-opacity="1" fill-rule="nonzero"/><path fill="#484347" d="M 166.199219 200.832031 C 166.078125 200.832031 165.960938 200.769531 165.894531 200.65625 C 163.949219 197.324219 162.292969 193.800781 160.972656 190.183594 C 160.90625 190 161 189.800781 161.183594 189.730469 C 161.367188 189.664062 161.570312 189.757812 161.636719 189.941406 C 162.941406 193.519531 164.582031 197.003906 166.503906 200.300781 C 166.601562 200.46875 166.546875 200.683594 166.378906 200.785156 C 166.320312 200.816406 166.261719 200.832031 166.199219 200.832031 Z M 176.894531 214.332031 C 176.808594 214.332031 176.71875 214.300781 176.652344 214.234375 C 173.875 211.632812 171.3125 208.699219 169.039062 205.519531 C 168.925781 205.359375 168.964844 205.140625 169.121094 205.027344 C 169.28125 204.914062 169.5 204.953125 169.617188 205.109375 C 171.863281 208.253906 174.394531 211.148438 177.136719 213.722656 C 177.277344 213.855469 177.285156 214.078125 177.152344 214.21875 C 177.082031 214.292969 176.988281 214.332031 176.894531 214.332031 Z M 191.121094 224.027344 C 191.070312 224.027344 191.019531 224.015625 190.96875 223.992188 C 187.464844 222.324219 184.136719 220.300781 181.082031 217.976562 C 180.925781 217.859375 180.894531 217.636719 181.011719 217.484375 C 181.132812 217.328125 181.351562 217.296875 181.507812 217.417969 C 184.523438 219.710938 187.8125 221.707031 191.273438 223.355469 C 191.449219 223.441406 191.527344 223.652344 191.441406 223.828125 C 191.378906 223.953125 191.253906 224.027344 191.121094 224.027344 Z M 206.195312 228.914062 C 206.171875 228.914062 206.152344 228.914062 206.128906 228.910156 C 202.726562 228.25 199.425781 227.347656 196.320312 226.226562 C 196.136719 226.160156 196.039062 225.957031 196.105469 225.773438 C 196.175781 225.589844 196.375 225.496094 196.558594 225.5625 C 199.632812 226.671875 202.898438 227.566406 206.261719 228.214844 C 206.453125 228.253906 206.578125 228.4375 206.542969 228.628906 C 206.507812 228.796875 206.363281 228.914062 206.195312 228.914062 " fill-opacity="1" fill-rule="nonzero"/><g clip-path="url(#2cea1a8679)"><path fill="#f7c24b" d="M 178.226562 242.414062 C 178.246094 246.347656 187.753906 242.058594 196.273438 242.925781 C 204.792969 243.796875 192.125 245.613281 193.636719 248.929688 C 195.144531 252.25 207.132812 246.875 217.386719 246.875 C 227.644531 246.875 241.367188 253.671875 245.664062 250.667969 C 249.964844 247.664062 239.027344 245.800781 241.519531 243.8125 C 244.007812 241.820312 256.824219 245.769531 257.351562 241.03125 C 257.878906 236.289062 246.03125 235.539062 226.199219 235.539062 C 208.863281 235.539062 178.199219 236.960938 178.226562 242.414062 " fill-opacity="1" fill-rule="nonzero"/></g><g clip-path="url(#7ff3c3d9cd)"><path fill="#0071bc" d="M 244.042969 211.253906 C 244.335938 210.960938 244.335938 210.488281 244.042969 210.195312 C 243.101562 209.257812 242.007812 208.523438 240.792969 208.007812 C 239.527344 207.472656 238.191406 207.203125 236.8125 207.203125 C 235.433594 207.203125 234.09375 207.472656 232.832031 208.007812 C 231.617188 208.523438 230.523438 209.257812 229.582031 210.195312 C 229.289062 210.488281 229.289062 210.960938 229.582031 211.253906 C 229.871094 211.546875 230.347656 211.546875 230.640625 211.257812 C 232.292969 209.609375 234.484375 208.703125 236.8125 208.703125 C 239.140625 208.703125 241.332031 209.609375 242.984375 211.257812 C 243.128906 211.402344 243.320312 211.476562 243.511719 211.476562 C 243.703125 211.476562 243.898438 211.402344 244.042969 211.253906 Z M 227.558594 208.171875 C 230.03125 205.699219 233.316406 204.339844 236.8125 204.339844 C 240.308594 204.339844 243.59375 205.699219 246.066406 208.171875 C 246.359375 208.464844 246.832031 208.464844 247.125 208.171875 C 247.417969 207.878906 247.417969 207.40625 247.125 207.113281 C 245.785156 205.773438 244.226562 204.722656 242.492188 203.988281 C 240.691406 203.226562 238.78125 202.839844 236.8125 202.839844 C 234.839844 202.839844 232.929688 203.226562 231.132812 203.988281 C 229.398438 204.722656 227.835938 205.773438 226.496094 207.113281 C 226.203125 207.40625 226.203125 207.878906 226.496094 208.171875 C 226.644531 208.320312 226.835938 208.390625 227.027344 208.390625 C 227.21875 208.390625 227.410156 208.320312 227.558594 208.171875 Z M 250.214844 205.085938 C 250.507812 204.792969 250.507812 204.316406 250.214844 204.023438 C 248.472656 202.285156 246.445312 200.917969 244.191406 199.960938 C 241.855469 198.972656 239.371094 198.472656 236.8125 198.472656 C 234.253906 198.472656 231.773438 198.972656 229.433594 199.960938 C 228.3125 200.4375 227.226562 201.027344 226.214844 201.710938 C 225.210938 202.386719 224.265625 203.167969 223.410156 204.023438 C 223.117188 204.316406 223.117188 204.792969 223.410156 205.085938 C 223.699219 205.375 224.175781 205.375 224.46875 205.085938 C 227.765625 201.789062 232.148438 199.972656 236.8125 199.972656 C 241.472656 199.972656 245.859375 201.789062 249.15625 205.085938 C 249.300781 205.230469 249.492188 205.304688 249.683594 205.304688 C 249.878906 205.304688 250.070312 205.230469 250.214844 205.085938 Z M 236.8125 245.667969 C 226.589844 245.667969 217.707031 246.816406 210.5625 248.214844 L 211.652344 250.390625 C 212.054688 251.199219 212.882812 251.710938 213.789062 251.710938 L 259.835938 251.710938 C 260.742188 251.710938 261.570312 251.199219 261.972656 250.390625 L 263.0625 248.214844 C 255.917969 246.816406 247.03125 245.667969 236.8125 245.667969 Z M 252.746094 225.113281 L 263.75 199.519531 C 263.914062 199.136719 263.738281 198.695312 263.359375 198.535156 C 262.976562 198.371094 262.535156 198.546875 262.375 198.925781 L 251.371094 224.523438 C 251.207031 224.902344 251.382812 225.34375 251.761719 225.507812 C 251.859375 225.546875 251.960938 225.566406 252.058594 225.566406 C 252.347656 225.566406 252.625 225.398438 252.746094 225.113281 Z M 221.566406 225.566406 C 221.273438 225.566406 220.996094 225.398438 220.875 225.113281 L 209.875 199.519531 C 209.710938 199.136719 209.886719 198.695312 210.265625 198.535156 C 210.644531 198.371094 211.085938 198.546875 211.25 198.925781 L 222.253906 224.523438 C 222.417969 224.902344 222.242188 225.34375 221.859375 225.507812 C 221.765625 225.546875 221.664062 225.566406 221.566406 225.566406 " fill-opacity="1" fill-rule="nonzero"/></g><g clip-path="url(#9146ab7057)"><path fill="#66c2fe" d="M 263.0625 248.214844 C 255.679688 246.773438 246.824219 245.882812 236.8125 245.882812 C 226.796875 245.882812 217.945312 246.773438 210.5625 248.214844 L 216.238281 227.964844 C 216.617188 226.609375 217.722656 225.582031 219.097656 225.296875 C 224.074219 224.257812 230.050781 223.460938 236.8125 223.460938 C 243.574219 223.460938 249.546875 224.257812 254.527344 225.296875 C 255.902344 225.582031 257.003906 226.609375 257.382812 227.964844 C 259.277344 234.714844 261.167969 241.464844 263.0625 248.214844 " fill-opacity="1" fill-rule="nonzero"/></g><path fill="#faff8c" d="M 239.582031 240.148438 C 239.578125 240.148438 239.574219 240.148438 239.570312 240.148438 C 239.222656 240.136719 238.871094 240.125 238.523438 240.117188 C 238.109375 240.105469 237.777344 239.765625 237.785156 239.351562 C 237.792969 238.941406 238.132812 238.613281 238.550781 238.617188 C 238.550781 238.617188 238.554688 238.617188 238.558594 238.617188 C 238.914062 238.628906 239.269531 238.636719 239.625 238.652344 C 240.046875 238.667969 240.371094 239.019531 240.351562 239.429688 C 240.332031 239.839844 239.988281 240.15625 239.582031 240.148438 Z M 233.972656 240.152344 C 233.5625 240.160156 233.21875 239.84375 233.203125 239.433594 C 233.183594 239.019531 233.507812 238.667969 233.925781 238.652344 C 234.28125 238.640625 234.636719 238.628906 234.996094 238.621094 C 235.414062 238.609375 235.761719 238.9375 235.769531 239.351562 C 235.773438 239.765625 235.445312 240.109375 235.03125 240.117188 C 234.679688 240.125 234.332031 240.136719 233.984375 240.148438 C 233.980469 240.152344 233.976562 240.152344 233.972656 240.152344 Z M 244.125 240.464844 C 244.117188 240.464844 244.105469 240.460938 244.09375 240.460938 C 243.75 240.425781 243.402344 240.394531 243.050781 240.363281 C 242.640625 240.328125 242.332031 239.96875 242.363281 239.554688 C 242.394531 239.144531 242.765625 238.835938 243.179688 238.871094 C 243.539062 238.902344 243.890625 238.933594 244.242188 238.96875 C 244.660156 239.011719 244.964844 239.382812 244.917969 239.792969 C 244.875 240.191406 244.523438 240.484375 244.125 240.464844 Z M 229.429688 240.464844 C 229.03125 240.488281 228.679688 240.195312 228.636719 239.796875 C 228.589844 239.382812 228.894531 239.015625 229.308594 238.972656 C 229.664062 238.9375 230.015625 238.902344 230.375 238.875 C 230.800781 238.839844 231.15625 239.144531 231.191406 239.558594 C 231.222656 239.96875 230.914062 240.332031 230.503906 240.367188 C 230.152344 240.398438 229.804688 240.429688 229.460938 240.464844 C 229.449219 240.464844 229.4375 240.464844 229.429688 240.464844 " fill-opacity="1" fill-rule="nonzero"/></svg>