<svg xmlns="http://www.w3.org/2000/svg" xmlns:xlink="http://www.w3.org/1999/xlink" width="500" zoomAndPan="magnify" viewBox="0 0 375 374.999991" height="500" preserveAspectRatio="xMidYMid meet" version="1.0"><defs><clipPath id="f5a1907df7"><path d="M 114.394531 254.648438 L 275.148438 254.648438 L 275.148438 257.144531 L 114.394531 257.144531 Z M 114.394531 254.648438 " clip-rule="nonzero"/></clipPath></defs><path fill="#a3654a" d="M 201.207031 156.136719 C 201.207031 156.136719 195.65625 154.300781 193.9375 146.769531 C 192.222656 139.238281 194.640625 133.4375 199.09375 130.921875 C 203.542969 128.40625 202.507812 130.890625 204.023438 129.578125 C 205.542969 128.269531 207.0625 126.957031 210.128906 127.753906 C 213.199219 128.550781 219.488281 127.484375 221.863281 129.9375 C 224.242188 132.394531 222.480469 133.117188 226.753906 136.851562 C 231.027344 140.585938 230.136719 146.027344 227.71875 151.824219 C 225.296875 157.625 222.308594 159.125 222.308594 159.125 L 213.523438 151.070312 L 201.207031 156.136719 " fill-opacity="1" fill-rule="nonzero"/><path fill="#f6b592" d="M 228.714844 185.953125 L 215.089844 187.058594 L 209.707031 185.632812 L 214.054688 173.964844 L 212.746094 168.085938 L 211.921875 164.402344 L 217.746094 155.367188 L 220.398438 151.257812 C 220.398438 151.257812 228.320312 166.03125 229.753906 169.441406 C 231.175781 172.851562 228.714844 185.953125 228.714844 185.953125 " fill-opacity="1" fill-rule="nonzero"/><path fill="#e57c5c" d="M 218.894531 164.402344 C 217.703125 167.316406 214.894531 168.015625 212.746094 168.085938 L 211.921875 164.402344 L 217.746094 155.367188 C 218.0625 155.175781 218.253906 155.074219 218.253906 155.074219 C 218.253906 155.074219 220.953125 159.359375 218.894531 164.402344 " fill-opacity="1" fill-rule="nonzero"/><path fill="#5faad3" d="M 211.621094 175.253906 C 211.621094 175.253906 222.382812 182.007812 230.703125 170.683594 L 237.757812 203.914062 L 236.398438 228.890625 L 209.710938 227.9375 L 211.621094 175.253906 " fill-opacity="1" fill-rule="nonzero"/><path fill="#d7edf9" d="M 195.035156 164.285156 C 195.648438 167.695312 193.386719 170.953125 189.984375 171.570312 C 186.582031 172.183594 183.324219 169.917969 182.710938 166.511719 C 182.097656 163.101562 184.359375 159.84375 187.761719 159.226562 C 191.164062 158.613281 194.421875 160.878906 195.035156 164.285156 " fill-opacity="1" fill-rule="nonzero"/><path fill="#ffffff" d="M 176.988281 169.269531 C 176.988281 169.269531 177.761719 172.582031 176.988281 172.917969 C 176.214844 173.253906 175.386719 170.699219 175.386719 170.699219 C 175.386719 170.699219 175.078125 173.84375 174.6875 174.035156 C 174.300781 174.230469 172.5 173.105469 172.5 173.105469 L 175.113281 169.125 L 176.988281 169.269531 " fill-opacity="1" fill-rule="nonzero"/><path fill="#d89371" d="M 177.890625 168.8125 C 177.214844 170.632812 175.519531 171.570312 174.007812 172.601562 C 172.648438 173.527344 171.539062 174.757812 170.628906 176.117188 C 169.945312 177.136719 169.214844 178.304688 169.394531 179.589844 C 169.5 180.332031 169.910156 181.253906 170.734375 181.402344 C 171.144531 181.476562 171.558594 181.328125 171.929688 181.128906 C 173.089844 180.507812 174.578125 179.363281 175.957031 179.980469 C 177.457031 180.65625 172.804688 184.898438 171.664062 186.089844 C 170.597656 187.203125 169.480469 188.417969 170.066406 193.1875 C 170.09375 193.5 170.144531 193.820312 170.195312 194.164062 C 170.289062 194.785156 170.375 195.898438 170.449219 197.382812 C 171.03125 209.21875 170.957031 245.023438 170.269531 250.683594 C 173.101562 252.097656 174.433594 253.339844 175.0625 254.179688 C 175.433594 254.675781 175.214844 255.847656 174.597656 255.902344 C 171.988281 256.132812 165.363281 256.214844 164.316406 255.902344 C 162.785156 255.449219 162.757812 251.074219 162.632812 249.867188 C 162.289062 246.605469 162.542969 243.328125 161.695312 240.125 C 161.933594 241.035156 156.660156 244.320312 155.917969 244.878906 C 154.289062 246.101562 152.9375 246.335938 151.785156 248.003906 C 151.1875 248.871094 150.550781 249.765625 149.769531 250.476562 C 149.21875 250.984375 148.578125 251.363281 147.859375 251.5625 C 150.246094 251.554688 153.171875 253.109375 154.546875 255.058594 C 154.828125 255.449219 154.566406 255.984375 154.089844 255.996094 C 154.089844 255.996094 128.988281 255.902344 128.964844 255.902344 C 128.058594 255.898438 127.191406 256.070312 126.269531 255.972656 C 124.859375 255.824219 123.433594 255.316406 122.277344 254.445312 C 121.082031 253.546875 120.476562 252.164062 119.953125 250.800781 C 119.378906 249.296875 118.808594 247.722656 118.449219 246.160156 C 117.777344 243.226562 117.933594 240.257812 118.722656 237.371094 C 119.101562 235.960938 119.640625 234.445312 120.347656 232.828125 C 122.355469 228.230469 124.679688 223.957031 127.105469 220.070312 C 135.335938 206.882812 143.980469 199.121094 146.136719 197.324219 C 146.3125 197.171875 147.191406 195.976562 147.335938 195.707031 C 147.800781 194.816406 148.117188 193.300781 148.359375 191.46875 C 149.234375 184.824219 149.132812 173.949219 151.71875 173.304688 C 151.71875 173.304688 162.417969 163.488281 174.574219 164.644531 C 174.773438 164.664062 174.976562 164.6875 175.179688 164.714844 C 175.90625 164.804688 176.898438 165.621094 177.457031 166.320312 C 177.566406 166.464844 177.667969 166.601562 177.734375 166.726562 C 178.113281 167.378906 178.148438 168.105469 177.890625 168.8125 " fill-opacity="1" fill-rule="nonzero"/><path fill="#965b3e" d="M 149.125 213.675781 C 147.667969 211.972656 144.164062 213.054688 144.78125 215.539062 C 145.402344 218.023438 143.542969 219.265625 141.679688 219.265625 C 139.820312 219.265625 142.300781 221.746094 144.164062 221.746094 C 146.023438 221.746094 152.84375 218.023438 149.125 213.675781 " fill-opacity="1" fill-rule="nonzero"/><path fill="#965b3e" d="M 133.390625 240.929688 C 133.390625 238.296875 138.351562 239.066406 139.589844 240.308594 C 140.832031 241.550781 142.070312 244.035156 139.589844 244.035156 C 137.109375 244.035156 133.390625 245.277344 133.390625 240.929688 " fill-opacity="1" fill-rule="nonzero"/><path fill="#965b3e" d="M 128.644531 232.945312 C 129.140625 234.84375 130.34375 235.546875 127.75 237.25 C 125.152344 238.949219 123.792969 236.871094 122.398438 239.273438 C 121.003906 241.667969 119.464844 240.453125 119.464844 240.453125 L 118.722656 237.371094 C 119.101562 235.960938 119.640625 234.445312 120.347656 232.828125 C 122.355469 228.230469 124.679688 223.957031 127.105469 220.070312 C 127.125 221.832031 127.664062 223.550781 129.75 223.3125 C 133.878906 222.828125 136.441406 225.601562 134.1875 227.820312 C 131.929688 230.042969 128.140625 231.050781 128.644531 232.945312 " fill-opacity="1" fill-rule="nonzero"/><path fill="#f6b592" d="M 197.90625 143.078125 C 198.238281 145.34375 198.585938 153.09375 201.582031 158.726562 C 204.578125 164.359375 208.714844 166.089844 210.128906 166.195312 C 211.542969 166.300781 216.128906 165.789062 218.792969 160.574219 C 221.449219 155.363281 221.523438 150.527344 221.523438 150.527344 C 221.523438 150.527344 218.875 144.066406 216.738281 142.199219 C 214.601562 140.332031 209.261719 135.664062 207.5 136.386719 C 205.742188 137.109375 197.53125 140.488281 197.90625 143.078125 " fill-opacity="1" fill-rule="nonzero"/><path fill="#a3654a" d="M 200.601562 141.285156 C 203.132812 140.640625 203.742188 137.246094 205.878906 139.113281 C 208.015625 140.980469 209.082031 141.914062 211.667969 141.535156 C 214.257812 141.160156 217.957031 146.84375 220.484375 146.320312 C 223.011719 145.796875 211.503906 136.113281 211.503906 136.113281 L 207.953125 134.144531 L 201.5 136.796875 L 197.875 139.660156 L 197.113281 146.152344 C 197.113281 146.152344 199.128906 152.914062 199.324219 152.46875 C 199.519531 152.027344 196.253906 142.386719 200.601562 141.285156 " fill-opacity="1" fill-rule="nonzero"/><path fill="#a3654a" d="M 207.75 129.910156 C 207.75 129.910156 202.558594 121.089844 208.238281 119.109375 C 209.519531 118.660156 210.75 117.921875 212.160156 118.175781 C 212.90625 118.3125 213.585938 118.691406 214.316406 118.878906 C 215.308594 119.128906 216.355469 119.027344 217.359375 119.226562 C 222.921875 120.324219 218.863281 132.367188 212.835938 131.113281 C 207.113281 129.917969 207.75 129.910156 207.75 129.910156 " fill-opacity="1" fill-rule="nonzero"/><path fill="#8e4d36" d="M 213.230469 131.96875 C 213.519531 131.925781 213.8125 131.921875 214.105469 131.9375 C 214.402344 131.949219 214.695312 131.992188 214.988281 132.058594 C 215.574219 132.195312 216.164062 132.4375 216.671875 132.886719 C 216.921875 133.117188 217.140625 133.398438 217.292969 133.722656 C 217.449219 134.042969 217.53125 134.425781 217.523438 134.796875 C 217.519531 135.171875 217.417969 135.515625 217.324219 135.804688 C 217.273438 135.945312 217.226562 136.074219 217.199219 136.171875 L 217.1875 136.226562 C 217.183594 136.238281 217.179688 136.257812 217.183594 136.257812 C 217.179688 136.273438 217.1875 136.226562 217.167969 136.183594 C 217.144531 136.128906 217.113281 136.089844 217.097656 136.082031 C 217.09375 136.078125 217.097656 136.078125 217.097656 136.082031 C 217.109375 136.085938 217.121094 136.089844 217.128906 136.097656 C 217.195312 136.125 217.296875 136.15625 217.410156 136.179688 C 217.464844 136.191406 217.527344 136.203125 217.585938 136.214844 L 217.777344 136.242188 C 217.90625 136.257812 218.03125 136.273438 218.1875 136.292969 C 218.773438 136.367188 219.363281 136.480469 219.9375 136.6875 C 220.507812 136.894531 221.074219 137.1875 221.527344 137.621094 C 221.980469 138.050781 222.28125 138.625 222.363281 139.199219 C 222.191406 138.964844 222.007812 138.75 221.804688 138.570312 C 221.753906 138.523438 221.703125 138.480469 221.648438 138.441406 C 221.59375 138.402344 221.546875 138.355469 221.492188 138.324219 L 221.328125 138.214844 L 221.15625 138.121094 C 220.695312 137.882812 220.195312 137.746094 219.675781 137.652344 C 219.160156 137.5625 218.625 137.515625 218.082031 137.496094 C 217.953125 137.488281 217.796875 137.480469 217.648438 137.46875 L 217.414062 137.445312 C 217.335938 137.433594 217.257812 137.425781 217.175781 137.410156 C 217.011719 137.378906 216.835938 137.34375 216.640625 137.265625 C 216.585938 137.242188 216.53125 137.214844 216.480469 137.1875 C 216.421875 137.152344 216.363281 137.117188 216.304688 137.070312 C 216.183594 136.96875 216.054688 136.828125 215.984375 136.636719 C 215.914062 136.457031 215.90625 136.269531 215.921875 136.144531 C 215.925781 136.070312 215.941406 136.019531 215.949219 135.960938 C 215.960938 135.90625 215.972656 135.863281 215.988281 135.8125 C 216.042969 135.636719 216.097656 135.503906 216.144531 135.378906 C 216.238281 135.136719 216.304688 134.929688 216.324219 134.734375 C 216.347656 134.539062 216.320312 134.351562 216.261719 134.148438 C 216.195312 133.953125 216.09375 133.757812 215.953125 133.574219 C 215.8125 133.394531 215.632812 133.226562 215.433594 133.066406 C 215.234375 132.914062 215.007812 132.769531 214.773438 132.640625 C 214.296875 132.378906 213.777344 132.164062 213.230469 131.96875 " fill-opacity="1" fill-rule="nonzero"/><path fill="#8e4d36" d="M 201.1875 137.703125 C 201.1875 137.359375 201.234375 137.027344 201.296875 136.703125 C 201.363281 136.378906 201.453125 136.0625 201.554688 135.753906 C 201.765625 135.136719 202.046875 134.542969 202.390625 133.984375 C 202.738281 133.425781 203.152344 132.898438 203.675781 132.449219 C 203.941406 132.230469 204.230469 132.027344 204.558594 131.882812 L 204.683594 131.832031 C 204.726562 131.816406 204.769531 131.800781 204.8125 131.789062 C 204.859375 131.777344 204.902344 131.765625 204.945312 131.753906 C 204.988281 131.746094 205.035156 131.738281 205.082031 131.730469 C 205.257812 131.699219 205.445312 131.714844 205.609375 131.769531 C 205.304688 131.9375 205.113281 132.15625 204.925781 132.386719 C 204.746094 132.621094 204.578125 132.863281 204.421875 133.117188 C 204.101562 133.621094 203.792969 134.136719 203.46875 134.65625 C 203.144531 135.175781 202.808594 135.695312 202.441406 136.207031 C 202.070312 136.71875 201.679688 137.226562 201.1875 137.703125 " fill-opacity="1" fill-rule="nonzero"/><path fill="#4c4c4c" d="M 210.328125 149.972656 C 210.53125 150.460938 210.429688 150.96875 210.101562 151.105469 C 209.773438 151.238281 209.347656 150.949219 209.144531 150.457031 C 208.941406 149.964844 209.042969 149.457031 209.371094 149.324219 C 209.699219 149.1875 210.128906 149.476562 210.328125 149.972656 " fill-opacity="1" fill-rule="nonzero"/><path fill="#4c4c4c" d="M 203.234375 152.9375 C 203.4375 153.429688 203.335938 153.933594 203.007812 154.070312 C 202.679688 154.203125 202.25 153.914062 202.050781 153.425781 C 201.847656 152.933594 201.949219 152.425781 202.277344 152.289062 C 202.605469 152.15625 203.03125 152.445312 203.234375 152.9375 " fill-opacity="1" fill-rule="nonzero"/><path fill="#d89371" d="M 119.867188 250.148438 C 119.867188 250.148438 109.632812 253.4375 104.828125 248.53125 C 100.023438 243.628906 99.660156 232.578125 102.773438 229.035156 C 102.773438 229.035156 102.03125 243.027344 107.492188 246.195312 C 112.949219 249.367188 119.3125 244.367188 119.3125 244.367188 L 119.867188 250.148438 " fill-opacity="1" fill-rule="nonzero"/><path fill="#e22b35" d="M 170.148438 197.699219 C 165.695312 199.125 157.15625 200.652344 147.742188 196.023438 C 147.398438 195.855469 147.25 195.453125 147.386719 195.09375 C 147.542969 194.675781 147.679688 194.179688 147.800781 193.621094 C 148.042969 192.53125 149.179688 191.875 150.242188 192.253906 C 155.0625 193.972656 162.574219 195.84375 169.492188 193.613281 C 169.996094 193.449219 170.546875 193.710938 170.757812 194.191406 C 170.8125 194.320312 170.859375 194.445312 170.875 194.542969 C 170.945312 195.007812 170.984375 195.539062 171.035156 196.40625 C 171.066406 196.984375 170.707031 197.523438 170.148438 197.699219 " fill-opacity="1" fill-rule="nonzero"/><path fill="#6b3f2c" d="M 177.457031 166.320312 C 176.539062 166.570312 174.925781 167.226562 174.226562 167.066406 C 173.476562 166.890625 174.210938 165.476562 174.574219 164.644531 C 174.773438 164.664062 174.976562 164.6875 175.179688 164.714844 C 175.90625 164.804688 176.898438 165.621094 177.457031 166.320312 " fill-opacity="1" fill-rule="nonzero"/><path fill="#f2f7f9" d="M 265.125 255.03125 L 200.511719 255.03125 C 200.546875 254.246094 200.582031 253.394531 200.621094 252.492188 C 201.285156 237.070312 202.511719 205.890625 201.8125 199.570312 C 201.117188 193.261719 200.191406 186.015625 205.78125 179.835938 C 207.691406 177.730469 210.359375 175.742188 214.054688 173.964844 C 211.050781 188.359375 216.09375 220.425781 216.09375 220.425781 L 218.671875 232.203125 L 218.734375 232.488281 C 218.734375 232.488281 219.292969 229.878906 220.160156 225.824219 C 223.058594 212.207031 229.40625 182.28125 229.671875 179.78125 C 229.953125 177.15625 229.507812 171.746094 229.089844 169.59375 C 228.988281 169.074219 229.3125 168.457031 229.3125 168.457031 C 229.3125 168.457031 229.324219 168.464844 229.457031 168.503906 C 230.585938 168.828125 234.1875 170.097656 238.777344 171.726562 C 242.996094 173.226562 247.3125 175.023438 249.277344 176.613281 C 250.160156 177.328125 251.324219 180.058594 252.625 184.144531 C 255.472656 193.078125 258.964844 208.492188 261.535156 223.519531 C 261.976562 226.113281 262.394531 228.699219 262.777344 231.234375 C 262.910156 232.109375 263.035156 232.984375 263.15625 233.847656 C 264.140625 240.769531 264.824219 247.242188 265.054688 252.492188 C 265.089844 253.375 265.109375 254.226562 265.125 255.03125 " fill-opacity="1" fill-rule="nonzero"/><path fill="#cedff4" d="M 235.941406 190.476562 L 232.929688 194.445312 L 234.515625 195.71875 L 220.726562 235.058594 L 221.992188 226.460938 L 230.921875 170.238281 L 231.144531 169.101562 C 232.273438 169.425781 236.019531 170.734375 240.609375 172.367188 L 235.941406 190.476562 " fill-opacity="1" fill-rule="nonzero"/><path fill="#cedff4" d="M 213.914062 215.367188 C 212.621094 205.261719 210.601562 185.675781 212.769531 175.289062 C 209.074219 177.066406 206.402344 179.054688 204.496094 181.160156 L 207.691406 196.402344 L 211.5 198.625 L 210.335938 202.117188 L 213.113281 215.589844 L 213.914062 215.367188 " fill-opacity="1" fill-rule="nonzero"/><g clip-path="url(#f5a1907df7)"><path fill="#4995aa" d="M 275.167969 254.664062 L 275.167969 257.144531 L 114.546875 257.144531 L 114.546875 254.664062 L 275.167969 254.664062 " fill-opacity="1" fill-rule="nonzero"/></g><path fill="#4c4c4c" d="M 195.222656 182.996094 C 194.882812 182.996094 194.5625 182.78125 194.445312 182.4375 L 190.714844 171.566406 C 190.566406 171.132812 190.796875 170.664062 191.226562 170.515625 C 191.660156 170.367188 192.128906 170.597656 192.277344 171.027344 L 196.007812 181.898438 C 196.152344 182.332031 195.925781 182.800781 195.492188 182.953125 C 195.40625 182.980469 195.3125 182.996094 195.222656 182.996094 " fill-opacity="1" fill-rule="nonzero"/><path stroke-linecap="butt" transform="matrix(0.0358749, 0, 0, -0.0359277, 100.76148, 257.146507)" fill="none" stroke-linejoin="miter" d="M 2627.845436 2584.673299 C 2644.940435 2489.756095 2581.895823 2399.079178 2487.056692 2381.900578 C 2392.217561 2364.830702 2301.407188 2427.891388 2284.31219 2522.699867 C 2267.217191 2617.617071 2330.261803 2708.293988 2425.100934 2725.472588 C 2519.940065 2742.542463 2610.750438 2679.481778 2627.845436 2584.673299 Z M 2627.845436 2584.673299 " stroke="#4c4c4c" stroke-width="35.348" stroke-opacity="1" stroke-miterlimit="10"/><path stroke-linecap="round" transform="matrix(0.0358749, 0, 0, -0.0359277, 100.76148, 257.146507)" fill="none" stroke-linejoin="round" d="M 1074.269409 541.615814 C 1074.269409 541.615814 1200.249747 667.519734 1380.237214 613.48325 C 1458.416888 590.107306 1496.635642 509.541844 1499.575546 432.890494 C 1504.584272 301.332857 1398.203295 238.598347 1326.556741 145.529474 " stroke="#965b3e" stroke-width="17.287001" stroke-opacity="1" stroke-miterlimit="10"/><path stroke-linecap="round" transform="matrix(0.0358749, 0, 0, -0.0359277, 100.76148, 257.146507)" fill="none" stroke-linejoin="round" d="M 1707.873201 660.017687 L 1707.873201 462.137605 " stroke="#965b3e" stroke-width="17.993999" stroke-opacity="1" stroke-miterlimit="10"/><path fill="#6b3f2c" d="M 161.65625 170.257812 C 161.753906 169.90625 162.386719 169.777344 163.070312 169.96875 C 163.753906 170.15625 164.226562 170.597656 164.132812 170.949219 C 164.03125 171.296875 163.398438 171.429688 162.71875 171.238281 C 162.035156 171.050781 161.558594 170.609375 161.65625 170.257812 " fill-opacity="1" fill-rule="nonzero"/><path fill="#ffdd5a" d="M 169.40625 200.855469 C 169.40625 201.898438 168.5625 202.742188 167.519531 202.742188 C 166.476562 202.742188 165.632812 201.898438 165.632812 200.855469 C 165.632812 199.8125 166.476562 198.964844 167.519531 198.964844 C 168.5625 198.964844 169.40625 199.8125 169.40625 200.855469 " fill-opacity="1" fill-rule="nonzero"/><path fill="#965b3e" d="M 155.207031 189.871094 C 154.785156 193.269531 146.679688 194.238281 144.328125 191.382812 C 144.171875 191.195312 144.046875 190.964844 143.9375 190.691406 C 143.917969 190.644531 143.898438 190.59375 143.882812 190.539062 C 143.71875 190.078125 143.613281 189.519531 143.566406 188.886719 C 143.558594 188.824219 143.550781 188.757812 143.550781 188.6875 C 143.519531 188.238281 143.515625 187.753906 143.539062 187.25 C 143.546875 187.183594 143.546875 187.109375 143.550781 187.039062 C 143.582031 186.496094 143.640625 185.917969 143.726562 185.328125 C 143.734375 185.253906 143.746094 185.179688 143.757812 185.101562 C 143.851562 184.484375 143.972656 183.847656 144.121094 183.203125 C 144.140625 183.128906 144.160156 183.054688 144.179688 182.980469 C 145.238281 178.625 147.535156 174.191406 150.574219 173.601562 C 150.574219 173.601562 151.367188 173.148438 153.53125 174.535156 C 155.6875 175.925781 155.621094 186.480469 155.207031 189.871094 " fill-opacity="1" fill-rule="nonzero"/><path fill="#f6b592" d="M 218.539062 147.167969 C 218.691406 146.691406 219.382812 146.152344 219.746094 145.851562 C 220.441406 145.277344 221.375 144.816406 222.292969 145.070312 C 223.558594 145.421875 224.671875 147.042969 225.027344 148.242188 C 225.289062 149.117188 225.152344 149.941406 224.808594 150.765625 C 224.464844 151.59375 221.667969 154.804688 219.183594 153.765625 C 216.703125 152.726562 218.535156 147.171875 218.539062 147.167969 " fill-opacity="1" fill-rule="nonzero"/><path fill="#e57c5c" d="M 220.324219 147.078125 C 220.324219 147.078125 222.875 146.222656 223.402344 148.707031 " fill-opacity="1" fill-rule="nonzero"/><path fill="#e57c5c" d="M 204.855469 151.824219 C 205.21875 152.503906 205.515625 153.203125 205.785156 153.910156 C 206.054688 154.613281 206.296875 155.332031 206.511719 156.050781 L 206.667969 156.59375 L 206.816406 157.140625 C 206.863281 157.324219 206.910156 157.507812 206.953125 157.691406 L 206.980469 157.8125 C 206.984375 157.820312 206.984375 157.832031 206.992188 157.839844 C 206.992188 157.847656 206.996094 157.855469 207 157.863281 C 207.011719 157.890625 207.035156 157.921875 207.082031 157.953125 C 207.175781 158.011719 207.335938 158.050781 207.503906 158.0625 C 207.671875 158.078125 207.855469 158.078125 208.035156 158.070312 C 208.21875 158.058594 208.40625 158.042969 208.59375 158.023438 C 208.78125 158.007812 208.96875 157.984375 209.164062 157.972656 C 208.996094 158.066406 208.820312 158.152344 208.648438 158.230469 C 208.46875 158.308594 208.289062 158.378906 208.101562 158.4375 C 207.914062 158.492188 207.71875 158.542969 207.511719 158.5625 C 207.410156 158.578125 207.300781 158.578125 207.1875 158.570312 C 207.074219 158.5625 206.953125 158.542969 206.828125 158.492188 C 206.707031 158.441406 206.574219 158.355469 206.480469 158.230469 C 206.453125 158.203125 206.433594 158.167969 206.414062 158.132812 C 206.394531 158.101562 206.378906 158.066406 206.367188 158.03125 L 206.347656 157.984375 L 206.335938 157.949219 L 206.3125 157.882812 C 206.246094 157.707031 206.1875 157.527344 206.125 157.347656 L 205.949219 156.8125 L 205.785156 156.269531 C 205.570312 155.546875 205.378906 154.816406 205.214844 154.078125 C 205.054688 153.339844 204.917969 152.59375 204.855469 151.824219 " fill-opacity="1" fill-rule="nonzero"/><path fill="#a3654a" d="M 207.296875 146.628906 C 207.304688 146.519531 207.324219 146.414062 207.351562 146.316406 C 207.367188 146.265625 207.382812 146.214844 207.402344 146.167969 C 207.421875 146.121094 207.441406 146.074219 207.460938 146.027344 C 207.550781 145.847656 207.664062 145.679688 207.796875 145.53125 C 208.0625 145.230469 208.410156 145.003906 208.796875 144.867188 C 208.988281 144.792969 209.195312 144.761719 209.398438 144.734375 C 209.605469 144.730469 209.808594 144.722656 210.011719 144.773438 C 210.414062 144.851562 210.789062 145.054688 211.058594 145.386719 C 210.957031 145.433594 210.859375 145.46875 210.769531 145.5 C 210.679688 145.53125 210.59375 145.550781 210.507812 145.589844 C 210.425781 145.617188 210.34375 145.644531 210.265625 145.667969 C 210.1875 145.691406 210.113281 145.726562 210.039062 145.746094 C 209.890625 145.789062 209.753906 145.851562 209.613281 145.886719 C 209.476562 145.945312 209.339844 145.980469 209.207031 146.035156 C 208.933594 146.128906 208.65625 146.226562 208.351562 146.324219 C 208.039062 146.425781 207.71875 146.53125 207.296875 146.628906 " fill-opacity="1" fill-rule="nonzero"/><path fill="#a3654a" d="M 202.28125 148.28125 C 201.910156 148.421875 201.617188 148.488281 201.347656 148.554688 C 201.082031 148.621094 200.855469 148.671875 200.660156 148.722656 C 200.464844 148.78125 200.300781 148.824219 200.09375 148.917969 C 199.882812 149.007812 199.652344 149.171875 199.320312 149.398438 C 199.234375 149.214844 199.199219 149.027344 199.207031 148.835938 C 199.214844 148.644531 199.273438 148.449219 199.367188 148.269531 C 199.558594 147.90625 199.945312 147.632812 200.335938 147.53125 C 200.726562 147.429688 201.117188 147.464844 201.449219 147.589844 C 201.617188 147.65625 201.773438 147.746094 201.917969 147.855469 C 202.054688 147.972656 202.1875 148.101562 202.28125 148.28125 " fill-opacity="1" fill-rule="nonzero"/><path fill="#e57c5c" d="M 209.96875 161.058594 C 210.398438 160.839844 210.808594 160.640625 211.203125 160.433594 C 211.601562 160.226562 211.980469 160.011719 212.328125 159.765625 C 212.675781 159.519531 212.980469 159.238281 213.230469 158.90625 C 213.355469 158.738281 213.460938 158.558594 213.554688 158.359375 C 213.652344 158.160156 213.714844 157.941406 213.789062 157.707031 C 213.820312 157.824219 213.859375 157.941406 213.871094 158.0625 C 213.878906 158.125 213.886719 158.1875 213.886719 158.25 L 213.886719 158.4375 C 213.867188 158.6875 213.804688 158.9375 213.703125 159.175781 C 213.492188 159.644531 213.132812 160.039062 212.726562 160.324219 C 212.320312 160.617188 211.863281 160.8125 211.398438 160.9375 C 210.929688 161.058594 210.449219 161.121094 209.96875 161.058594 " fill-opacity="1" fill-rule="nonzero"/><path fill="#f6b592" d="M 191.945312 186.832031 C 191.945312 186.832031 188.519531 174.570312 190.753906 173.105469 C 192.984375 171.640625 196.550781 172.207031 196.941406 173.265625 C 197.335938 174.324219 196.78125 175.027344 196.78125 175.027344 C 196.78125 175.027344 197.691406 175.671875 197.574219 176.578125 C 197.460938 177.488281 197.242188 177.96875 197.71875 178.933594 C 198.433594 179.53125 199.101562 180.335938 198.351562 181.761719 C 198.007812 182.753906 198.902344 183.035156 197.652344 183.703125 C 196.40625 184.371094 191.945312 186.832031 191.945312 186.832031 " fill-opacity="1" fill-rule="nonzero"/><path stroke-linecap="round" transform="matrix(0.0358749, 0, 0, -0.0359277, 100.76148, 257.146507)" fill="none" stroke-linejoin="round" d="M 2429.129691 2674.480413 L 2358.354221 2521.612614 " stroke="#ffffff" stroke-width="17.674" stroke-opacity="1" stroke-miterlimit="10"/><path stroke-linecap="round" transform="matrix(0.0358749, 0, 0, -0.0359277, 100.76148, 257.146507)" fill="none" stroke-linejoin="round" d="M 2456.02437 2610.876101 L 2412.470234 2516.502524 " stroke="#ffffff" stroke-width="17.674" stroke-opacity="1" stroke-miterlimit="10"/><path fill="#f2f7f9" d="M 211.621094 200.792969 L 212.789062 197.300781 L 208.976562 195.078125 L 205.78125 179.835938 C 207.691406 177.730469 210.359375 175.742188 214.054688 173.964844 C 211.050781 188.359375 219.84375 219.746094 219.84375 219.746094 L 223.4375 231.855469 L 218.894531 236.992188 L 211.621094 200.792969 " fill-opacity="1" fill-rule="nonzero"/><path fill="#f2f7f9" d="M 234.113281 189.839844 L 231.097656 193.808594 L 232.683594 195.078125 L 218.894531 234.421875 L 218.417969 221.828125 L 229.089844 169.597656 L 229.3125 168.460938 C 230.441406 168.785156 234.1875 170.097656 238.777344 171.726562 L 234.113281 189.839844 " fill-opacity="1" fill-rule="nonzero"/><path fill="#cedff4" d="M 263.15625 233.847656 C 263.238281 234.453125 260.074219 236.085938 259.546875 236.308594 C 257.820312 237.039062 255.773438 237.371094 253.945312 237.753906 C 247.890625 239.027344 241.667969 239.308594 235.5 239.25 C 231.09375 239.199219 224.914062 241.433594 224.757812 239.257812 C 224.410156 234.332031 251.585938 226.292969 261.535156 223.519531 C 261.976562 226.113281 262.394531 228.699219 262.777344 231.234375 C 262.910156 232.109375 263.035156 232.984375 263.15625 233.847656 " fill-opacity="1" fill-rule="nonzero"/><path fill="#f6b592" d="M 190.753906 173.105469 C 190.753906 173.105469 183.808594 181.054688 183.597656 186.027344 C 183.386719 191.003906 189.199219 192.148438 189.199219 192.148438 L 191.945312 186.832031 L 190.753906 173.105469 " fill-opacity="1" fill-rule="nonzero"/><path fill="#f2f7f9" d="M 202.726562 205.148438 L 202.726562 184.59375 L 198.921875 201.039062 C 198.917969 201.039062 198.917969 201.039062 198.914062 201.035156 C 189.558594 219.640625 195.488281 187.582031 192.632812 187.414062 C 189.78125 187.25 183.21875 184.234375 183.21875 184.234375 C 183.21875 184.234375 174.765625 206.566406 180.894531 220.324219 C 187.023438 234.082031 204.460938 221.371094 204.460938 221.371094 C 204.460938 221.371094 205.769531 211.378906 202.726562 205.148438 " fill-opacity="1" fill-rule="nonzero"/><path stroke-linecap="round" transform="matrix(0.0358749, 0, 0, -0.0359277, 100.76148, 257.146507)" fill="none" stroke-linejoin="round" d="M 2842.24067 1572.984198 L 2810.555037 833.325847 " stroke="#cedff4" stroke-width="33.456001" stroke-opacity="1" stroke-miterlimit="10"/><path fill="#f44d64" d="M 224.582031 239.285156 L 212.0625 210.65625 C 211.761719 209.960938 212.082031 209.140625 212.773438 208.828125 C 213.46875 208.515625 214.289062 208.832031 214.59375 209.527344 L 227.117188 238.164062 C 227.253906 238.484375 227.109375 238.859375 226.789062 239.003906 L 225.433594 239.613281 C 225.105469 239.757812 224.722656 239.609375 224.582031 239.285156 " fill-opacity="1" fill-rule="nonzero"/><path fill="#ffdd5a" d="M 212.75 217.132812 L 214.363281 216.480469 C 214.929688 216.25 215.207031 215.597656 214.980469 215.019531 L 213.300781 210.707031 C 213.074219 210.132812 212.433594 209.851562 211.871094 210.078125 L 210.253906 210.738281 L 212.75 217.132812 " fill-opacity="1" fill-rule="nonzero"/><path fill="#f6b592" d="M 230.414062 225.132812 C 230.414062 225.132812 224.023438 226.6875 223.175781 225.660156 C 222.324219 224.636719 216.792969 227.023438 218.15625 229.835938 C 219.515625 232.644531 218.578125 234.605469 219.738281 235.292969 C 220.902344 235.980469 220.53125 237.25 221.324219 237.886719 C 222.117188 238.519531 221.378906 239.683594 223.386719 240.265625 C 225.394531 240.847656 236.015625 236.667969 236.382812 235.503906 C 236.753906 234.339844 230.414062 225.132812 230.414062 225.132812 " fill-opacity="1" fill-rule="nonzero"/><path fill="#f6b592" d="M 221.644531 219.808594 C 222.027344 219.648438 222.46875 219.804688 222.660156 220.167969 C 223.425781 221.617188 226.011719 225.640625 227.171875 226.457031 C 228.597656 227.460938 222.382812 227.195312 222.382812 227.195312 C 222.382812 227.195312 218.808594 221 221.644531 219.808594 " fill-opacity="1" fill-rule="nonzero"/><path fill="#f2f7f9" d="M 249.273438 176.609375 C 249.273438 176.609375 268.667969 196.984375 271.519531 213.652344 C 274.375 230.316406 235.0625 236.996094 235.0625 236.996094 C 235.0625 236.996094 230.140625 225.632812 228.71875 225.277344 C 227.453125 223.414062 248.21875 213.917969 248.375 212.910156 C 248.535156 211.902344 231.628906 185.445312 249.273438 176.609375 " fill-opacity="1" fill-rule="nonzero"/><path stroke-linecap="round" transform="matrix(0.0358749, 0, 0, -0.0359277, 100.76148, 257.146507)" fill="none" stroke-linejoin="round" d="M 3677.282341 984.236591 C 3677.282341 984.236591 4152.240193 1455.669578 4414.109435 1296.386984 " stroke="#cedff4" stroke-width="33.456001" stroke-opacity="1" stroke-miterlimit="10"/><path stroke-linecap="round" transform="matrix(0.0358749, 0, 0, -0.0359277, 100.76148, 257.146507)" fill="none" stroke-linejoin="round" d="M 4164.653122 1502.31274 C 4164.653122 1502.31274 4176.412738 1350.314743 4284.100339 1329.222031 " stroke="#cedff4" stroke-width="33.456001" stroke-opacity="1" stroke-miterlimit="10"/><path fill="#fcfcfc" d="M 149.023438 194.917969 C 150.207031 195.597656 151.433594 196.21875 152.722656 196.6875 C 153.960938 197.136719 155.253906 197.421875 156.566406 197.566406 C 157.433594 197.667969 158.308594 197.703125 159.1875 197.703125 C 159.285156 197.703125 159.285156 197.546875 159.1875 197.546875 C 157.730469 197.546875 156.273438 197.441406 154.851562 197.136719 C 153.582031 196.863281 152.355469 196.429688 151.183594 195.882812 C 150.472656 195.546875 149.78125 195.171875 149.097656 194.78125 C 149.011719 194.734375 148.933594 194.867188 149.023438 194.917969 " fill-opacity="1" fill-rule="nonzero"/><path fill="#fcfcfc" d="M 166.175781 197.390625 C 167.660156 197.460938 169.136719 197.136719 170.453125 196.453125 C 170.542969 196.40625 170.464844 196.273438 170.375 196.320312 C 169.082031 196.992188 167.632812 197.308594 166.175781 197.234375 C 166.078125 197.230469 166.078125 197.386719 166.175781 197.390625 " fill-opacity="1" fill-rule="nonzero"/><path fill="#515151" d="M 146.25 181.816406 C 145.511719 182.238281 144.804688 182.707031 144.121094 183.203125 C 144.140625 183.128906 144.160156 183.054688 144.179688 182.980469 C 144.816406 182.511719 145.480469 182.078125 146.167969 181.679688 C 146.257812 181.632812 146.335938 181.769531 146.25 181.816406 " fill-opacity="1" fill-rule="nonzero"/><path fill="#515151" d="M 146.976562 183.210938 C 145.804688 183.792969 144.71875 184.496094 143.726562 185.328125 C 143.734375 185.253906 143.746094 185.179688 143.757812 185.101562 C 144.71875 184.308594 145.765625 183.632812 146.894531 183.070312 C 146.988281 183.027344 147.0625 183.167969 146.976562 183.210938 " fill-opacity="1" fill-rule="nonzero"/><path fill="#515151" d="M 147.058594 185.027344 C 145.753906 185.574219 144.578125 186.320312 143.539062 187.25 C 143.546875 187.183594 143.546875 187.109375 143.550781 187.039062 C 144.578125 186.132812 145.734375 185.414062 147.019531 184.878906 C 147.105469 184.839844 147.148438 184.992188 147.058594 185.027344 " fill-opacity="1" fill-rule="nonzero"/><path fill="#515151" d="M 147.285156 186.332031 C 145.847656 186.898438 144.59375 187.769531 143.566406 188.886719 C 143.558594 188.824219 143.550781 188.757812 143.550781 188.6875 C 144.5625 187.59375 145.816406 186.75 147.25 186.179688 C 147.339844 186.148438 147.378906 186.296875 147.285156 186.332031 " fill-opacity="1" fill-rule="nonzero"/><path fill="#515151" d="M 147.367188 187.902344 C 146.101562 188.691406 144.960938 189.625 143.9375 190.691406 C 143.917969 190.644531 143.898438 190.59375 143.882812 190.539062 C 144.890625 189.480469 146.03125 188.554688 147.292969 187.773438 C 147.371094 187.71875 147.453125 187.855469 147.367188 187.902344 " fill-opacity="1" fill-rule="nonzero"/><path fill="#ffffff" d="M 215.835938 215.027344 C 217.132812 218.074219 218.429688 221.121094 219.722656 224.167969 C 219.765625 224.261719 219.902344 224.179688 219.863281 224.085938 C 218.566406 221.039062 217.269531 217.992188 215.972656 214.945312 C 215.933594 214.851562 215.796875 214.933594 215.835938 215.027344 " fill-opacity="1" fill-rule="nonzero"/><path fill="#ffffff" d="M 212.308594 215.003906 C 212.035156 214.6875 211.929688 214.257812 211.878906 213.84375 C 211.828125 213.429688 211.820312 213.003906 211.703125 212.601562 C 211.585938 212.203125 211.332031 211.8125 210.941406 211.660156 C 211.558594 211.449219 212.277344 211.582031 212.777344 211.996094 C 213.277344 212.414062 213.539062 213.101562 213.445312 213.746094 C 213.402344 214.046875 213.285156 214.339844 213.308594 214.640625 C 213.332031 214.945312 213.566406 215.265625 213.867188 215.230469 C 213.28125 215.300781 212.769531 215.542969 212.308594 215.003906 " fill-opacity="1" fill-rule="nonzero"/><path fill="#fcfcfc" d="M 167.925781 199.570312 C 168.03125 199.570312 167.957031 199.507812 167.886719 199.507812 C 167.78125 199.507812 167.859375 199.570312 167.925781 199.570312 " fill-opacity="1" fill-rule="nonzero"/><path fill="#fcfcfc" d="M 167.894531 199.578125 C 168.839844 199.941406 169.03125 201.15625 168.351562 201.859375 C 168.320312 201.894531 168.457031 201.957031 168.488281 201.925781 C 169.253906 201.132812 168.910156 199.902344 167.914062 199.519531 C 167.828125 199.488281 167.808594 199.546875 167.894531 199.578125 " fill-opacity="1" fill-rule="nonzero"/><path fill="#965b3e" d="M 171.246094 168.042969 C 171.261719 168.027344 171.28125 168.011719 171.296875 167.992188 C 171.339844 167.949219 171.378906 167.90625 171.335938 167.847656 C 171.296875 167.789062 171.179688 167.757812 171.117188 167.746094 C 171 167.726562 170.875 167.722656 170.757812 167.746094 C 170.722656 167.753906 170.683594 167.761719 170.648438 167.769531 C 170.589844 167.785156 170.535156 167.808594 170.484375 167.84375 C 170.46875 167.863281 170.453125 167.878906 170.433594 167.894531 C 170.390625 167.9375 170.351562 167.980469 170.394531 168.042969 C 170.433594 168.101562 170.550781 168.132812 170.613281 168.140625 C 170.730469 168.160156 170.855469 168.164062 170.972656 168.144531 C 171.007812 168.136719 171.046875 168.125 171.082031 168.121094 C 171.140625 168.105469 171.195312 168.078125 171.246094 168.042969 " fill-opacity="1" fill-rule="nonzero"/><path fill="#965b3e" d="M 169.558594 169.71875 C 169.699219 169.71875 170.050781 169.667969 170.101562 169.503906 C 170.160156 169.324219 169.835938 169.324219 169.746094 169.324219 C 169.601562 169.324219 169.253906 169.378906 169.199219 169.542969 C 169.144531 169.722656 169.464844 169.71875 169.558594 169.71875 " fill-opacity="1" fill-rule="nonzero"/><path fill="#965b3e" d="M 170.996094 169.277344 C 170.980469 169.296875 170.960938 169.3125 170.945312 169.332031 C 170.902344 169.375 170.875 169.425781 170.917969 169.480469 C 170.964844 169.535156 171.082031 169.554688 171.144531 169.558594 C 171.265625 169.566406 171.390625 169.558594 171.503906 169.527344 C 171.59375 169.503906 171.699219 169.472656 171.765625 169.402344 C 171.785156 169.386719 171.800781 169.371094 171.820312 169.355469 C 171.859375 169.308594 171.890625 169.257812 171.84375 169.203125 C 171.800781 169.148438 171.683594 169.128906 171.617188 169.125 C 171.5 169.113281 171.375 169.125 171.261719 169.15625 C 171.171875 169.179688 171.066406 169.210938 170.996094 169.277344 " fill-opacity="1" fill-rule="nonzero"/></svg>