<svg xmlns="http://www.w3.org/2000/svg" xmlns:xlink="http://www.w3.org/1999/xlink" width="500" zoomAndPan="magnify" viewBox="0 0 375 374.999991" height="500" preserveAspectRatio="xMidYMid meet" version="1.0"><defs><clipPath id="a894448a24"><path d="M 85.109375 157 L 207 157 L 207 249 L 85.109375 249 Z M 85.109375 157 " clip-rule="nonzero"/></clipPath><clipPath id="de6f4a7a50"><path d="M 134 138 L 239 138 L 239 251.898438 L 134 251.898438 Z M 134 138 " clip-rule="nonzero"/></clipPath></defs><g clip-path="url(#a894448a24)"><path fill="#308982" d="M 149.375 157.988281 C 149.375 157.988281 162.035156 166.046875 169.644531 165.4375 C 177.296875 164.828125 180.148438 165.964844 183.648438 167.714844 C 187.109375 169.507812 190.933594 174.597656 190.933594 174.597656 C 192.113281 174.675781 194.070312 177.121094 197.121094 178.828125 C 200.175781 180.539062 206.035156 185.992188 206.035156 185.992188 C 206.035156 185.992188 205.875 186.890625 204 189.699219 C 202.128906 192.507812 192.359375 197.59375 190.324219 197.066406 C 188.289062 196.535156 183.605469 195.519531 183.605469 195.519531 C 183.605469 195.519531 181.246094 209.601562 178.761719 219.371094 C 176.320312 229.140625 168.21875 245.585938 168.21875 245.585938 C 168.21875 245.585938 150.636719 248.558594 132.929688 248.230469 C 115.222656 247.945312 85.386719 247.539062 85.386719 247.539062 C 85.386719 247.539062 85.386719 234.675781 89.78125 227.1875 C 91.367188 224.460938 92.832031 223.441406 93.851562 219.820312 C 94.871094 216.15625 96.210938 213.875 96.984375 212.613281 C 97.757812 211.351562 98.003906 211.433594 98.613281 209.722656 C 99.226562 208.015625 101.910156 206.425781 101.910156 206.425781 L 103.089844 203.457031 C 103.089844 203.457031 102.398438 200.484375 103.089844 197.675781 C 103.785156 194.867188 107.488281 187.5 111.925781 179.398438 C 116.363281 171.296875 129.917969 163.441406 134.597656 161.894531 C 139.277344 160.347656 142.535156 160.429688 142.535156 160.429688 Z M 149.375 157.988281 " fill-opacity="1" fill-rule="nonzero"/></g><path fill="#34352c" d="M 150.511719 169.957031 C 150.351562 170.363281 149.78125 170.445312 149.332031 170.402344 C 147.867188 170.320312 146.320312 170.078125 145.140625 169.140625 C 143.632812 167.921875 143.105469 165.886719 142.738281 163.972656 C 142.574219 163.15625 142.414062 162.34375 142.496094 161.570312 C 142.574219 160.796875 143.023438 159.820312 143.714844 159.414062 C 143.960938 155.707031 144.246094 151.964844 144 148.257812 C 143.839844 145.777344 143.429688 143.292969 143.757812 140.851562 C 142.941406 141.015625 142.167969 140.035156 141.800781 139.261719 C 141.4375 138.488281 141.476562 137.59375 141.722656 136.78125 C 141.355469 135.640625 141.355469 134.257812 141.800781 133.15625 C 142.25 132.058594 143.105469 131.082031 144.121094 130.550781 C 144.042969 129.289062 144.652344 128.109375 145.589844 127.214844 C 146.484375 126.320312 147.785156 125.871094 149.089844 125.953125 C 150.554688 124.445312 153.117188 124.082031 154.910156 125.097656 C 156.457031 123.714844 158.898438 123.386719 160.609375 124.527344 C 160.851562 124.082031 161.21875 123.835938 161.707031 123.632812 C 163.296875 123.023438 165.167969 123.023438 166.753906 123.671875 C 168.503906 122.898438 170.703125 123.347656 171.761719 124.933594 C 172.65625 124.691406 173.714844 124.8125 174.53125 125.21875 C 175.34375 125.628906 176.035156 126.441406 176.320312 127.335938 C 177.296875 126.808594 178.722656 127.5 179.535156 128.273438 C 180.269531 128.964844 180.757812 129.941406 180.878906 131 C 182.140625 130.714844 183.6875 130.960938 184.664062 131.8125 C 185.683594 132.667969 185.886719 134.664062 185.316406 136.046875 C 185.925781 136.738281 186.496094 137.675781 186.292969 138.9375 C 186.050781 140.363281 185.113281 141.746094 183.769531 142.195312 " fill-opacity="1" fill-rule="nonzero"/><path fill="#ffcea1" d="M 248.53125 248.679688 C 239.78125 249.046875 234.53125 250.105469 232.128906 248.761719 C 232.128906 248.761719 230.417969 248.558594 230.785156 246.15625 C 230.785156 246.15625 228.585938 245.179688 227.8125 244.8125 C 227.8125 244.8125 226.957031 249.902344 222.929688 250.1875 C 221.339844 250.308594 220.160156 250.023438 219.347656 249.65625 C 219.347656 249.65625 217.269531 250.1875 216.578125 247.582031 C 216.578125 247.582031 213.527344 248.558594 210.71875 247.867188 C 207.949219 247.171875 208.398438 242.816406 211.570312 242.003906 C 212.710938 241.71875 213.117188 242.003906 213.117188 242.003906 C 213.117188 242.003906 213.605469 237.609375 213.402344 228.652344 C 213.199219 219.699219 211.855469 215.300781 210.148438 212.410156 C 208.4375 209.519531 205.140625 204.269531 204.691406 199.058594 C 204.203125 193.890625 207.09375 188.027344 205.382812 184.203125 C 203.675781 180.375 201.070312 177.769531 201.070312 174.515625 C 201.070312 172.03125 201.4375 171.339844 201.925781 170.972656 C 202.414062 170.605469 205.101562 170.402344 205.953125 168.570312 C 206.808594 166.738281 208.925781 165.03125 210.757812 164.339844 C 211.164062 164.175781 211.816406 164.09375 212.550781 164.054688 C 215.316406 163.890625 226.796875 172.398438 228.34375 175.980469 C 228.546875 176.425781 228.707031 176.835938 228.871094 177.199219 C 230.417969 180.578125 235.101562 185.667969 237.214844 186.605469 C 239.332031 187.582031 248.941406 191.609375 254.027344 200.890625 C 255.410156 203.457031 256.511719 207.039062 257.324219 211.027344 C 257.203125 218.925781 255.574219 225.4375 258.464844 236.140625 C 258.300781 237.199219 258.058594 238.097656 257.8125 238.707031 C 260.296875 246.5625 248.53125 248.679688 248.53125 248.679688 Z M 248.53125 248.679688 " fill-opacity="1" fill-rule="nonzero"/><path fill="#917b62" d="M 224.636719 167.105469 C 224.636719 167.105469 226.753906 172.519531 228.300781 176.0625 C 224.964844 177.6875 220.691406 177.160156 217.882812 174.757812 C 216.90625 173.902344 216.089844 172.886719 215.316406 171.828125 C 214.789062 171.09375 214.21875 170.402344 213.8125 169.589844 C 213.363281 168.734375 213.117188 167.796875 212.914062 166.863281 C 212.710938 165.964844 212.589844 165.070312 212.507812 164.175781 C 213.527344 164.132812 214.746094 164.132812 215.886719 164.175781 C 216.089844 163.6875 216.253906 162.425781 216.171875 161.164062 C 216.089844 159.902344 216.539062 159.535156 216.539062 159.535156 C 216.78125 160.144531 218.734375 164.054688 219.101562 164.339844 C 219.429688 164.378906 219.632812 164.378906 219.632812 164.378906 C 219.632812 164.378906 222.238281 161.894531 223.089844 161.976562 C 223.945312 162.058594 224.71875 165.355469 224.636719 167.105469 Z M 257.285156 235.410156 C 257.609375 235.734375 257.976562 236.019531 258.382812 236.222656 C 259.320312 230.648438 258.992188 219.941406 257.242188 211.109375 C 256.59375 214.039062 254.3125 216.605469 253.457031 219.574219 C 252.195312 223.808594 253.863281 228.285156 255.535156 232.355469 C 256.023438 233.457031 256.46875 234.554688 257.285156 235.410156 Z M 286.550781 241.3125 C 283.5 239.601562 272.628906 240.457031 266.605469 240.457031 C 260.539062 240.457031 257.773438 238.828125 257.773438 238.828125 C 256.714844 241.679688 252.113281 247.867188 246.414062 248.84375 C 247.109375 248.800781 247.800781 248.761719 248.574219 248.71875 C 257.324219 248.355469 267.5 246.398438 278.125 246.320312 C 288.75 246.195312 289.605469 243.023438 286.550781 241.3125 Z M 286.550781 241.3125 " fill-opacity="1" fill-rule="nonzero"/><g clip-path="url(#de6f4a7a50)"><path fill="#ff9f73" d="M 185.847656 168.570312 C 184.789062 169.671875 182.832031 169.914062 181.570312 169.101562 C 177.746094 179.683594 173.269531 182.65625 171.4375 182.125 C 169.523438 181.597656 165.492188 180.5 165.492188 180.5 L 161.828125 184.160156 C 161.828125 184.160156 161.421875 194.746094 159.917969 199.261719 C 159.917969 199.261719 155.03125 191.734375 149.089844 187.785156 C 143.144531 183.835938 132.96875 175.980469 134.433594 165.273438 C 134.433594 165.273438 140.09375 162.953125 143.757812 159.167969 C 143.632812 158.679688 144.164062 161.976562 144.164062 162.667969 C 144.164062 162.667969 146.035156 163.035156 147.136719 162.300781 C 148.234375 161.609375 149.984375 159.574219 150.066406 158.84375 C 150.148438 158.070312 149.535156 156.929688 150.269531 155.75 C 152.304688 152.207031 154.625 150.988281 157.597656 153.589844 C 157.597656 153.589844 160.160156 156.320312 159.632812 157.539062 C 159.632812 157.539062 161.789062 157.945312 163.296875 156.035156 C 164.800781 154.121094 168.464844 155.097656 169.6875 151.273438 C 170.90625 147.484375 171.3125 145.980469 171.3125 145.980469 C 171.3125 145.980469 179.863281 141.910156 183.769531 142.03125 C 184.625 144.433594 185.316406 150.253906 184.421875 157.335938 C 184.300781 158.679688 183.851562 161.488281 185.847656 165.152344 C 186.621094 166.699219 186.457031 167.921875 185.847656 168.570312 Z M 146.808594 234.800781 C 142.820312 236.46875 137.855469 238.175781 137.773438 238.175781 C 137.652344 238.21875 144.976562 245.097656 148.316406 247.457031 C 151.652344 249.820312 158.574219 252.097656 161.503906 251.976562 C 164.433594 251.894531 167.570312 250.550781 171.394531 248.109375 C 175.222656 245.625 193.417969 225.4375 197.488281 220.714844 C 201.558594 215.992188 207.625 208.054688 209.046875 206.386719 C 210.472656 204.71875 212.101562 200.484375 212.265625 199.507812 C 212.425781 198.53125 213.402344 195.558594 214.136719 194.664062 C 214.867188 193.769531 215.195312 192.382812 214.585938 191.773438 C 214.015625 191.121094 213.242188 191.449219 213.242188 191.449219 C 213.242188 191.449219 214.421875 187.214844 213.605469 186.320312 C 212.792969 185.421875 211.695312 185.421875 211.695312 185.421875 C 213.117188 183.386719 213.769531 180.988281 212.832031 180.253906 C 212.265625 179.765625 211.042969 180.214844 211.042969 180.214844 C 211.449219 178.953125 210.59375 177.769531 209.332031 178.179688 C 208.03125 178.585938 201.679688 182.207031 201.027344 182.859375 C 200.378906 183.511719 195.167969 190.472656 195.003906 191.324219 C 194.882812 192.179688 195.085938 194.09375 195.289062 195.679688 C 195.492188 197.269531 195.332031 201.542969 194.882812 202.398438 C 193.863281 204.351562 182.265625 216.890625 174.449219 221.367188 C 166.632812 225.84375 159.917969 229.425781 159.917969 229.425781 C 159.550781 228.691406 157.433594 225.925781 157.433594 225.925781 C 156.007812 228.9375 150.796875 233.128906 146.808594 234.800781 Z M 229.402344 159.535156 C 228.382812 159.371094 225.371094 160.023438 223.578125 160.960938 C 221.789062 161.894531 218.574219 165.273438 217.757812 166.617188 C 216.945312 167.960938 216.457031 170.972656 217.148438 171.503906 C 217.839844 172.03125 219.792969 171.503906 219.792969 171.503906 C 219.792969 171.503906 221.261719 172.601562 223.011719 172.03125 C 223.011719 172.03125 222.523438 174.390625 225.859375 173.984375 C 225.859375 173.984375 226.105469 175.695312 228.140625 175.777344 C 228.140625 175.777344 229.765625 180.089844 231.640625 181.554688 C 231.640625 181.554688 238.03125 175.859375 238.191406 173.210938 C 238.398438 170.566406 237.867188 168.855469 237.175781 168.488281 C 236.484375 168.125 236.035156 166.128906 235.832031 165.640625 C 235.628906 165.152344 235.75 164.175781 234.40625 163.523438 C 234.40625 163.523438 233.675781 162.300781 232.007812 161.488281 C 232.046875 161.488281 231.191406 159.820312 229.402344 159.535156 Z M 147.339844 141.503906 L 147.296875 140.890625 C 146.28125 140.972656 144.042969 140.402344 144.042969 140.402344 C 144.855469 141.09375 145.914062 141.503906 146.972656 141.503906 C 147.09375 141.542969 147.214844 141.542969 147.339844 141.503906 Z M 150.1875 139.710938 C 151.003906 139.710938 152.304688 138.613281 152.304688 138.613281 C 151.652344 138.9375 150.921875 139.101562 150.148438 139.101562 C 149.617188 139.101562 148.234375 138.695312 148.234375 138.695312 C 148.519531 139.34375 149.210938 139.710938 150.1875 139.710938 Z M 158.167969 144.515625 C 157.433594 144.675781 156.699219 144.675781 155.96875 144.515625 C 155.722656 144.472656 155.4375 144.390625 155.234375 144.230469 C 155.074219 144.105469 154.378906 143.660156 154.378906 143.660156 C 154.339844 144.027344 154.542969 144.433594 154.910156 144.71875 C 155.234375 144.960938 155.601562 145.042969 155.886719 145.085938 C 156.292969 145.164062 156.660156 145.207031 157.066406 145.207031 C 157.433594 145.246094 158.167969 144.515625 158.167969 144.515625 Z M 166.632812 146.996094 C 167.367188 146.957031 168.058594 146.589844 168.503906 146.019531 L 168.015625 145.652344 C 167.691406 146.101562 167.164062 146.347656 166.59375 146.386719 C 166.0625 146.425781 165.492188 146.183594 165.085938 145.816406 C 165.085938 145.816406 165.820312 146.996094 166.46875 146.996094 C 166.511719 146.996094 166.59375 146.996094 166.632812 146.996094 Z M 151.734375 148.828125 C 152.550781 148.667969 153.242188 148.179688 153.605469 147.527344 C 153.605469 147.527344 152.265625 148.097656 151.613281 148.257812 C 150.960938 148.382812 149.25 147.648438 149.210938 147.8125 C 149.171875 148.054688 149.292969 148.300781 149.457031 148.421875 C 149.902344 148.746094 150.472656 148.910156 151.042969 148.910156 C 151.285156 148.910156 151.492188 148.871094 151.734375 148.828125 Z M 151.734375 148.828125 " fill-opacity="1" fill-rule="nonzero"/></g><path fill="#34352c" d="M 151.492188 163.28125 L 149.902344 159.003906 L 152.019531 163.035156 C 152.183594 163.441406 152.304688 163.929688 152.628906 164.214844 C 153.769531 165.234375 156.90625 165.113281 156.90625 165.113281 C 156.621094 165.640625 156.007812 165.722656 155.5625 165.722656 C 155.359375 165.722656 155.195312 165.722656 155.113281 165.679688 C 154.015625 165.558594 152.914062 165.394531 152.222656 164.582031 C 151.855469 164.214844 151.652344 163.726562 151.492188 163.28125 Z M 152.792969 159.902344 C 152.957031 159.984375 153.117188 160.0625 153.28125 160.144531 C 153.445312 160.226562 153.605469 160.308594 153.769531 160.390625 C 154.097656 160.59375 154.339844 160.835938 154.625 161.121094 C 154.828125 161.324219 155.03125 161.609375 155.277344 161.734375 C 156.945312 162.628906 157.148438 161.488281 157.148438 161.488281 C 156.78125 161.8125 156.089844 161.609375 155.640625 161.285156 C 155.4375 161.121094 155.234375 160.917969 155.03125 160.714844 C 154.746094 160.429688 154.460938 160.105469 154.054688 159.902344 C 153.890625 159.777344 153.6875 159.699219 153.527344 159.617188 C 153.363281 159.535156 153.242188 159.492188 153.078125 159.414062 C 152.914062 159.332031 151.980469 158.925781 151.980469 158.925781 C 152.101562 159.414062 152.46875 159.738281 152.792969 159.902344 Z M 155.925781 155.058594 L 156.210938 154.527344 C 155.4375 154.121094 154.664062 153.957031 153.933594 154.121094 C 153.078125 154.324219 152.386719 154.976562 152.265625 155.789062 C 152.265625 155.789062 153.445312 154.855469 154.054688 154.730469 C 154.664062 154.570312 155.316406 154.691406 155.925781 155.058594 Z M 174.449219 157.945312 C 176.15625 158.230469 177.785156 157.011719 179.496094 157.132812 C 180.023438 157.171875 180.511719 157.378906 181.042969 157.378906 C 181.570312 157.417969 182.140625 156.683594 182.425781 156.238281 C 181.285156 156.238281 180.472656 156.035156 179.332031 155.953125 C 177.664062 155.871094 175.792969 157.050781 174.449219 157.945312 Z M 179.292969 161.773438 C 179.578125 161.652344 179.78125 161.367188 179.902344 161.082031 C 180.230469 160.472656 180.390625 158.515625 179.332031 158.515625 C 178.316406 158.515625 177.949219 160.308594 178.070312 161.039062 C 178.113281 161.285156 178.195312 161.53125 178.398438 161.691406 C 178.640625 161.894531 179.007812 161.894531 179.292969 161.773438 Z M 180.269531 168.082031 C 179.984375 167.839844 179.292969 166.863281 179.292969 166.863281 C 179.046875 167.511719 179.414062 168.164062 179.863281 168.53125 C 180.269531 168.855469 181.082031 169.222656 181.410156 169.386719 C 181.449219 169.386719 180.554688 168.328125 180.269531 168.082031 Z M 178.84375 175.328125 L 179.089844 174.839844 C 177.949219 174.390625 175.589844 172.84375 175.589844 172.84375 C 176.363281 173.945312 177.582031 174.839844 178.84375 175.328125 Z M 157.472656 176.222656 C 159.917969 178.097656 162.601562 179.398438 165.453125 180.539062 C 165.453125 180.539062 160.242188 177.566406 157.839844 175.777344 C 156.984375 175.125 155.316406 172.84375 155.316406 172.84375 C 155.195312 174.3125 156.496094 175.492188 157.472656 176.222656 Z M 161.910156 184.082031 C 160.8125 185.058594 159.792969 185.953125 159.792969 187.824219 Z M 212.792969 168.570312 C 212.628906 168.449219 212.507812 168.246094 212.34375 168.082031 C 212.265625 167.960938 212.183594 167.839844 212.101562 167.757812 C 211.734375 167.308594 211.246094 167.105469 210.796875 167.226562 C 210.796875 167.226562 211.449219 167.960938 211.652344 168.164062 C 211.734375 168.246094 211.816406 168.367188 211.898438 168.449219 C 212.058594 168.652344 212.222656 168.898438 212.425781 169.058594 C 212.671875 169.261719 212.957031 169.386719 213.320312 169.425781 C 213.484375 169.46875 213.605469 169.46875 213.769531 169.46875 C 214.054688 169.46875 214.300781 169.425781 214.503906 169.304688 C 214.503906 169.304688 213.648438 168.898438 213.445312 168.855469 C 213.160156 168.773438 212.957031 168.695312 212.792969 168.570312 Z M 209.699219 171.503906 C 209.902344 171.542969 210.066406 171.421875 210.230469 171.257812 C 210.554688 170.933594 211.410156 169.589844 210.511719 169.386719 C 209.863281 169.222656 209.332031 170.605469 209.457031 171.09375 C 209.457031 171.257812 209.535156 171.460938 209.699219 171.503906 Z M 203.308594 172.640625 C 202.65625 172.03125 201.519531 171.503906 201.519531 171.503906 C 200.988281 172.640625 201.070312 174.390625 201.070312 174.390625 C 202.414062 174.636719 203.308594 172.640625 203.308594 172.640625 Z M 227.527344 244.730469 L 228.097656 244.933594 C 229.480469 241.433594 233.757812 227.226562 234.203125 222.667969 C 234.203125 222.667969 228.914062 241.269531 227.527344 244.730469 Z M 219.222656 244.285156 C 219.875 241.191406 220.691406 228.082031 220.160156 225.109375 C 219.875 223.566406 218.898438 222.058594 217.960938 220.59375 C 217.269531 219.492188 216.539062 218.394531 216.132812 217.296875 C 216.414062 218.515625 216.863281 220.023438 217.472656 220.917969 C 218.410156 222.382812 219.304688 223.769531 219.589844 225.234375 C 220.203125 228.613281 219.0625 243.144531 218.574219 244.488281 C 218.042969 244.691406 217.554688 245.015625 217.148438 245.421875 C 216.496094 246.117188 216.171875 246.96875 216.292969 247.703125 L 216.863281 247.582031 C 216.742188 247.050781 217.027344 246.398438 217.554688 245.832031 C 217.960938 245.421875 221.015625 244.203125 221.015625 244.203125 C 220.40625 244.078125 219.792969 244.121094 219.222656 244.285156 Z M 216.089844 217.296875 C 215.804688 216.15625 215.683594 215.261719 215.683594 215.261719 C 215.683594 215.910156 215.847656 216.605469 216.089844 217.296875 Z M 236.851562 242.65625 C 236.851562 242.65625 230.867188 242.289062 230.5 246.117188 L 231.109375 246.195312 C 231.191406 245.503906 232.984375 242.65625 236.851562 242.65625 Z M 231.761719 246.441406 C 231.476562 247.378906 231.515625 248.3125 231.84375 248.925781 C 231.84375 248.925781 232.085938 247.378906 232.332031 246.605469 C 232.574219 245.707031 233.429688 244.160156 233.429688 244.160156 C 232.65625 244.570312 232.046875 245.421875 231.761719 246.441406 Z M 218.492188 248.109375 C 218.410156 248.800781 218.695312 249.535156 219.101562 249.941406 C 219.101562 249.941406 219.019531 248.679688 219.0625 248.152344 C 219.0625 247.945312 219.144531 247.582031 219.46875 247.378906 C 219.507812 247.417969 218.574219 247.582031 218.492188 248.109375 Z M 222.359375 246.765625 C 222.359375 246.765625 221.339844 248.273438 221.542969 248.882812 C 221.828125 249.738281 222.398438 250.347656 222.804688 250.511719 C 222.804688 250.511719 222.316406 249.332031 222.113281 248.71875 C 221.953125 248.230469 221.871094 247.539062 222.359375 246.765625 Z M 211.613281 244.8125 L 211.042969 244.609375 C 210.554688 246.035156 211.492188 247.664062 211.855469 248.273438 C 211.855469 248.273438 211.246094 245.953125 211.613281 244.8125 Z M 232.496094 242.816406 L 233.0625 242.574219 C 231.800781 239.480469 234.449219 232.804688 234.449219 232.804688 C 231.964844 235.410156 231.152344 239.519531 232.496094 242.816406 Z M 232.699219 233.617188 L 233.144531 234.027344 C 234.449219 232.640625 235.34375 230.808594 235.628906 228.898438 C 235.628906 228.9375 233.917969 232.316406 232.699219 233.617188 Z M 234.121094 230.605469 C 234.53125 229.058594 234.816406 227.511719 234.9375 225.925781 C 234.9375 225.925781 233.917969 228.9375 233.554688 230.445312 Z M 209.332031 183.429688 L 209.820312 183.0625 C 209.496094 182.65625 209.332031 182.125 209.375 181.597656 L 209.046875 181.597656 C 210.105469 180.660156 211.003906 179.929688 211.003906 179.929688 C 210.796875 179.96875 210.390625 180.171875 209.820312 180.578125 C 210.1875 180.292969 210.511719 180.007812 210.796875 179.644531 C 210.796875 179.644531 209.78125 179.847656 209.496094 180.089844 C 209.496094 180.089844 209.496094 180.050781 209.496094 180.050781 C 209.292969 179.683594 209.007812 179.398438 208.683594 179.195312 C 209.171875 179.03125 209.578125 178.828125 209.738281 178.585938 L 209.25 178.257812 C 209.007812 178.585938 207.257812 179.15625 205.179688 178.382812 C 203.023438 177.566406 201.394531 175.652344 201.394531 175.125 C 201.394531 175.125 201.394531 177.527344 204.9375 178.910156 C 205.75 179.234375 206.605469 179.359375 207.296875 179.359375 C 207.703125 179.359375 208.070312 179.316406 208.398438 179.234375 C 208.558594 179.5625 208.804688 180.089844 208.925781 180.335938 C 208.964844 180.457031 209.089844 180.621094 209.292969 180.703125 C 209.332031 180.703125 209.375 180.703125 209.414062 180.703125 C 209.535156 180.703125 209.660156 180.660156 209.738281 180.621094 C 208.722656 181.3125 207.175781 182.492188 205.101562 184.121094 C 204.40625 184.648438 203.878906 185.097656 203.632812 185.261719 C 203.1875 185.585938 202.699219 186.277344 202.25 186.890625 C 201.84375 187.457031 201.070312 188.882812 201.070312 188.882812 C 201.640625 188.800781 202.128906 188.070312 202.738281 187.214844 C 203.144531 186.605469 203.59375 185.992188 203.960938 185.707031 C 204.203125 185.546875 204.773438 185.097656 205.464844 184.570312 C 206.28125 183.917969 207.625 182.777344 208.804688 181.800781 C 208.804688 182.371094 208.964844 182.941406 209.332031 183.429688 Z M 218.53125 164.011719 C 217.960938 163.972656 215.886719 164.460938 215.886719 164.460938 C 215.925781 164.460938 218.492188 164.621094 219.0625 164.664062 Z M 123.445312 189.128906 C 123.566406 188.925781 123.6875 188.71875 123.8125 188.515625 C 125.804688 185.261719 131.382812 179.804688 131.382812 179.804688 C 128.125 181.964844 125.316406 184.855469 123.28125 188.230469 C 123.160156 188.4375 123.039062 188.640625 122.914062 188.84375 C 122.140625 190.144531 120.351562 192.75 120.351562 192.75 C 121.816406 191.976562 122.628906 190.550781 123.445312 189.128906 Z M 128.777344 211.027344 C 128.246094 210.863281 127.71875 210.660156 127.1875 210.457031 C 125.804688 209.96875 124.339844 209.441406 122.832031 209.234375 C 122.832031 209.234375 125.601562 210.539062 126.984375 211.027344 C 127.515625 211.230469 128.042969 211.394531 128.574219 211.597656 C 129.714844 211.964844 131.179688 212.371094 132.765625 212.371094 C 133.417969 212.371094 134.109375 212.289062 134.800781 212.125 L 134.636719 211.554688 C 132.5625 212.125 130.324219 211.515625 128.777344 211.027344 Z M 124.625 216.683594 C 127.027344 217.664062 129.589844 218.109375 132.15625 218.109375 C 135.371094 218.109375 138.628906 217.378906 141.519531 215.871094 L 141.234375 215.34375 C 136.183594 217.90625 124.625 216.683594 124.625 216.683594 Z M 152.671875 217.457031 L 152.996094 216.96875 C 147.949219 213.835938 144.082031 209.195312 140.335938 204.71875 C 140.335938 204.71875 143.839844 209.847656 146.035156 212.042969 C 147.988281 214.082031 150.1875 215.953125 152.671875 217.457031 Z M 159.0625 205.246094 C 159.101562 204.1875 159.101562 203.089844 159.0625 202.03125 C 159.0625 202.03125 158.492188 204.1875 158.453125 205.246094 C 158.410156 206.792969 158.371094 208.421875 158.574219 209.96875 C 158.613281 210.253906 158.65625 210.539062 158.695312 210.824219 C 159.183594 213.589844 160.363281 215.75 162.15625 217.050781 C 162.15625 217.050781 159.386719 211.636719 159.183594 209.929688 C 158.980469 208.339844 159.019531 206.753906 159.0625 205.246094 Z M 164.800781 208.015625 C 164.800781 208.015625 168.179688 206.550781 169.972656 199.832031 C 170.824219 196.65625 171.519531 193.441406 172.085938 190.265625 C 172.085938 190.265625 170.417969 196.578125 169.402344 199.628906 C 168.34375 203.089844 166.753906 205.898438 164.800781 208.015625 Z M 186.457031 179.398438 C 186.824219 178.421875 187.1875 177.445312 187.066406 176.386719 C 187.066406 176.386719 186.253906 178.257812 185.925781 179.195312 C 185.847656 179.441406 185.722656 179.726562 185.640625 179.96875 C 185.152344 181.394531 184.992188 182.859375 184.828125 184.285156 L 183.527344 195.4375 L 184.136719 195.519531 L 185.4375 184.363281 C 185.601562 182.941406 185.765625 181.515625 186.210938 180.171875 C 186.253906 179.886719 186.375 179.644531 186.457031 179.398438 Z M 191.261719 176.753906 L 190.691406 176.507812 C 189.875 178.542969 186.945312 182.003906 186.945312 182.003906 C 188.859375 180.742188 190.40625 178.871094 191.261719 176.753906 Z M 190.363281 182.25 C 190.078125 182.613281 189.792969 183.023438 189.550781 183.386719 C 189.222656 183.875 188.898438 184.363281 188.492188 184.773438 C 187.71875 185.667969 186.210938 187.011719 186.210938 187.011719 C 187.148438 186.765625 188.085938 186.15625 188.941406 185.136719 C 189.347656 184.691406 189.671875 184.160156 189.996094 183.714844 C 190.242188 183.347656 190.527344 182.941406 190.8125 182.613281 C 191.261719 182.042969 192.804688 180.945312 192.804688 180.945312 C 192.035156 180.78125 191.179688 181.230469 190.363281 182.25 Z M 186.171875 192.996094 C 187.394531 193.566406 188.777344 193.847656 190.121094 193.847656 C 191.179688 193.847656 192.277344 193.6875 193.296875 193.320312 L 193.089844 192.75 C 190.933594 193.523438 186.171875 192.996094 186.171875 192.996094 Z M 105.574219 215.300781 C 104.148438 214.648438 102.601562 213.796875 101.910156 212.371094 C 101.503906 211.515625 101.339844 210.496094 101.464844 209.074219 C 101.546875 208.300781 101.667969 206.265625 101.667969 206.265625 C 101.097656 207.121094 100.933594 208.21875 100.851562 209.03125 C 100.773438 210.007812 100.730469 211.433594 101.339844 212.65625 C 102.15625 214.242188 105.574219 215.300781 105.574219 215.300781 Z M 106.308594 222.914062 C 105.535156 222.996094 104.800781 223.15625 104.070312 223.359375 C 103.90625 223.402344 103.742188 223.441406 103.582031 223.484375 C 101.464844 224.011719 99.304688 224.296875 97.109375 224.296875 C 96.539062 224.296875 95.074219 224.664062 95.074219 224.664062 C 95.644531 224.828125 96.253906 224.867188 96.824219 224.867188 C 96.945312 224.867188 97.027344 224.867188 97.109375 224.867188 C 99.304688 224.828125 101.546875 224.542969 103.703125 224.011719 C 103.863281 223.972656 104.027344 223.929688 104.191406 223.890625 C 104.882812 223.726562 105.617188 223.523438 106.308594 223.484375 C 107.570312 223.359375 110.132812 223.320312 110.132812 223.320312 C 108.953125 223.074219 107.609375 222.792969 106.308594 222.914062 Z M 102.96875 232.804688 C 101.992188 232.4375 101.136719 231.867188 100.40625 231.339844 C 99.101562 230.402344 96.292969 228.613281 96.292969 228.613281 C 97.433594 229.792969 98.734375 230.851562 100.039062 231.828125 C 100.8125 232.355469 101.707031 232.96875 102.765625 233.332031 C 103.703125 233.660156 104.679688 233.820312 105.65625 233.820312 C 107.367188 233.820312 110.09375 232.4375 110.09375 232.4375 C 108.179688 233.050781 105.410156 233.699219 102.96875 232.804688 Z M 158.898438 234.515625 C 159.226562 232.84375 159.671875 231.175781 160.203125 229.546875 L 159.632812 229.34375 C 159.101562 231.011719 158.898438 234.515625 158.898438 234.515625 Z M 195.617188 202.925781 L 195.085938 203.210938 C 195.777344 204.472656 197.164062 205.207031 198.21875 205.777344 C 198.21875 205.816406 196.226562 204.066406 195.617188 202.925781 Z M 211.410156 185.261719 C 210.921875 186.074219 209.902344 186.96875 209.089844 187.703125 C 208.558594 188.152344 208.152344 188.515625 207.949219 188.800781 C 207.828125 188.964844 207.664062 189.210938 207.5 189.492188 C 207.09375 190.1875 206.484375 191.164062 205.914062 191.367188 C 205.914062 191.367188 207.5 190.632812 207.988281 189.777344 C 208.152344 189.535156 208.273438 189.289062 208.398438 189.128906 C 208.558594 188.925781 208.964844 188.558594 209.457031 188.109375 C 210.351562 187.417969 211.410156 185.261719 211.410156 185.261719 Z M 211.855469 191.449219 C 212.546875 190.878906 213.199219 190.023438 213.242188 190.023438 C 213.242188 190.023438 212.140625 190.472656 211.492188 191 C 211.125 191.285156 210.796875 191.9375 210.472656 192.628906 C 210.148438 193.238281 209.738281 194.054688 209.496094 194.132812 C 209.496094 194.132812 210.554688 193.769531 211.003906 192.871094 C 211.285156 192.300781 211.613281 191.652344 211.855469 191.449219 Z M 210.796875 193.566406 C 210.796875 193.566406 212.914062 191.976562 213.402344 191.734375 L 213.117188 191.203125 C 212.46875 191.527344 211.003906 193.199219 210.796875 193.566406 Z M 210.757812 189.941406 L 211.328125 189.777344 C 211.082031 189.046875 210.433594 188.476562 209.699219 188.3125 C 209.699219 188.3125 210.59375 189.453125 210.757812 189.941406 Z M 205.546875 185.871094 L 205.464844 186.480469 C 206.078125 186.5625 207.460938 187.171875 207.460938 187.171875 C 207.054688 186.480469 206.320312 185.992188 205.546875 185.871094 Z M 203.429688 184.160156 C 203.1875 183.796875 202.902344 183.46875 202.574219 183.183594 C 202.371094 183.023438 202.085938 182.816406 201.761719 182.859375 L 201.84375 183.46875 C 201.925781 183.46875 202.046875 183.511719 202.210938 183.671875 C 202.496094 183.917969 203.429688 184.160156 203.429688 184.160156 Z M 211.449219 182.65625 L 211.613281 183.0625 L 211.9375 182.777344 C 212.425781 182.328125 212.753906 181.761719 212.875 181.109375 C 212.875 181.109375 212.058594 181.71875 211.816406 182.042969 C 211.53125 181.636719 210.472656 181.679688 210.472656 181.679688 C 210.921875 181.839844 211.285156 182.207031 211.449219 182.65625 Z M 198.914062 197.960938 C 198.953125 197.269531 199.199219 195.640625 199.199219 195.640625 C 198.667969 196.292969 198.34375 197.105469 198.300781 197.921875 Z M 202.65625 199.140625 C 202.574219 199.304688 202.371094 199.628906 202.453125 199.957031 L 203.023438 199.792969 C 202.984375 199.710938 203.105469 199.507812 203.144531 199.425781 C 203.554688 198.734375 204 198.082031 204.488281 197.429688 C 204.488281 197.472656 203.0625 198.449219 202.65625 199.140625 Z M 219.550781 171.542969 L 220.160156 171.460938 C 220.039062 170.605469 221.953125 167.1875 222.804688 166.332031 C 223.089844 166.046875 223.578125 165.601562 224.109375 165.113281 C 225.207031 164.09375 226.429688 162.953125 226.753906 162.464844 C 226.753906 162.464844 224.679688 163.769531 223.703125 164.703125 C 223.132812 165.234375 222.683594 165.640625 222.398438 165.964844 C 221.585938 166.699219 219.386719 170.402344 219.550781 171.542969 Z M 222.765625 171.949219 C 222.765625 171.949219 227.445312 167.839844 228.789062 167.066406 C 230.050781 166.292969 231.925781 164.90625 232.371094 164.378906 C 232.371094 164.378906 229.808594 165.761719 228.464844 166.578125 C 227.242188 167.308594 223.050781 170.851562 222.765625 171.949219 Z M 235.101562 168 Z M 235.019531 168.082031 C 235.019531 168.042969 235.058594 168.042969 235.058594 168 C 235.058594 168.042969 235.058594 168.042969 235.019531 168.082031 Z M 232.574219 170.605469 L 232.941406 170.363281 C 234.121094 169.628906 234.855469 168.410156 235.058594 168.082031 C 234.734375 168.570312 233.429688 169.386719 232.65625 169.875 L 232.289062 170.117188 C 232.128906 170.199219 231.882812 170.363281 231.597656 170.566406 C 230.175781 171.460938 225.980469 174.3125 225.980469 174.3125 C 226.957031 174.1875 229.402344 172.683594 231.925781 171.054688 C 232.167969 170.851562 232.414062 170.730469 232.574219 170.605469 Z M 228.140625 176.0625 C 228.179688 176.0625 228.261719 176.0625 228.34375 176.0625 C 229.238281 176.0625 231.273438 175.328125 233.835938 174.351562 C 234.855469 173.945312 235.832031 173.578125 236.117188 173.539062 C 236.117188 173.539062 234.9375 173.292969 233.632812 173.78125 C 231.761719 174.515625 228.140625 176.0625 228.140625 176.0625 Z M 233.511719 174.757812 C 233.511719 174.757812 234.121094 175.9375 234.734375 176.101562 L 234.894531 175.53125 C 234.367188 175.410156 233.917969 175.125 233.511719 174.757812 Z M 225.167969 167.878906 C 224.679688 167.351562 223.132812 167.1875 223.132812 167.1875 C 223.742188 167.429688 224.273438 167.839844 224.71875 168.285156 Z M 218.207031 166.617188 L 218.246094 167.226562 C 218.980469 167.1875 220.691406 167.472656 220.691406 167.472656 C 220.039062 166.863281 219.101562 166.535156 218.207031 166.617188 Z M 227.894531 168.613281 L 227.933594 169.222656 C 228.425781 169.183594 228.953125 169.507812 229.15625 169.957031 L 229.6875 169.710938 C 229.402344 169.019531 228.667969 168.53125 227.894531 168.613281 Z M 230.460938 172.480469 L 230.011719 172.886719 C 230.253906 173.171875 230.460938 173.496094 230.539062 173.824219 C 230.539062 173.824219 230.785156 172.804688 230.460938 172.480469 Z M 219.714844 169.957031 L 219.714844 169.875 L 219.632812 169.792969 C 219.101562 169.261719 218.289062 168.976562 217.554688 169.101562 C 217.554688 169.101562 218.734375 169.792969 219.144531 170.160156 C 219.144531 170.484375 219.144531 171.378906 219.144531 171.378906 C 219.589844 170.933594 219.792969 170.445312 219.714844 169.957031 Z M 147.296875 216.398438 C 142.984375 214.691406 136.671875 210.988281 131.871094 207.972656 L 131.992188 207.894531 L 128.941406 203.332031 C 127.066406 200.566406 125.152344 197.714844 122.710938 195.316406 C 119.945312 192.628906 116.890625 190.960938 113.796875 190.429688 C 113.796875 190.429688 119.617188 193.117188 122.265625 195.722656 C 124.664062 198.082031 126.578125 200.890625 128.410156 203.660156 L 130.894531 207.324219 C 128.453125 205.777344 126.539062 204.433594 125.601562 203.78125 C 122.34375 201.378906 114.449219 195.761719 111.679688 195.964844 C 111.679688 195.964844 122.710938 202.398438 125.234375 204.269531 C 127.960938 206.304688 140.132812 214.203125 147.054688 216.96875 C 147.5 217.132812 147.910156 217.335938 148.316406 217.539062 C 147.339844 217.703125 146.648438 217.867188 145.667969 218.230469 C 145.058594 218.4375 144.449219 218.679688 143.796875 218.84375 C 140.050781 219.941406 136.0625 219.738281 132.195312 219.535156 C 132.195312 219.535156 135.207031 220.265625 136.753906 220.265625 C 139.15625 220.265625 141.597656 220.0625 143.960938 219.414062 C 144.613281 219.207031 145.222656 219.003906 145.832031 218.800781 C 146.851562 218.4375 147.910156 218.070312 148.96875 217.90625 C 153.890625 220.59375 156.621094 225.152344 157.066406 225.925781 C 156.824219 226.496094 155.519531 229.222656 150.230469 232.558594 C 144.121094 236.386719 136.429688 238.667969 131.953125 238.949219 C 128.003906 239.195312 123.242188 240.78125 122.058594 241.191406 C 121.003906 238.667969 115.222656 225.761719 112.085938 221.164062 C 109.402344 217.296875 105.820312 208.992188 104.070312 205.042969 C 103.742188 204.3125 103.5 203.742188 103.296875 203.332031 C 103.296875 203.332031 103.171875 204.597656 103.5 205.289062 C 105.25 209.277344 108.871094 217.582031 111.597656 221.527344 C 114.855469 226.292969 120.921875 240.007812 121.613281 241.679688 L 121.734375 241.921875 L 122.019531 241.839844 C 122.058594 241.839844 127.597656 239.847656 131.992188 239.5625 C 136.511719 239.277344 144.367188 236.957031 150.511719 233.089844 C 156.660156 229.222656 157.597656 226.128906 157.636719 226.007812 L 157.679688 225.882812 L 157.636719 225.761719 C 157.679688 225.679688 154.097656 219.085938 147.296875 216.398438 Z M 147.296875 216.398438 " fill-opacity="1" fill-rule="nonzero"/></svg>