<svg xmlns="http://www.w3.org/2000/svg" xmlns:xlink="http://www.w3.org/1999/xlink" width="500" zoomAndPan="magnify" viewBox="0 0 375 374.999991" height="500" preserveAspectRatio="xMidYMid meet" version="1.0"><defs><clipPath id="9cc7e56886"><path d="M 117 121.050781 L 156 121.050781 L 156 180 L 117 180 Z M 117 121.050781 " clip-rule="nonzero"/></clipPath><clipPath id="d6eb382c38"><path d="M 88 191 L 287 191 L 287 253.800781 L 88 253.800781 Z M 88 191 " clip-rule="nonzero"/></clipPath></defs><path fill="#f9ebe2" d="M 151.066406 130.246094 C 151.265625 130.207031 154.671875 130.128906 156.339844 130.007812 C 158.003906 129.890625 161.730469 129.769531 163.039062 129.691406 C 164.347656 129.613281 165.21875 129.492188 168.035156 130.167969 C 170.847656 130.839844 176.082031 132.1875 177.667969 133.339844 C 179.214844 134.488281 185.992188 140.355469 188.054688 142.019531 C 190.117188 143.6875 192.136719 147.214844 192.335938 147.652344 C 192.535156 148.085938 193.960938 148.839844 195.746094 150.625 C 197.53125 152.410156 199.632812 153.796875 200.1875 154.507812 C 200.742188 155.261719 202.207031 157.125 203.914062 158.632812 C 205.578125 160.097656 210.730469 166.761719 211.761719 168.109375 C 212.792969 169.496094 219.097656 178.375 220.128906 179.804688 C 221.160156 181.230469 221.992188 186.265625 221.714844 187.496094 C 221.4375 188.683594 218.542969 194.789062 217.949219 196.335938 C 217.351562 197.882812 216.757812 198.792969 216.757812 198.792969 C 216.757812 198.792969 216.679688 200.894531 216.203125 201.609375 C 215.726562 202.359375 215.132812 209.179688 214.894531 209.695312 C 214.65625 210.210938 213.46875 211.71875 206.765625 210.648438 C 200.066406 209.578125 195.863281 202.359375 195.863281 202.359375 C 195.863281 202.359375 196.617188 200.21875 196.855469 199.863281 C 197.09375 199.546875 197.171875 198.238281 197.492188 196.929688 C 197.808594 195.621094 199.195312 193.164062 199.195312 193.441406 C 199.195312 193.996094 199.394531 191.457031 199.789062 190.191406 C 200.1875 188.921875 200.820312 187.214844 200.820312 187.214844 C 199.433594 186.425781 199.15625 184.679688 199.15625 184.679688 C 199.15625 184.679688 198.324219 184.917969 197.808594 184.839844 C 197.292969 184.71875 195.824219 182.617188 195.824219 182.617188 C 195.824219 182.617188 193.722656 181.785156 192.179688 180.160156 C 190.632812 178.535156 184.605469 172.429688 183.019531 170.289062 C 181.394531 168.148438 181.472656 167.316406 181.472656 167.316406 C 180.523438 166.761719 179.609375 165.925781 179.609375 165.925781 C 179.609375 165.925781 179.691406 166.996094 179.609375 168.027344 C 179.53125 169.019531 178.898438 170.011719 178.898438 170.011719 C 178.898438 170.011719 178.976562 171.28125 179.253906 172.824219 C 179.53125 174.371094 178.976562 176.273438 178.976562 177.464844 C 178.976562 178.652344 181.871094 185.273438 182.980469 190.070312 C 184.050781 194.867188 182.703125 203.3125 182.703125 203.3125 C 183.257812 204.503906 183.890625 207.199219 183.890625 207.199219 C 183.890625 207.199219 184.328125 211.082031 180.363281 212.828125 C 176.398438 214.570312 100.796875 213.027344 98.257812 211.996094 C 95.722656 211.003906 96.277344 209.179688 96.277344 208.464844 C 96.277344 207.753906 95.917969 205.730469 96.277344 204.183594 C 96.632812 202.640625 98.734375 191.65625 98.734375 188.40625 C 98.734375 185.15625 101.074219 176.511719 101.351562 173.421875 C 101.628906 170.328125 103.730469 165.253906 103.730469 165.253906 C 103.332031 163.46875 104.640625 157.484375 107.457031 153.320312 C 110.269531 149.15625 116.890625 145.074219 117.804688 143.964844 C 118.398438 143.25 119.191406 142.8125 119.945312 142.257812 C 120.894531 141.585938 121.886719 140.871094 122.957031 140.355469 C 124.941406 139.363281 127.199219 139.007812 129.378906 138.53125 C 132.550781 137.820312 135.644531 136.867188 138.539062 135.402344 C 139.6875 134.804688 140.835938 134.132812 142.027344 133.578125 C 144.007812 132.664062 146.148438 132.148438 147.972656 131 C 148.726562 130.484375 150.113281 130.128906 151.066406 130.246094 Z M 151.066406 130.246094 " fill-opacity="1" fill-rule="nonzero"/><g clip-path="url(#9cc7e56886)"><path fill="#34352c" d="M 152.136719 170.445312 L 150.75 179.328125 C 146.03125 175.402344 137.429688 164.816406 137.429688 164.816406 C 140.320312 163.945312 152.136719 170.445312 152.136719 170.445312 Z M 155.148438 140.199219 C 153.761719 137.222656 152.808594 135.402344 152.214844 132.863281 C 152.296875 131.675781 152.214844 130.367188 151.582031 129.335938 C 151.34375 128.9375 150.988281 128.460938 150.511719 128.460938 C 150.351562 127.234375 149.558594 126.125 148.488281 125.570312 C 148.09375 125.371094 147.578125 125.09375 147.140625 125.210938 C 147.023438 124.378906 146.625 123.585938 145.992188 123.03125 C 145.355469 122.476562 144.40625 122.039062 143.574219 122.277344 C 142.660156 121.683594 141.671875 121.050781 140.601562 121.167969 C 140.042969 121.207031 139.648438 121.445312 139.210938 121.800781 C 138.140625 121.445312 137.03125 121.207031 135.921875 121.328125 C 134.8125 121.445312 133.703125 122.160156 133.105469 123.070312 C 132.234375 122.675781 131.242188 122.59375 130.332031 122.792969 C 129.417969 122.992188 128.546875 123.546875 127.953125 124.261719 C 127.753906 124.5 127.597656 124.777344 127.554688 125.09375 C 127 125.132812 126.527344 125.410156 126.128906 125.804688 C 125.734375 126.203125 125.457031 126.679688 125.21875 127.15625 C 124.980469 127.628906 124.898438 127.988281 125.097656 128.460938 C 124.105469 128.582031 123.117188 128.898438 122.363281 129.492188 C 121.570312 130.089844 121.09375 131.039062 121.09375 132.03125 C 120.699219 132.03125 120.339844 132.230469 120.101562 132.507812 C 119.824219 132.785156 119.667969 133.140625 119.546875 133.496094 C 119.351562 134.09375 119.429688 134.410156 119.46875 135.003906 C 118.792969 135.320312 118.238281 135.875 117.960938 136.550781 C 117.683594 137.222656 117.84375 138.097656 118.082031 138.808594 C 117.445312 139.5625 117.050781 140.515625 117.011719 141.507812 C 116.972656 142.496094 117.527344 143.648438 118.121094 144.398438 C 117.84375 145.707031 118.675781 147.414062 119.90625 147.929688 C 119.429688 148.878906 119.90625 150.070312 120.699219 150.78125 C 121.492188 151.496094 122.519531 151.8125 123.511719 152.171875 C 124.503906 152.527344 125.535156 153.042969 126.128906 153.914062 C 127.554688 156.015625 129.5 157.957031 132.035156 158.195312 C 134.136719 158.394531 136.238281 157.5625 138.0625 156.53125 C 139.925781 155.5 141.628906 154.191406 143.535156 153.28125 C 145.554688 152.328125 147.816406 151.773438 149.519531 150.347656 C 150.628906 149.394531 151.460938 148.167969 152.136719 146.859375 C 153.324219 144.757812 154.515625 142.578125 155.148438 140.199219 Z M 155.148438 140.199219 " fill-opacity="1" fill-rule="nonzero"/></g><g clip-path="url(#d6eb382c38)"><path fill="#efbc80" d="M 136.953125 199.230469 C 138.339844 200.972656 138.65625 203.789062 138.65625 203.789062 C 138.65625 203.789062 138.539062 202.957031 147.339844 202.480469 C 154.4375 202.082031 163.199219 203.429688 172.277344 204.976562 C 181.355469 206.523438 183.296875 205.058594 204.585938 204.265625 C 225.875 203.429688 234.835938 218.0625 239.433594 223.96875 C 244.035156 229.914062 246.453125 236.179688 252.757812 238.953125 C 259.058594 241.730469 275.75 244.386719 281.300781 245.375 C 286.851562 246.328125 286.851562 250.449219 286.851562 250.449219 C 279.832031 251.917969 267.859375 250.808594 255.609375 251.046875 C 243.359375 251.285156 237.332031 249.460938 237.332031 249.460938 C 234.082031 250.53125 213.546875 251.003906 205.539062 251.324219 C 197.53125 251.640625 177.828125 251.324219 177.828125 251.324219 C 177.828125 253.941406 149.835938 252.710938 142.105469 252.710938 C 134.375 252.710938 113.441406 253.105469 111.578125 253.105469 C 109.714844 253.105469 109.519531 251.640625 109.519531 251.640625 C 109.519531 251.640625 97.386719 251.640625 94.652344 251.640625 C 91.914062 251.640625 92.511719 249.222656 94.652344 247.238281 C 96.792969 245.257812 99.25 245.296875 100.519531 244.820312 C 101.785156 244.34375 105.59375 242.679688 108.527344 241.410156 C 111.460938 240.144531 113.203125 237.605469 113.203125 237.605469 C 108.328125 234.472656 108.128906 226.265625 107.257812 226.03125 C 106.386719 225.792969 104.640625 225.832031 100.203125 226.03125 C 95.761719 226.226562 94.136719 224.285156 94.136719 224.285156 C 90.050781 222.5 88.148438 217.902344 88.785156 217.070312 C 90.726562 214.730469 96.59375 210.726562 97.78125 209.855469 C 98.972656 208.980469 100.042969 206.046875 100.398438 204.738281 C 100.714844 203.390625 100.597656 202.28125 103.414062 199.546875 C 106.585938 196.414062 113.246094 192.410156 120.0625 191.894531 C 130.371094 191.140625 135.921875 197.960938 136.953125 199.230469 Z M 136.953125 199.230469 " fill-opacity="1" fill-rule="nonzero"/></g><path fill="#ffa37f" d="M 160.066406 155.699219 C 160.582031 160.378906 160.621094 166.996094 157.886719 169.535156 C 155.507812 171.714844 151.421875 172.269531 144.445312 168.980469 C 136.914062 165.410156 134.019531 161.726562 134.019531 161.726562 C 134.019531 161.726562 132.433594 162.199219 130.253906 160.335938 C 128.070312 158.472656 125.652344 155.183594 126.128906 154.035156 C 127.277344 154.746094 128.546875 155.5 129.695312 156.214844 C 130.015625 156.414062 130.332031 156.609375 130.6875 156.769531 C 131.046875 155.976562 131.363281 155.222656 131.480469 154.390625 C 131.5625 153.675781 131.679688 152.921875 131.757812 152.210938 C 131.679688 152.210938 131.601562 152.210938 131.519531 152.171875 C 131.480469 152.171875 131.441406 152.128906 131.402344 152.128906 C 131.164062 152.050781 130.886719 151.894531 130.648438 151.695312 C 130.332031 151.457031 130.332031 150.503906 130.332031 150.503906 C 130.53125 150.78125 130.769531 151.019531 131.046875 151.21875 C 131.28125 151.417969 131.519531 151.535156 131.71875 151.574219 C 131.878906 151.617188 131.996094 151.617188 132.15625 151.574219 C 132.195312 151.574219 132.234375 151.535156 132.273438 151.535156 C 132.3125 151.535156 132.3125 151.496094 132.351562 151.496094 C 132.789062 151.296875 133.226562 151.257812 133.742188 151.21875 C 135.800781 151.101562 137.785156 150.386719 139.570312 149.316406 C 141.351562 148.285156 142.9375 146.9375 144.445312 145.550781 C 145.554688 144.519531 146.664062 143.488281 147.578125 142.257812 C 148.488281 141.070312 149.242188 139.722656 149.757812 138.292969 C 149.957031 137.777344 150.234375 137.144531 150.75 137.027344 C 150.90625 136.984375 151.066406 136.90625 151.222656 136.828125 C 151.660156 136.511719 151.738281 135.835938 151.738281 135.242188 C 151.738281 135.242188 152.175781 136.828125 151.542969 137.304688 C 151.503906 137.34375 151.460938 137.34375 151.421875 137.382812 C 152.253906 137.976562 152.96875 138.691406 153.722656 139.40625 C 154.160156 139.800781 154.632812 140.199219 155.230469 140.238281 C 156.339844 142.140625 159.589844 151.695312 160.066406 155.699219 Z M 151.183594 135.71875 C 151.460938 135.480469 151.621094 135.082031 151.660156 134.609375 C 151.660156 134.410156 151.660156 134.210938 151.660156 134.050781 C 151.660156 133.894531 151.660156 133.734375 151.660156 133.617188 L 151.066406 133.578125 C 151.066406 133.734375 151.066406 133.894531 151.066406 134.09375 C 151.066406 134.25 151.066406 134.449219 151.066406 134.609375 C 151.027344 134.84375 150.988281 135.164062 150.789062 135.320312 C 150.628906 135.441406 150.390625 135.519531 150.273438 135.402344 L 149.875 135.835938 C 150.035156 135.996094 150.234375 136.035156 150.472656 136.035156 C 150.710938 135.996094 150.988281 135.914062 151.183594 135.71875 Z M 127.320312 152.804688 C 127.832031 152.804688 128.308594 152.605469 128.707031 152.289062 L 128.308594 151.851562 C 128.03125 152.089844 127.675781 152.210938 127.320312 152.210938 C 126.882812 152.210938 126.445312 152.011719 125.96875 151.8125 C 125.8125 151.734375 125.652344 151.695312 125.496094 151.617188 C 125.851562 151.335938 126.207031 150.941406 126.484375 150.464844 C 126.484375 150.464844 125.257812 151.101562 124.859375 151.335938 C 124.820312 151.378906 124.742188 151.378906 124.664062 151.417969 C 124.425781 151.378906 124.226562 151.378906 123.988281 151.378906 L 123.988281 151.617188 C 123.550781 151.695312 123.117188 151.773438 123.117188 151.773438 C 123.394531 151.972656 123.789062 152.089844 124.148438 152.089844 C 124.304688 152.089844 124.503906 152.050781 124.664062 152.011719 C 124.78125 152.050781 124.859375 152.050781 124.980469 152.089844 C 125.21875 152.171875 125.457031 152.289062 125.734375 152.367188 C 126.25 152.566406 126.761719 152.804688 127.320312 152.804688 Z M 120.855469 148.722656 C 120.617188 148.402344 120.421875 148.046875 120.261719 147.609375 C 120.144531 147.332031 120.101562 147.136719 120.183594 147.054688 L 119.785156 146.621094 C 119.507812 146.898438 119.507812 147.292969 119.707031 147.847656 C 119.90625 148.324219 120.101562 148.722656 120.378906 149.078125 C 120.738281 149.515625 121.253906 149.792969 121.730469 149.832031 L 121.769531 149.238281 C 121.449219 149.238281 121.132812 149.078125 120.855469 148.722656 Z M 201.136719 201.289062 C 197.964844 200.21875 195.863281 202.359375 195.863281 202.359375 C 195.863281 202.359375 190.039062 209.894531 189.246094 211.042969 C 188.453125 212.191406 186.152344 215.640625 184.726562 217.308594 C 183.296875 218.972656 180.917969 223.175781 180.285156 225.355469 C 179.648438 227.535156 180.5625 232.648438 180.761719 233.484375 C 180.839844 233.839844 181.195312 234.355469 181.511719 234.832031 C 181.949219 235.425781 181.910156 239.152344 181.949219 239.785156 C 181.988281 240.738281 182.386719 241.808594 183.65625 241.964844 C 184.488281 242.046875 186.113281 240.617188 186.351562 240.339844 C 186.589844 240.0625 186.707031 239.785156 186.707031 239.785156 C 186.707031 239.785156 187.382812 240.460938 188.609375 239.945312 C 189.839844 239.390625 189.957031 237.882812 189.957031 237.050781 C 189.957031 236.21875 190.75 234.15625 190.75 234.15625 C 190.75 234.15625 193.167969 234.15625 194.320312 232.808594 C 194.320312 232.808594 196.222656 232.371094 197.09375 230.589844 C 197.925781 228.804688 198.125 221.3125 198.757812 220.082031 C 199.394531 218.855469 208.949219 205.136719 208.949219 205.136719 C 208.949219 205.136719 204.269531 202.359375 201.136719 201.289062 Z M 121.808594 148.007812 C 121.964844 148.246094 122.242188 148.285156 122.363281 148.285156 C 122.5625 148.324219 122.757812 148.324219 122.957031 148.324219 C 124.066406 148.324219 125.652344 146.816406 125.652344 146.816406 C 124.78125 147.53125 121.808594 148.007812 121.808594 148.007812 Z M 130.410156 149 C 131.125 148.878906 131.757812 148.484375 132.234375 147.96875 C 132.234375 147.96875 130.886719 148.324219 130.332031 148.402344 C 129.777344 148.484375 128.390625 148.601562 128.390625 148.601562 C 128.863281 148.878906 129.417969 149.039062 129.933594 149.039062 C 130.09375 149.039062 130.253906 149.039062 130.410156 149 Z M 130.410156 149 " fill-opacity="1" fill-rule="nonzero"/><path fill="#34352c" d="M 180.839844 223.054688 C 180.839844 223.054688 180.363281 221.984375 180.164062 221.46875 C 179.96875 220.996094 179.769531 219.804688 179.769531 219.804688 C 180.125 220.242188 180.484375 220.71875 180.71875 221.230469 C 180.957031 221.867188 181 222.5 180.839844 223.054688 Z M 133.027344 160.8125 C 133.34375 161.289062 134.019531 161.683594 134.019531 161.683594 C 133.859375 161.527344 133.78125 160.890625 133.542969 160.496094 C 133.105469 159.820312 132.632812 159.070312 132.15625 158.710938 L 131.796875 159.1875 C 132.15625 159.503906 132.632812 160.21875 133.027344 160.8125 Z M 128.507812 157.285156 C 128.347656 156.96875 128.269531 156.648438 128.347656 156.371094 C 128.347656 156.371094 128.945312 156.886719 129.023438 157.007812 C 129.183594 157.324219 129.617188 158.277344 129.617188 158.277344 C 129.140625 158.078125 128.746094 157.722656 128.507812 157.285156 Z M 151.582031 156.847656 C 150.628906 155.539062 150.945312 154.152344 150.945312 154.152344 C 151.066406 154.589844 151.222656 154.984375 151.382812 155.382812 C 151.582031 155.777344 151.820312 156.175781 152.058594 156.53125 C 152.730469 157.5625 153.007812 158 153.800781 158.988281 L 153.839844 159.070312 C 154.394531 159.742188 154.992188 160.535156 154.953125 161.488281 C 154.953125 161.726562 154.871094 162.121094 154.632812 162.4375 C 154.238281 162.914062 152.929688 162.4375 152.929688 162.4375 C 153.40625 162.398438 153.921875 162.359375 154.160156 162.042969 C 154.277344 161.882812 154.355469 161.683594 154.355469 161.449219 C 154.394531 160.734375 153.878906 160.058594 153.367188 159.425781 L 153.324219 159.347656 C 152.574219 158.316406 152.335938 157.839844 151.582031 156.847656 Z M 182.503906 227.695312 C 182.902344 229.160156 183.058594 230.035156 183.058594 231.777344 C 183.058594 233.523438 182.78125 235.941406 182.78125 235.980469 L 182.1875 235.902344 C 182.1875 235.863281 182.464844 233.484375 182.464844 231.777344 C 182.425781 230.113281 182.503906 227.695312 182.503906 227.695312 Z M 187.382812 233.484375 C 187.578125 234.671875 187.261719 238.753906 187.023438 239.867188 C 187.023438 239.867188 187.023438 234.671875 186.824219 233.601562 C 186.667969 232.648438 186.191406 232.292969 186.191406 232.292969 C 186.191406 232.253906 187.183594 232.253906 187.382812 233.484375 Z M 183.417969 239.867188 C 183.8125 240.0625 184.289062 240.144531 184.726562 240.144531 C 184.726562 240.144531 183.65625 240.617188 183.179688 240.382812 Z M 190.988281 229.757812 C 190.988281 229.757812 191.34375 230.746094 191.304688 231.183594 C 191.265625 231.539062 191.265625 231.898438 191.148438 232.253906 C 191.066406 232.453125 190.988281 232.648438 190.871094 232.925781 C 190.710938 233.207031 190.511719 233.523438 190.355469 233.800781 C 190.355469 233.800781 190.234375 232.925781 190.355469 232.648438 C 190.472656 232.414062 190.550781 232.253906 190.59375 232.09375 C 190.671875 231.816406 190.710938 231.5 190.75 231.144531 C 190.75 230.667969 190.789062 230.191406 190.988281 229.757812 Z M 194.4375 231.816406 L 194.992188 232.054688 L 194.636719 232.847656 L 194.082031 232.609375 Z M 206.210938 181.191406 C 204.46875 182.894531 201.535156 185.394531 200.78125 187.175781 C 200.582031 187.058594 200.425781 186.9375 200.304688 186.820312 C 201.257812 184.878906 206.210938 181.191406 206.210938 181.191406 Z M 199.3125 185.234375 C 199.195312 184.917969 199.15625 184.679688 199.15625 184.679688 C 199.15625 184.679688 199.117188 184.679688 199.035156 184.71875 C 201.019531 183.6875 201.96875 182.460938 201.96875 182.460938 C 201.929688 182.460938 201.414062 184.125 199.3125 185.234375 Z M 195.824219 182.617188 C 195.824219 182.617188 195.785156 182.617188 195.824219 182.617188 C 197.253906 182.855469 200.503906 181.46875 200.542969 181.429688 C 200.542969 181.429688 197.964844 183.171875 196.261719 183.210938 C 195.984375 182.855469 195.824219 182.617188 195.824219 182.617188 Z M 213.824219 178.574219 C 213.269531 178.457031 212.160156 177.941406 212.160156 177.941406 C 212.753906 177.78125 213.347656 177.859375 213.941406 178.019531 C 215.371094 178.296875 217.988281 179.644531 217.988281 179.644531 C 216.597656 179.25 215.210938 178.890625 213.824219 178.574219 Z M 181.472656 167.316406 C 182.503906 167.273438 184.765625 166.125 184.765625 166.125 C 184.683594 166.203125 183.019531 167.789062 181.59375 167.910156 C 181.433594 167.472656 181.472656 167.316406 181.472656 167.316406 Z M 176.714844 172.746094 C 176.714844 172.746094 178.0625 171.042969 178.855469 170.011719 C 178.855469 170.089844 178.898438 170.40625 178.9375 170.882812 C 178.382812 171.636719 176.714844 172.746094 176.714844 172.746094 Z M 179.414062 163.269531 L 179.414062 162.160156 L 182.863281 156.054688 Z M 158.914062 142.457031 L 158.28125 141.625 C 165.457031 140.277344 173.1875 140.949219 174.8125 141.109375 C 175.25 137.859375 175.726562 135.242188 175.726562 135.203125 C 175.726562 135.203125 174.65625 143.882812 174.851562 149.355469 C 175.050781 154.90625 179.570312 165.925781 179.570312 165.925781 C 179.09375 164.976562 174.457031 155.023438 174.257812 149.355469 C 174.179688 147.054688 174.417969 144.203125 174.734375 141.703125 C 173.226562 141.585938 165.972656 141.109375 158.914062 142.457031 Z M 110.507812 165.886719 L 108.128906 156.371094 L 111.0625 165.730469 C 111.339844 166.640625 111.617188 167.632812 111.9375 168.542969 C 112.371094 169.695312 112.886719 170.84375 113.402344 171.914062 C 113.800781 172.746094 114.15625 173.578125 114.511719 174.410156 C 114.871094 175.242188 115.1875 176.117188 115.464844 176.988281 C 116.417969 179.644531 117.40625 182.417969 119.429688 184.363281 C 120.300781 185.234375 121.371094 185.910156 122.441406 186.542969 L 126.367188 189.039062 L 122.125 187.058594 C 122.046875 186.980469 121.925781 186.9375 121.847656 186.859375 C 122.007812 188.566406 122.125 190.269531 122.242188 192.015625 C 122.046875 192.015625 121.847656 192.015625 121.648438 192.015625 C 121.570312 190.152344 121.410156 188.328125 121.214844 186.464844 C 120.460938 185.949219 119.707031 185.433594 119.03125 184.796875 C 116.929688 182.738281 115.902344 179.921875 114.910156 177.1875 C 114.59375 176.355469 114.273438 175.480469 113.957031 174.648438 C 113.601562 173.816406 113.246094 172.984375 112.847656 172.152344 C 112.332031 171.042969 111.816406 169.890625 111.382812 168.703125 C 111.0625 167.832031 110.785156 166.839844 110.507812 165.886719 Z M 110.074219 175.203125 C 111.261719 176.394531 112.808594 177.027344 114.234375 178.058594 C 114.234375 178.058594 109.875 175.917969 108.644531 174.6875 Z M 112.691406 182.933594 C 111.539062 182.933594 109.519531 181.785156 109.519531 181.785156 C 111.382812 182.460938 115.582031 182.5 115.582031 182.5 C 114.632812 182.816406 113.679688 182.933594 112.691406 182.933594 Z M 130.015625 160.019531 C 130.054688 163.03125 129.738281 166.085938 129.339844 168.625 C 130.925781 168.742188 132.472656 169.21875 133.859375 169.929688 C 133.859375 169.929688 133.859375 169.929688 133.898438 169.929688 C 133.9375 168.742188 133.859375 167.59375 133.582031 166.441406 L 134.175781 166.285156 C 134.929688 169.296875 134.335938 172.46875 133.820312 175.324219 C 138.855469 177.066406 143.8125 179.089844 148.609375 181.429688 C 148.609375 181.429688 138.5 177.542969 133.382812 175.839844 L 133.144531 175.757812 L 133.1875 175.519531 C 133.464844 173.976562 133.78125 172.269531 133.898438 170.605469 C 133.78125 170.566406 133.703125 170.527344 133.621094 170.488281 C 132.195312 169.734375 130.609375 169.296875 129.023438 169.21875 L 128.707031 169.21875 L 128.746094 168.902344 C 129.183594 166.363281 129.460938 162.636719 129.417969 159.542969 Z M 121.171875 155.183594 C 112.132812 159.386719 109.796875 159.386719 109.796875 159.386719 C 113.523438 157.878906 117.25 156.292969 120.9375 154.667969 C 121.886719 154.230469 123.632812 153.4375 123.632812 153.4375 C 123.035156 154.351562 121.964844 154.828125 121.171875 155.183594 Z M 94.175781 224.085938 C 96 224.601562 100.757812 222.738281 100.757812 222.738281 C 99.644531 223.730469 97.148438 224.800781 95.167969 224.800781 C 94.730469 224.800781 94.175781 224.085938 94.175781 224.085938 Z M 90.289062 215.640625 C 90.726562 217.269531 90.527344 219.132812 89.8125 220.675781 C 88.785156 219.089844 88.386719 217.585938 88.742188 217.1875 C 89.140625 216.710938 89.65625 216.15625 90.289062 215.640625 Z M 102.066406 208.980469 C 101.945312 209.378906 101.707031 209.855469 101.273438 209.855469 C 100.996094 209.855469 100.714844 209.695312 100.558594 209.457031 C 100.398438 209.21875 100.359375 208.941406 100.320312 208.664062 C 100.242188 208.03125 100.398438 206.40625 101.429688 206.683594 C 102.222656 206.878906 102.183594 208.386719 102.066406 208.980469 Z M 107.417969 216.710938 C 106.980469 215.683594 106.820312 214.492188 106.902344 212.90625 C 106.980469 211.636719 107.179688 210.371094 107.378906 209.179688 C 107.496094 208.347656 107.65625 207.476562 107.734375 206.601562 C 108.011719 204.066406 107.613281 200.300781 107.613281 200.300781 C 108.40625 202.003906 108.644531 204.027344 108.328125 206.683594 C 108.25 207.554688 108.089844 208.425781 107.972656 209.257812 C 107.773438 210.449219 107.574219 211.71875 107.535156 212.945312 C 107.457031 214.414062 107.613281 215.5625 108.011719 216.476562 C 108.644531 217.902344 109.875 218.855469 110.824219 219.410156 C 112.054688 220.121094 113.441406 220.597656 114.75 221.035156 C 115.503906 221.273438 116.296875 221.550781 117.089844 221.550781 C 117.921875 221.550781 118.675781 221.273438 119.074219 220.757812 C 119.507812 220.242188 119.585938 219.488281 119.667969 218.8125 C 119.824219 217.226562 119.824219 215.683594 119.824219 214.492188 C 119.824219 211.398438 119.628906 208.308594 119.269531 205.253906 C 119.074219 203.589844 118 200.179688 118 200.179688 C 119.351562 201.488281 119.667969 203.472656 119.867188 205.214844 C 120.222656 208.308594 120.378906 211.441406 120.421875 214.53125 C 120.421875 215.722656 120.421875 217.308594 120.261719 218.894531 C 120.183594 219.648438 120.0625 220.480469 119.546875 221.152344 C 119.03125 221.789062 118.121094 222.183594 117.167969 222.183594 C 117.128906 222.183594 117.128906 222.183594 117.089844 222.183594 C 116.21875 222.183594 115.386719 221.90625 114.59375 221.628906 C 113.246094 221.191406 111.816406 220.71875 110.546875 219.964844 C 109.4375 219.328125 108.089844 218.296875 107.417969 216.710938 Z M 109.714844 226.824219 C 109.359375 226.742188 109.042969 226.664062 108.726562 226.585938 C 108.171875 226.425781 107.21875 225.671875 107.21875 225.671875 C 107.8125 225.710938 108.367188 225.871094 108.882812 225.988281 C 109.199219 226.070312 109.519531 226.148438 109.835938 226.226562 C 110.507812 226.347656 112.53125 226.425781 112.53125 226.425781 C 112.054688 226.78125 111.460938 226.941406 110.746094 226.941406 C 110.429688 226.941406 110.074219 226.902344 109.714844 226.824219 Z M 159.75 244.1875 C 159.75 244.1875 156.496094 243.871094 154.753906 244.027344 L 146.347656 244.703125 C 145.871094 244.742188 145.398438 244.78125 144.882812 244.78125 C 143.890625 244.78125 142.898438 244.621094 142.066406 244.109375 C 140.441406 245.21875 138.457031 245.8125 136.515625 245.8125 C 136 245.8125 135.445312 245.773438 134.929688 245.695312 C 134.019531 246.050781 132.988281 246.289062 131.839844 246.289062 C 131.601562 246.289062 131.363281 246.289062 131.125 246.25 C 130.808594 246.289062 128.984375 246.484375 126.25 246.289062 C 125.257812 246.207031 124.304688 246.089844 123.273438 245.929688 C 121.214844 245.652344 118.835938 245.296875 115.820312 245.414062 C 113.203125 245.496094 111.617188 247.199219 110.90625 248.191406 C 109.914062 249.578125 109.199219 251.839844 109.199219 251.839844 C 108.921875 250.886719 109.398438 249.261719 110.429688 247.875 C 111.222656 246.765625 112.96875 244.941406 115.820312 244.820312 C 118.875 244.703125 121.253906 245.058594 123.355469 245.375 C 124.386719 245.535156 125.335938 245.652344 126.289062 245.734375 C 127.277344 245.8125 128.113281 245.8125 128.863281 245.8125 C 118.238281 242.480469 113.324219 237.527344 113.324219 237.527344 C 117.050781 240.101562 123.472656 243.75 129.5 245.414062 C 135.761719 247.160156 139.332031 241.53125 140.003906 240.382812 C 140.441406 239.628906 146.308594 232.054688 146.308594 232.054688 C 145.515625 234.277344 142.027344 238.042969 140.519531 240.699219 C 140.085938 241.410156 138.578125 243.871094 135.960938 245.296875 C 138.101562 245.457031 140.242188 244.859375 141.988281 243.59375 C 142.742188 243.078125 143.414062 242.402344 144.089844 241.769531 C 144.40625 241.453125 144.722656 241.175781 145.078125 240.855469 C 146.824219 239.308594 151.183594 237.683594 151.183594 237.683594 C 149.082031 238.558594 147.140625 239.785156 145.476562 241.292969 C 145.160156 241.570312 144.839844 241.886719 144.523438 242.203125 C 143.929688 242.757812 143.335938 243.316406 142.699219 243.828125 C 143.730469 244.34375 145.039062 244.304688 146.386719 244.1875 L 154.792969 243.511719 C 156.578125 243.273438 158.320312 243.195312 159.75 244.1875 Z M 160.027344 214.375 C 160.5 217.546875 159.828125 220.757812 158.796875 223.808594 C 157.25 228.488281 154.316406 229.359375 154.316406 229.359375 C 156.378906 227.378906 157.925781 224.839844 158.796875 222.105469 C 159.550781 219.6875 160.027344 214.375 160.027344 214.375 Z M 176.242188 240.738281 C 178.0625 244.703125 179.53125 248.746094 178.105469 251.480469 C 178.105469 251.480469 177.46875 244.78125 175.726562 240.976562 C 174.496094 238.28125 174.496094 233.601562 174.535156 229.519531 C 174.535156 226.863281 174.773438 222.816406 174.773438 222.816406 C 175.171875 224.207031 175.171875 226.664062 175.128906 229.519531 C 175.050781 233.5625 175.050781 238.121094 176.242188 240.738281 Z M 112.332031 248.585938 C 112.332031 248.585938 110.746094 251.402344 110.824219 252.871094 L 110.230469 252.910156 C 110.152344 251.203125 110.984375 249.539062 112.332031 248.585938 Z M 94.332031 249.222656 C 94.691406 248.46875 95.246094 247.875 95.761719 247.277344 C 95.761719 247.277344 95.207031 248.824219 94.890625 249.5 C 94.53125 250.214844 94.453125 250.964844 94.691406 251.5625 L 94.136719 251.757812 C 93.859375 251.003906 93.9375 250.09375 94.332031 249.222656 Z M 101.3125 247.476562 C 101.3125 247.476562 99.765625 250.171875 99.84375 251.5625 L 99.25 251.601562 C 99.171875 250.015625 100.003906 248.390625 101.3125 247.476562 Z M 138.65625 203.789062 C 138.65625 203.789062 138.617188 203.628906 139.449219 203.390625 C 138.894531 206.484375 136.753906 207.910156 136.753906 207.910156 C 137.746094 206.722656 138.417969 205.253906 138.695312 203.710938 C 138.65625 203.75 138.65625 203.789062 138.65625 203.789062 Z M 227.738281 246.882812 C 227.738281 246.882812 222.269531 246.605469 219.613281 246.644531 C 219.253906 246.644531 218.9375 246.644531 218.582031 246.644531 C 216.164062 246.683594 213.664062 246.605469 211.246094 246.011719 C 210.414062 246.644531 209.34375 246.722656 208.273438 246.804688 C 208.117188 246.804688 207.996094 246.84375 207.835938 246.84375 C 206.808594 246.921875 206.054688 247.121094 205.417969 247.398438 C 204.625 247.792969 204.03125 248.347656 203.714844 249.023438 C 203.398438 249.777344 203.476562 251.5625 203.476562 251.5625 C 202.882812 250.808594 202.761719 249.738281 203.160156 248.785156 C 203.515625 247.992188 204.230469 247.277344 205.140625 246.84375 C 205.855469 246.484375 206.6875 246.289062 207.796875 246.207031 C 207.957031 246.207031 208.074219 246.167969 208.234375 246.167969 C 209.027344 246.128906 209.820312 246.050781 210.453125 245.773438 C 209.820312 245.574219 209.1875 245.335938 208.550781 245.058594 C 204.863281 243.355469 201.929688 239.867188 200.503906 235.542969 C 199.273438 231.816406 199.117188 227.613281 200.066406 222.976562 C 200.066406 222.976562 199.871094 231.738281 201.058594 235.347656 C 202.445312 239.507812 205.261719 242.839844 208.789062 244.503906 C 211.84375 245.929688 215.292969 246.089844 218.542969 246.011719 C 218.898438 246.011719 219.214844 246.011719 219.574219 246.011719 C 222.308594 246.011719 225.125 245.972656 227.738281 246.882812 Z M 206.132812 248.945312 C 205.738281 249.140625 205.378906 249.460938 205.222656 249.894531 C 205.0625 250.332031 205.140625 250.925781 205.300781 251.363281 L 204.667969 251.402344 C 204.46875 250.847656 204.429688 250.253906 204.667969 249.699219 C 204.902344 249.101562 206.132812 248.945312 206.132812 248.945312 Z M 208.074219 249.261719 C 207.601562 249.738281 207.28125 250.609375 207.402344 251.285156 L 206.847656 251.324219 C 206.6875 250.449219 208.074219 249.261719 208.074219 249.261719 Z M 242.132812 244.265625 C 241.734375 246.722656 239.832031 248.90625 237.453125 249.617188 C 237.453125 249.617188 241.179688 246.40625 241.535156 244.148438 C 241.734375 242.996094 241.617188 241.6875 241.140625 240.101562 C 240.980469 239.507812 240.703125 238.714844 240.269531 238.082031 C 240.070312 237.765625 239.792969 237.488281 239.554688 237.167969 C 239.433594 237.011719 239.277344 236.851562 239.15625 236.695312 C 238.601562 236.019531 238.167969 235.304688 237.730469 234.59375 C 237.492188 234.234375 237.253906 233.839844 237.015625 233.484375 C 235.3125 230.945312 232.972656 228.882812 230.714844 226.902344 C 230.117188 226.347656 228.96875 224.917969 228.96875 224.917969 C 229.761719 225.316406 230.4375 225.871094 231.070312 226.464844 C 233.371094 228.488281 235.75 230.550781 237.453125 233.164062 C 237.691406 233.523438 237.929688 233.917969 238.167969 234.316406 C 238.601562 235.027344 239.039062 235.742188 239.554688 236.375 C 239.671875 236.535156 239.792969 236.695312 239.949219 236.8125 C 240.226562 237.128906 240.464844 237.40625 240.703125 237.765625 C 241.179688 238.476562 241.457031 239.308594 241.65625 239.945312 C 242.210938 241.609375 242.367188 242.996094 242.132812 244.265625 Z M 235.789062 229.914062 C 235.789062 229.914062 235.75 227.773438 235.628906 226.824219 L 236.222656 226.742188 C 236.382812 227.8125 236.222656 228.921875 235.789062 229.914062 Z M 162.917969 206.207031 C 162.917969 206.207031 164.464844 211.320312 164.148438 213.9375 C 164.070312 214.570312 163.910156 215.484375 163.15625 215.839844 C 163.15625 215.839844 163.476562 214.375 163.554688 213.859375 C 163.871094 211.320312 163.632812 208.664062 162.917969 206.207031 Z M 210.535156 210.804688 C 209.703125 211.003906 208.789062 211.441406 207.878906 211.957031 C 215.847656 209.617188 222.347656 212.867188 222.347656 212.867188 C 218.183594 211.28125 209.660156 211.957031 207.519531 212.191406 C 204.46875 214.097656 201.375 217.1875 201.375 217.1875 C 204.347656 211.359375 210.535156 210.804688 210.535156 210.804688 Z M 186.390625 211.914062 C 186.074219 211.519531 185.4375 210.488281 185.4375 210.488281 C 185.914062 210.765625 186.429688 211.082031 186.824219 211.519531 C 187.300781 212.074219 187.460938 212.75 187.300781 213.34375 C 187.300781 213.34375 186.628906 212.234375 186.390625 211.914062 Z M 192.21875 235.148438 C 192.851562 235.863281 193.328125 236.695312 193.644531 237.566406 L 193.089844 237.765625 C 192.773438 236.933594 192.21875 235.148438 192.21875 235.148438 Z M 198.402344 194.789062 C 198.402344 195.699219 197.171875 203.074219 190.832031 208.941406 C 190.832031 208.941406 189.679688 210.488281 189.640625 210.488281 C 189.640625 210.488281 189.957031 208.941406 192.179688 205.296875 C 194.398438 201.648438 196.855469 197.207031 196.816406 194.671875 C 196.777344 192.132812 194.792969 189.515625 191.742188 188.566406 C 189.085938 187.773438 180.878906 185.632812 177.390625 184.878906 C 176.480469 187.058594 175.566406 187.574219 175.566406 187.574219 C 176.121094 186.703125 176.558594 185.75 176.875 184.757812 C 176.558594 184.679688 176.28125 184.640625 176.121094 184.601562 C 174.019531 184.28125 167.28125 182.300781 162.917969 180.238281 C 160.222656 178.96875 157.566406 177.703125 155.625 176.828125 C 153.761719 178.96875 151.820312 181.625 151.820312 181.625 C 152.691406 180 153.761719 178.21875 155.109375 176.59375 C 154.199219 176.15625 153.484375 175.839844 153.046875 175.679688 C 151.699219 175.125 151.859375 174.609375 151.859375 174.609375 L 152.492188 173.261719 C 152.769531 173.101562 153.007812 173.0625 153.5625 173.539062 C 153.800781 173.738281 154.992188 174.410156 156.378906 175.164062 C 156.535156 175.007812 156.65625 174.886719 156.816406 174.730469 C 157.09375 174.492188 157.328125 174.253906 157.609375 174.054688 C 157.964844 173.738281 158.320312 173.460938 158.636719 173.144531 C 160.421875 171.398438 161.570312 169.136719 162.683594 166.917969 C 162.523438 166.324219 162.167969 165.769531 161.808594 165.214844 C 161.652344 164.976562 161.492188 164.738281 161.375 164.539062 C 161.214844 164.261719 161.054688 163.945312 160.9375 163.667969 L 160.222656 162.160156 L 160.265625 160.8125 L 161.175781 162.796875 L 163.515625 160.773438 C 163.554688 160.734375 163.632812 160.65625 163.632812 160.613281 C 163.632812 160.535156 163.59375 160.417969 163.59375 160.335938 C 162.640625 157.601562 160.738281 152.050781 160.738281 152.050781 C 162.046875 154.667969 163.199219 157.402344 164.148438 160.140625 C 164.1875 160.296875 164.269531 160.535156 164.1875 160.773438 C 164.109375 160.972656 163.992188 161.089844 163.871094 161.167969 L 161.375 163.3125 L 161.414062 163.351562 C 161.53125 163.628906 161.691406 163.90625 161.847656 164.183594 C 161.96875 164.421875 162.128906 164.617188 162.246094 164.855469 C 162.640625 165.492188 163.078125 166.164062 163.238281 166.878906 L 163.238281 166.996094 L 163.199219 167.078125 C 162.046875 169.375 160.859375 171.714844 158.957031 173.539062 C 158.597656 173.855469 158.242188 174.171875 157.886719 174.492188 C 157.609375 174.730469 157.371094 174.925781 157.09375 175.164062 C 157.011719 175.242188 156.894531 175.363281 156.773438 175.441406 C 158.519531 176.355469 160.460938 177.34375 161.453125 177.742188 C 163.117188 178.414062 168.46875 181.230469 172.910156 182.539062 C 169.023438 179.921875 167.003906 175.878906 165.417969 172.429688 C 163.632812 168.464844 162.960938 164.9375 163.277344 164.539062 C 163.277344 164.539062 164.109375 163.984375 164.503906 164.105469 C 164.902344 164.222656 165.417969 164.578125 165.617188 165.292969 C 165.8125 165.96875 167.003906 172.429688 169.105469 175.957031 C 170.808594 178.851562 174.65625 182.183594 176.003906 183.292969 C 176.359375 183.371094 176.757812 183.449219 177.113281 183.53125 C 177.390625 182.539062 177.589844 181.507812 177.785156 180.476562 C 177.984375 179.40625 178.816406 177.34375 178.816406 177.34375 C 178.539062 178.375 178.578125 179.527344 178.382812 180.597656 C 178.183594 181.785156 177.945312 182.816406 177.667969 183.648438 C 181.75 184.519531 186.390625 185.511719 190.117188 186.582031 C 194.953125 187.96875 198.441406 189.914062 198.402344 194.789062 Z M 137.945312 165.332031 L 138.222656 165.214844 L 138.457031 165.054688 C 138.738281 165.371094 143.96875 169.457031 151.222656 170.882812 L 151.105469 171.476562 C 143.769531 170.011719 138.140625 165.769531 137.945312 165.332031 Z M 152.691406 152.328125 C 152.175781 152.644531 151.222656 152.6875 151.222656 152.6875 C 153.285156 151.019531 154.714844 149.195312 155.824219 146.777344 C 155.863281 147.253906 156.21875 147.929688 156.0625 148.523438 C 154.632812 151.019531 153.207031 152.050781 152.691406 152.328125 Z M 138.578125 160.296875 C 139.09375 160.058594 143.769531 158.078125 146.109375 156.015625 C 146.109375 156.015625 145.792969 157.125 145.121094 157.761719 C 144.445312 158.355469 141.433594 160.140625 140.519531 160.417969 C 139.648438 160.65625 138.578125 160.296875 138.578125 160.296875 Z M 155.464844 152.488281 C 155.386719 152.765625 155.230469 153.082031 154.953125 153.160156 C 154.832031 153.203125 154.671875 153.203125 154.554688 153.160156 C 154.117188 153.082031 154 152.6875 153.839844 152.25 C 154.394531 151.933594 154.832031 151.457031 155.109375 150.902344 C 155.425781 151.417969 155.625 151.894531 155.464844 152.488281 Z M 144.761719 158.710938 C 144.960938 159.226562 145.039062 159.863281 144.882812 160.378906 C 144.839844 160.535156 144.761719 160.695312 144.644531 160.8125 C 144.40625 160.972656 144.089844 160.890625 143.851562 160.773438 C 143.492188 160.613281 143.257812 160.296875 143.019531 159.980469 C 143.691406 159.742188 144.328125 159.304688 144.761719 158.710938 Z M 152.453125 166.800781 C 152.453125 166.800781 154.515625 166.402344 155.785156 165.253906 C 156.578125 164.539062 157.488281 161.921875 157.488281 161.921875 C 157.527344 163.589844 157.09375 164.855469 156.179688 165.6875 C 155.109375 166.679688 153.683594 166.800781 152.929688 166.800781 C 152.652344 166.800781 152.453125 166.800781 152.453125 166.800781 Z M 152.808594 199.785156 C 152.808594 200.617188 152.769531 201.488281 152.808594 202.320312 C 152.808594 202.359375 152.808594 202.441406 152.808594 202.480469 C 152.613281 202.480469 152.414062 202.480469 152.214844 202.441406 C 152.214844 202.402344 152.214844 202.359375 152.214844 202.320312 C 152.175781 201.449219 152.214844 200.578125 152.214844 199.746094 C 152.253906 198.316406 152.253906 196.96875 152.097656 195.621094 C 151.660156 192.527344 150.945312 189.316406 149.957031 185.789062 C 149.796875 185.234375 149.640625 184.601562 149.640625 183.925781 C 149.640625 183.371094 149.757812 182.855469 149.875 182.339844 C 149.996094 181.824219 150.074219 181.308594 150.195312 180.792969 C 150.273438 180.277344 150.667969 179.84375 150.789062 179.289062 C 150.789062 179.289062 150.867188 180.398438 150.789062 180.875 C 150.710938 181.390625 150.589844 181.902344 150.472656 182.417969 C 150.351562 182.894531 150.234375 183.410156 150.234375 183.886719 C 150.234375 184.480469 150.390625 185.074219 150.550781 185.589844 C 151.542969 189.160156 152.253906 192.410156 152.691406 195.503906 C 152.851562 196.929688 152.851562 198.398438 152.808594 199.785156 Z M 152.808594 199.785156 " fill-opacity="1" fill-rule="nonzero"/><path fill="#34352c" d="M 180.839844 223.054688 C 180.839844 223.054688 180.363281 221.984375 180.164062 221.46875 C 179.96875 220.996094 179.769531 219.804688 179.769531 219.804688 C 180.125 220.242188 180.484375 220.71875 180.71875 221.230469 C 180.957031 221.867188 181 222.5 180.839844 223.054688 Z M 133.027344 160.8125 C 133.34375 161.289062 134.019531 161.683594 134.019531 161.683594 C 133.859375 161.527344 133.78125 160.890625 133.542969 160.496094 C 133.105469 159.820312 132.632812 159.070312 132.15625 158.710938 L 131.796875 159.1875 C 132.15625 159.503906 132.632812 160.21875 133.027344 160.8125 Z M 128.507812 157.285156 C 128.347656 156.96875 128.269531 156.648438 128.347656 156.371094 C 128.347656 156.371094 128.945312 156.886719 129.023438 157.007812 C 129.183594 157.324219 129.617188 158.277344 129.617188 158.277344 C 129.140625 158.078125 128.746094 157.722656 128.507812 157.285156 Z M 151.582031 156.847656 C 150.628906 155.539062 150.945312 154.152344 150.945312 154.152344 C 151.066406 154.589844 151.222656 154.984375 151.382812 155.382812 C 151.582031 155.777344 151.820312 156.175781 152.058594 156.53125 C 152.730469 157.5625 153.007812 158 153.800781 158.988281 L 153.839844 159.070312 C 154.394531 159.742188 154.992188 160.535156 154.953125 161.488281 C 154.953125 161.726562 154.871094 162.121094 154.632812 162.4375 C 154.238281 162.914062 152.929688 162.4375 152.929688 162.4375 C 153.40625 162.398438 153.921875 162.359375 154.160156 162.042969 C 154.277344 161.882812 154.355469 161.683594 154.355469 161.449219 C 154.394531 160.734375 153.878906 160.058594 153.367188 159.425781 L 153.324219 159.347656 C 152.574219 158.316406 152.335938 157.839844 151.582031 156.847656 Z M 182.503906 227.695312 C 182.902344 229.160156 183.058594 230.035156 183.058594 231.777344 C 183.058594 233.523438 182.78125 235.941406 182.78125 235.980469 L 182.1875 235.902344 C 182.1875 235.863281 182.464844 233.484375 182.464844 231.777344 C 182.425781 230.113281 182.503906 227.695312 182.503906 227.695312 Z M 187.382812 233.484375 C 187.578125 234.671875 187.261719 238.753906 187.023438 239.867188 C 187.023438 239.867188 187.023438 234.671875 186.824219 233.601562 C 186.667969 232.648438 186.191406 232.292969 186.191406 232.292969 C 186.191406 232.253906 187.183594 232.253906 187.382812 233.484375 Z M 183.417969 239.867188 C 183.8125 240.0625 184.289062 240.144531 184.726562 240.144531 C 184.726562 240.144531 183.65625 240.617188 183.179688 240.382812 Z M 190.988281 229.757812 C 190.988281 229.757812 191.34375 230.746094 191.304688 231.183594 C 191.265625 231.539062 191.265625 231.898438 191.148438 232.253906 C 191.066406 232.453125 190.988281 232.648438 190.871094 232.925781 C 190.710938 233.207031 190.511719 233.523438 190.355469 233.800781 C 190.355469 233.800781 190.234375 232.925781 190.355469 232.648438 C 190.472656 232.414062 190.550781 232.253906 190.59375 232.09375 C 190.671875 231.816406 190.710938 231.5 190.75 231.144531 C 190.75 230.667969 190.789062 230.191406 190.988281 229.757812 Z M 194.4375 231.816406 L 194.992188 232.054688 L 194.636719 232.847656 L 194.082031 232.609375 Z M 206.210938 181.191406 C 204.46875 182.894531 201.535156 185.394531 200.78125 187.175781 C 200.582031 187.058594 200.425781 186.9375 200.304688 186.820312 C 201.257812 184.878906 206.210938 181.191406 206.210938 181.191406 Z M 199.3125 185.234375 C 199.195312 184.917969 199.15625 184.679688 199.15625 184.679688 C 199.15625 184.679688 199.117188 184.679688 199.035156 184.71875 C 201.019531 183.6875 201.96875 182.460938 201.96875 182.460938 C 201.929688 182.460938 201.414062 184.125 199.3125 185.234375 Z M 195.824219 182.617188 C 195.824219 182.617188 195.785156 182.617188 195.824219 182.617188 C 197.253906 182.855469 200.503906 181.46875 200.542969 181.429688 C 200.542969 181.429688 197.964844 183.171875 196.261719 183.210938 C 195.984375 182.855469 195.824219 182.617188 195.824219 182.617188 Z M 213.824219 178.574219 C 213.269531 178.457031 212.160156 177.941406 212.160156 177.941406 C 212.753906 177.78125 213.347656 177.859375 213.941406 178.019531 C 215.371094 178.296875 217.988281 179.644531 217.988281 179.644531 C 216.597656 179.25 215.210938 178.890625 213.824219 178.574219 Z M 181.472656 167.316406 C 182.503906 167.273438 184.765625 166.125 184.765625 166.125 C 184.683594 166.203125 183.019531 167.789062 181.59375 167.910156 C 181.433594 167.472656 181.472656 167.316406 181.472656 167.316406 Z M 176.714844 172.746094 C 176.714844 172.746094 178.0625 171.042969 178.855469 170.011719 C 178.855469 170.089844 178.898438 170.40625 178.9375 170.882812 C 178.382812 171.636719 176.714844 172.746094 176.714844 172.746094 Z M 179.414062 163.269531 L 179.414062 162.160156 L 182.863281 156.054688 Z M 158.914062 142.457031 L 158.28125 141.625 C 165.457031 140.277344 173.1875 140.949219 174.8125 141.109375 C 175.25 137.859375 175.726562 135.242188 175.726562 135.203125 C 175.726562 135.203125 174.65625 143.882812 174.851562 149.355469 C 175.050781 154.90625 179.570312 165.925781 179.570312 165.925781 C 179.09375 164.976562 174.457031 155.023438 174.257812 149.355469 C 174.179688 147.054688 174.417969 144.203125 174.734375 141.703125 C 173.226562 141.585938 165.972656 141.109375 158.914062 142.457031 Z M 110.507812 165.886719 L 108.128906 156.371094 L 111.0625 165.730469 C 111.339844 166.640625 111.617188 167.632812 111.9375 168.542969 C 112.371094 169.695312 112.886719 170.84375 113.402344 171.914062 C 113.800781 172.746094 114.15625 173.578125 114.511719 174.410156 C 114.871094 175.242188 115.1875 176.117188 115.464844 176.988281 C 116.417969 179.644531 117.40625 182.417969 119.429688 184.363281 C 120.300781 185.234375 121.371094 185.910156 122.441406 186.542969 L 126.367188 189.039062 L 122.125 187.058594 C 122.046875 186.980469 121.925781 186.9375 121.847656 186.859375 C 122.007812 188.566406 122.125 190.269531 122.242188 192.015625 C 122.046875 192.015625 121.847656 192.015625 121.648438 192.015625 C 121.570312 190.152344 121.410156 188.328125 121.214844 186.464844 C 120.460938 185.949219 119.707031 185.433594 119.03125 184.796875 C 116.929688 182.738281 115.902344 179.921875 114.910156 177.1875 C 114.59375 176.355469 114.273438 175.480469 113.957031 174.648438 C 113.601562 173.816406 113.246094 172.984375 112.847656 172.152344 C 112.332031 171.042969 111.816406 169.890625 111.382812 168.703125 C 111.0625 167.832031 110.785156 166.839844 110.507812 165.886719 Z M 110.074219 175.203125 C 111.261719 176.394531 112.808594 177.027344 114.234375 178.058594 C 114.234375 178.058594 109.875 175.917969 108.644531 174.6875 Z M 112.691406 182.933594 C 111.539062 182.933594 109.519531 181.785156 109.519531 181.785156 C 111.382812 182.460938 115.582031 182.5 115.582031 182.5 C 114.632812 182.816406 113.679688 182.933594 112.691406 182.933594 Z M 130.015625 160.019531 C 130.054688 163.03125 129.738281 166.085938 129.339844 168.625 C 130.925781 168.742188 132.472656 169.21875 133.859375 169.929688 C 133.859375 169.929688 133.859375 169.929688 133.898438 169.929688 C 133.9375 168.742188 133.859375 167.59375 133.582031 166.441406 L 134.175781 166.285156 C 134.929688 169.296875 134.335938 172.46875 133.820312 175.324219 C 138.855469 177.066406 143.8125 179.089844 148.609375 181.429688 C 148.609375 181.429688 138.5 177.542969 133.382812 175.839844 L 133.144531 175.757812 L 133.1875 175.519531 C 133.464844 173.976562 133.78125 172.269531 133.898438 170.605469 C 133.78125 170.566406 133.703125 170.527344 133.621094 170.488281 C 132.195312 169.734375 130.609375 169.296875 129.023438 169.21875 L 128.707031 169.21875 L 128.746094 168.902344 C 129.183594 166.363281 129.460938 162.636719 129.417969 159.542969 Z M 121.171875 155.183594 C 112.132812 159.386719 109.796875 159.386719 109.796875 159.386719 C 113.523438 157.878906 117.25 156.292969 120.9375 154.667969 C 121.886719 154.230469 123.632812 153.4375 123.632812 153.4375 C 123.035156 154.351562 121.964844 154.828125 121.171875 155.183594 Z M 94.175781 224.085938 C 96 224.601562 100.757812 222.738281 100.757812 222.738281 C 99.644531 223.730469 97.148438 224.800781 95.167969 224.800781 C 94.730469 224.800781 94.175781 224.085938 94.175781 224.085938 Z M 90.289062 215.640625 C 90.726562 217.269531 90.527344 219.132812 89.8125 220.675781 C 88.785156 219.089844 88.386719 217.585938 88.742188 217.1875 C 89.140625 216.710938 89.65625 216.15625 90.289062 215.640625 Z M 102.066406 208.980469 C 101.945312 209.378906 101.707031 209.855469 101.273438 209.855469 C 100.996094 209.855469 100.714844 209.695312 100.558594 209.457031 C 100.398438 209.21875 100.359375 208.941406 100.320312 208.664062 C 100.242188 208.03125 100.398438 206.40625 101.429688 206.683594 C 102.222656 206.878906 102.183594 208.386719 102.066406 208.980469 Z M 107.417969 216.710938 C 106.980469 215.683594 106.820312 214.492188 106.902344 212.90625 C 106.980469 211.636719 107.179688 210.371094 107.378906 209.179688 C 107.496094 208.347656 107.65625 207.476562 107.734375 206.601562 C 108.011719 204.066406 107.613281 200.300781 107.613281 200.300781 C 108.40625 202.003906 108.644531 204.027344 108.328125 206.683594 C 108.25 207.554688 108.089844 208.425781 107.972656 209.257812 C 107.773438 210.449219 107.574219 211.71875 107.535156 212.945312 C 107.457031 214.414062 107.613281 215.5625 108.011719 216.476562 C 108.644531 217.902344 109.875 218.855469 110.824219 219.410156 C 112.054688 220.121094 113.441406 220.597656 114.75 221.035156 C 115.503906 221.273438 116.296875 221.550781 117.089844 221.550781 C 117.921875 221.550781 118.675781 221.273438 119.074219 220.757812 C 119.507812 220.242188 119.585938 219.488281 119.667969 218.8125 C 119.824219 217.226562 119.824219 215.683594 119.824219 214.492188 C 119.824219 211.398438 119.628906 208.308594 119.269531 205.253906 C 119.074219 203.589844 118 200.179688 118 200.179688 C 119.351562 201.488281 119.667969 203.472656 119.867188 205.214844 C 120.222656 208.308594 120.378906 211.441406 120.421875 214.53125 C 120.421875 215.722656 120.421875 217.308594 120.261719 218.894531 C 120.183594 219.648438 120.0625 220.480469 119.546875 221.152344 C 119.03125 221.789062 118.121094 222.183594 117.167969 222.183594 C 117.128906 222.183594 117.128906 222.183594 117.089844 222.183594 C 116.21875 222.183594 115.386719 221.90625 114.59375 221.628906 C 113.246094 221.191406 111.816406 220.71875 110.546875 219.964844 C 109.4375 219.328125 108.089844 218.296875 107.417969 216.710938 Z M 109.714844 226.824219 C 109.359375 226.742188 109.042969 226.664062 108.726562 226.585938 C 108.171875 226.425781 107.21875 225.671875 107.21875 225.671875 C 107.8125 225.710938 108.367188 225.871094 108.882812 225.988281 C 109.199219 226.070312 109.519531 226.148438 109.835938 226.226562 C 110.507812 226.347656 112.53125 226.425781 112.53125 226.425781 C 112.054688 226.78125 111.460938 226.941406 110.746094 226.941406 C 110.429688 226.941406 110.074219 226.902344 109.714844 226.824219 Z M 159.75 244.1875 C 159.75 244.1875 156.496094 243.871094 154.753906 244.027344 L 146.347656 244.703125 C 145.871094 244.742188 145.398438 244.78125 144.882812 244.78125 C 143.890625 244.78125 142.898438 244.621094 142.066406 244.109375 C 140.441406 245.21875 138.457031 245.8125 136.515625 245.8125 C 136 245.8125 135.445312 245.773438 134.929688 245.695312 C 134.019531 246.050781 132.988281 246.289062 131.839844 246.289062 C 131.601562 246.289062 131.363281 246.289062 131.125 246.25 C 130.808594 246.289062 128.984375 246.484375 126.25 246.289062 C 125.257812 246.207031 124.304688 246.089844 123.273438 245.929688 C 121.214844 245.652344 118.835938 245.296875 115.820312 245.414062 C 113.203125 245.496094 111.617188 247.199219 110.90625 248.191406 C 109.914062 249.578125 109.199219 251.839844 109.199219 251.839844 C 108.921875 250.886719 109.398438 249.261719 110.429688 247.875 C 111.222656 246.765625 112.96875 244.941406 115.820312 244.820312 C 118.875 244.703125 121.253906 245.058594 123.355469 245.375 C 124.386719 245.535156 125.335938 245.652344 126.289062 245.734375 C 127.277344 245.8125 128.113281 245.8125 128.863281 245.8125 C 118.238281 242.480469 113.324219 237.527344 113.324219 237.527344 C 117.050781 240.101562 123.472656 243.75 129.5 245.414062 C 135.761719 247.160156 139.332031 241.53125 140.003906 240.382812 C 140.441406 239.628906 146.308594 232.054688 146.308594 232.054688 C 145.515625 234.277344 142.027344 238.042969 140.519531 240.699219 C 140.085938 241.410156 138.578125 243.871094 135.960938 245.296875 C 138.101562 245.457031 140.242188 244.859375 141.988281 243.59375 C 142.742188 243.078125 143.414062 242.402344 144.089844 241.769531 C 144.40625 241.453125 144.722656 241.175781 145.078125 240.855469 C 146.824219 239.308594 151.183594 237.683594 151.183594 237.683594 C 149.082031 238.558594 147.140625 239.785156 145.476562 241.292969 C 145.160156 241.570312 144.839844 241.886719 144.523438 242.203125 C 143.929688 242.757812 143.335938 243.316406 142.699219 243.828125 C 143.730469 244.34375 145.039062 244.304688 146.386719 244.1875 L 154.792969 243.511719 C 156.578125 243.273438 158.320312 243.195312 159.75 244.1875 Z M 160.027344 214.375 C 160.5 217.546875 159.828125 220.757812 158.796875 223.808594 C 157.25 228.488281 154.316406 229.359375 154.316406 229.359375 C 156.378906 227.378906 157.925781 224.839844 158.796875 222.105469 C 159.550781 219.6875 160.027344 214.375 160.027344 214.375 Z M 176.242188 240.738281 C 178.0625 244.703125 179.53125 248.746094 178.105469 251.480469 C 178.105469 251.480469 177.46875 244.78125 175.726562 240.976562 C 174.496094 238.28125 174.496094 233.601562 174.535156 229.519531 C 174.535156 226.863281 174.773438 222.816406 174.773438 222.816406 C 175.171875 224.207031 175.171875 226.664062 175.128906 229.519531 C 175.050781 233.5625 175.050781 238.121094 176.242188 240.738281 Z M 112.332031 248.585938 C 112.332031 248.585938 110.746094 251.402344 110.824219 252.871094 L 110.230469 252.910156 C 110.152344 251.203125 110.984375 249.539062 112.332031 248.585938 Z M 94.332031 249.222656 C 94.691406 248.46875 95.246094 247.875 95.761719 247.277344 C 95.761719 247.277344 95.207031 248.824219 94.890625 249.5 C 94.53125 250.214844 94.453125 250.964844 94.691406 251.5625 L 94.136719 251.757812 C 93.859375 251.003906 93.9375 250.09375 94.332031 249.222656 Z M 101.3125 247.476562 C 101.3125 247.476562 99.765625 250.171875 99.84375 251.5625 L 99.25 251.601562 C 99.171875 250.015625 100.003906 248.390625 101.3125 247.476562 Z M 138.65625 203.789062 C 138.65625 203.789062 138.617188 203.628906 139.449219 203.390625 C 138.894531 206.484375 136.753906 207.910156 136.753906 207.910156 C 137.746094 206.722656 138.417969 205.253906 138.695312 203.710938 C 138.65625 203.75 138.65625 203.789062 138.65625 203.789062 Z M 227.738281 246.882812 C 227.738281 246.882812 222.269531 246.605469 219.613281 246.644531 C 219.253906 246.644531 218.9375 246.644531 218.582031 246.644531 C 216.164062 246.683594 213.664062 246.605469 211.246094 246.011719 C 210.414062 246.644531 209.34375 246.722656 208.273438 246.804688 C 208.117188 246.804688 207.996094 246.84375 207.835938 246.84375 C 206.808594 246.921875 206.054688 247.121094 205.417969 247.398438 C 204.625 247.792969 204.03125 248.347656 203.714844 249.023438 C 203.398438 249.777344 203.476562 251.5625 203.476562 251.5625 C 202.882812 250.808594 202.761719 249.738281 203.160156 248.785156 C 203.515625 247.992188 204.230469 247.277344 205.140625 246.84375 C 205.855469 246.484375 206.6875 246.289062 207.796875 246.207031 C 207.957031 246.207031 208.074219 246.167969 208.234375 246.167969 C 209.027344 246.128906 209.820312 246.050781 210.453125 245.773438 C 209.820312 245.574219 209.1875 245.335938 208.550781 245.058594 C 204.863281 243.355469 201.929688 239.867188 200.503906 235.542969 C 199.273438 231.816406 199.117188 227.613281 200.066406 222.976562 C 200.066406 222.976562 199.871094 231.738281 201.058594 235.347656 C 202.445312 239.507812 205.261719 242.839844 208.789062 244.503906 C 211.84375 245.929688 215.292969 246.089844 218.542969 246.011719 C 218.898438 246.011719 219.214844 246.011719 219.574219 246.011719 C 222.308594 246.011719 225.125 245.972656 227.738281 246.882812 Z M 206.132812 248.945312 C 205.738281 249.140625 205.378906 249.460938 205.222656 249.894531 C 205.0625 250.332031 205.140625 250.925781 205.300781 251.363281 L 204.667969 251.402344 C 204.46875 250.847656 204.429688 250.253906 204.667969 249.699219 C 204.902344 249.101562 206.132812 248.945312 206.132812 248.945312 Z M 208.074219 249.261719 C 207.601562 249.738281 207.28125 250.609375 207.402344 251.285156 L 206.847656 251.324219 C 206.6875 250.449219 208.074219 249.261719 208.074219 249.261719 Z M 242.132812 244.265625 C 241.734375 246.722656 239.832031 248.90625 237.453125 249.617188 C 237.453125 249.617188 241.179688 246.40625 241.535156 244.148438 C 241.734375 242.996094 241.617188 241.6875 241.140625 240.101562 C 240.980469 239.507812 240.703125 238.714844 240.269531 238.082031 C 240.070312 237.765625 239.792969 237.488281 239.554688 237.167969 C 239.433594 237.011719 239.277344 236.851562 239.15625 236.695312 C 238.601562 236.019531 238.167969 235.304688 237.730469 234.59375 C 237.492188 234.234375 237.253906 233.839844 237.015625 233.484375 C 235.3125 230.945312 232.972656 228.882812 230.714844 226.902344 C 230.117188 226.347656 228.96875 224.917969 228.96875 224.917969 C 229.761719 225.316406 230.4375 225.871094 231.070312 226.464844 C 233.371094 228.488281 235.75 230.550781 237.453125 233.164062 C 237.691406 233.523438 237.929688 233.917969 238.167969 234.316406 C 238.601562 235.027344 239.039062 235.742188 239.554688 236.375 C 239.671875 236.535156 239.792969 236.695312 239.949219 236.8125 C 240.226562 237.128906 240.464844 237.40625 240.703125 237.765625 C 241.179688 238.476562 241.457031 239.308594 241.65625 239.945312 C 242.210938 241.609375 242.367188 242.996094 242.132812 244.265625 Z M 235.789062 229.914062 C 235.789062 229.914062 235.75 227.773438 235.628906 226.824219 L 236.222656 226.742188 C 236.382812 227.8125 236.222656 228.921875 235.789062 229.914062 Z M 162.917969 206.207031 C 162.917969 206.207031 164.464844 211.320312 164.148438 213.9375 C 164.070312 214.570312 163.910156 215.484375 163.15625 215.839844 C 163.15625 215.839844 163.476562 214.375 163.554688 213.859375 C 163.871094 211.320312 163.632812 208.664062 162.917969 206.207031 Z M 210.535156 210.804688 C 209.703125 211.003906 208.789062 211.441406 207.878906 211.957031 C 215.847656 209.617188 222.347656 212.867188 222.347656 212.867188 C 218.183594 211.28125 209.660156 211.957031 207.519531 212.191406 C 204.46875 214.097656 201.375 217.1875 201.375 217.1875 C 204.347656 211.359375 210.535156 210.804688 210.535156 210.804688 Z M 186.390625 211.914062 C 186.074219 211.519531 185.4375 210.488281 185.4375 210.488281 C 185.914062 210.765625 186.429688 211.082031 186.824219 211.519531 C 187.300781 212.074219 187.460938 212.75 187.300781 213.34375 C 187.300781 213.34375 186.628906 212.234375 186.390625 211.914062 Z M 192.21875 235.148438 C 192.851562 235.863281 193.328125 236.695312 193.644531 237.566406 L 193.089844 237.765625 C 192.773438 236.933594 192.21875 235.148438 192.21875 235.148438 Z M 198.402344 194.789062 C 198.402344 195.699219 197.171875 203.074219 190.832031 208.941406 C 190.832031 208.941406 189.679688 210.488281 189.640625 210.488281 C 189.640625 210.488281 189.957031 208.941406 192.179688 205.296875 C 194.398438 201.648438 196.855469 197.207031 196.816406 194.671875 C 196.777344 192.132812 194.792969 189.515625 191.742188 188.566406 C 189.085938 187.773438 180.878906 185.632812 177.390625 184.878906 C 176.480469 187.058594 175.566406 187.574219 175.566406 187.574219 C 176.121094 186.703125 176.558594 185.75 176.875 184.757812 C 176.558594 184.679688 176.28125 184.640625 176.121094 184.601562 C 174.019531 184.28125 167.28125 182.300781 162.917969 180.238281 C 160.222656 178.96875 157.566406 177.703125 155.625 176.828125 C 153.761719 178.96875 151.820312 181.625 151.820312 181.625 C 152.691406 180 153.761719 178.21875 155.109375 176.59375 C 154.199219 176.15625 153.484375 175.839844 153.046875 175.679688 C 151.699219 175.125 151.859375 174.609375 151.859375 174.609375 L 152.492188 173.261719 C 152.769531 173.101562 153.007812 173.0625 153.5625 173.539062 C 153.800781 173.738281 154.992188 174.410156 156.378906 175.164062 C 156.535156 175.007812 156.65625 174.886719 156.816406 174.730469 C 157.09375 174.492188 157.328125 174.253906 157.609375 174.054688 C 157.964844 173.738281 158.320312 173.460938 158.636719 173.144531 C 160.421875 171.398438 161.570312 169.136719 162.683594 166.917969 C 162.523438 166.324219 162.167969 165.769531 161.808594 165.214844 C 161.652344 164.976562 161.492188 164.738281 161.375 164.539062 C 161.214844 164.261719 161.054688 163.945312 160.9375 163.667969 L 160.222656 162.160156 L 160.265625 160.8125 L 161.175781 162.796875 L 163.515625 160.773438 C 163.554688 160.734375 163.632812 160.65625 163.632812 160.613281 C 163.632812 160.535156 163.59375 160.417969 163.59375 160.335938 C 162.640625 157.601562 160.738281 152.050781 160.738281 152.050781 C 162.046875 154.667969 163.199219 157.402344 164.148438 160.140625 C 164.1875 160.296875 164.269531 160.535156 164.1875 160.773438 C 164.109375 160.972656 163.992188 161.089844 163.871094 161.167969 L 161.375 163.3125 L 161.414062 163.351562 C 161.53125 163.628906 161.691406 163.90625 161.847656 164.183594 C 161.96875 164.421875 162.128906 164.617188 162.246094 164.855469 C 162.640625 165.492188 163.078125 166.164062 163.238281 166.878906 L 163.238281 166.996094 L 163.199219 167.078125 C 162.046875 169.375 160.859375 171.714844 158.957031 173.539062 C 158.597656 173.855469 158.242188 174.171875 157.886719 174.492188 C 157.609375 174.730469 157.371094 174.925781 157.09375 175.164062 C 157.011719 175.242188 156.894531 175.363281 156.773438 175.441406 C 158.519531 176.355469 160.460938 177.34375 161.453125 177.742188 C 163.117188 178.414062 168.46875 181.230469 172.910156 182.539062 C 169.023438 179.921875 167.003906 175.878906 165.417969 172.429688 C 163.632812 168.464844 162.960938 164.9375 163.277344 164.539062 C 163.277344 164.539062 164.109375 163.984375 164.503906 164.105469 C 164.902344 164.222656 165.417969 164.578125 165.617188 165.292969 C 165.8125 165.96875 167.003906 172.429688 169.105469 175.957031 C 170.808594 178.851562 174.65625 182.183594 176.003906 183.292969 C 176.359375 183.371094 176.757812 183.449219 177.113281 183.53125 C 177.390625 182.539062 177.589844 181.507812 177.785156 180.476562 C 177.984375 179.40625 178.816406 177.34375 178.816406 177.34375 C 178.539062 178.375 178.578125 179.527344 178.382812 180.597656 C 178.183594 181.785156 177.945312 182.816406 177.667969 183.648438 C 181.75 184.519531 186.390625 185.511719 190.117188 186.582031 C 194.953125 187.96875 198.441406 189.914062 198.402344 194.789062 Z M 137.945312 165.332031 L 138.222656 165.214844 L 138.457031 165.054688 C 138.738281 165.371094 143.96875 169.457031 151.222656 170.882812 L 151.105469 171.476562 C 143.769531 170.011719 138.140625 165.769531 137.945312 165.332031 Z M 152.691406 152.328125 C 152.175781 152.644531 151.222656 152.6875 151.222656 152.6875 C 153.285156 151.019531 154.714844 149.195312 155.824219 146.777344 C 155.863281 147.253906 156.21875 147.929688 156.0625 148.523438 C 154.632812 151.019531 153.207031 152.050781 152.691406 152.328125 Z M 138.578125 160.296875 C 139.09375 160.058594 143.769531 158.078125 146.109375 156.015625 C 146.109375 156.015625 145.792969 157.125 145.121094 157.761719 C 144.445312 158.355469 141.433594 160.140625 140.519531 160.417969 C 139.648438 160.65625 138.578125 160.296875 138.578125 160.296875 Z M 155.464844 152.488281 C 155.386719 152.765625 155.230469 153.082031 154.953125 153.160156 C 154.832031 153.203125 154.671875 153.203125 154.554688 153.160156 C 154.117188 153.082031 154 152.6875 153.839844 152.25 C 154.394531 151.933594 154.832031 151.457031 155.109375 150.902344 C 155.425781 151.417969 155.625 151.894531 155.464844 152.488281 Z M 144.761719 158.710938 C 144.960938 159.226562 145.039062 159.863281 144.882812 160.378906 C 144.839844 160.535156 144.761719 160.695312 144.644531 160.8125 C 144.40625 160.972656 144.089844 160.890625 143.851562 160.773438 C 143.492188 160.613281 143.257812 160.296875 143.019531 159.980469 C 143.691406 159.742188 144.328125 159.304688 144.761719 158.710938 Z M 152.453125 166.800781 C 152.453125 166.800781 154.515625 166.402344 155.785156 165.253906 C 156.578125 164.539062 157.488281 161.921875 157.488281 161.921875 C 157.527344 163.589844 157.09375 164.855469 156.179688 165.6875 C 155.109375 166.679688 153.683594 166.800781 152.929688 166.800781 C 152.652344 166.800781 152.453125 166.800781 152.453125 166.800781 Z M 152.808594 199.785156 C 152.808594 200.617188 152.769531 201.488281 152.808594 202.320312 C 152.808594 202.359375 152.808594 202.441406 152.808594 202.480469 C 152.613281 202.480469 152.414062 202.480469 152.214844 202.441406 C 152.214844 202.402344 152.214844 202.359375 152.214844 202.320312 C 152.175781 201.449219 152.214844 200.578125 152.214844 199.746094 C 152.253906 198.316406 152.253906 196.96875 152.097656 195.621094 C 151.660156 192.527344 150.945312 189.316406 149.957031 185.789062 C 149.796875 185.234375 149.640625 184.601562 149.640625 183.925781 C 149.640625 183.371094 149.757812 182.855469 149.875 182.339844 C 149.996094 181.824219 150.074219 181.308594 150.195312 180.792969 C 150.273438 180.277344 150.667969 179.84375 150.789062 179.289062 C 150.789062 179.289062 150.867188 180.398438 150.789062 180.875 C 150.710938 181.390625 150.589844 181.902344 150.472656 182.417969 C 150.351562 182.894531 150.234375 183.410156 150.234375 183.886719 C 150.234375 184.480469 150.390625 185.074219 150.550781 185.589844 C 151.542969 189.160156 152.253906 192.410156 152.691406 195.503906 C 152.851562 196.929688 152.851562 198.398438 152.808594 199.785156 Z M 152.808594 199.785156 " fill-opacity="1" fill-rule="nonzero"/><path fill="#917b62" d="M 181.949219 239.785156 C 180.523438 238.160156 180.878906 236.097656 181.511719 234.832031 C 181.949219 235.425781 182.464844 235.941406 182.464844 235.941406 C 182.464844 235.941406 182.386719 237.527344 182.148438 238.199219 C 182.027344 238.476562 181.910156 239.113281 181.949219 239.785156 Z M 130.964844 157.441406 C 129.65625 158.871094 128.707031 162.597656 130.609375 164.617188 C 132.828125 166.996094 138.140625 168.109375 140.601562 169.019531 C 143.058594 169.929688 151.78125 174.648438 151.78125 174.648438 C 152.058594 173.976562 152.414062 173.300781 152.414062 173.300781 C 150.351562 171.953125 140.320312 167.832031 137.269531 166.878906 C 134.21875 165.925781 132.074219 164.738281 131.519531 164.023438 C 129.101562 160.851562 131.125 158.75 131.441406 158.394531 C 131.402344 158.039062 130.964844 157.441406 130.964844 157.441406 Z M 155.980469 141.941406 C 156.535156 141.824219 159.984375 142.21875 160.738281 145.390625 C 161.492188 148.5625 160.898438 152.410156 161.652344 156.492188 C 162.40625 160.574219 163.433594 164.660156 163.433594 164.660156 C 163.433594 164.660156 163.910156 164.300781 164.664062 164.222656 C 164.664062 164.222656 163.277344 159.585938 162.640625 156.09375 C 162.046875 152.605469 162.167969 147.214844 161.652344 144.996094 C 161.136719 142.773438 158.757812 140.714844 155.425781 140.832031 Z M 155.980469 141.941406 " fill-opacity="1" fill-rule="nonzero"/></svg>