<svg xmlns="http://www.w3.org/2000/svg" xmlns:xlink="http://www.w3.org/1999/xlink" width="500" zoomAndPan="magnify" viewBox="0 0 375 374.999991" height="500" preserveAspectRatio="xMidYMid meet" version="1.0"><defs><clipPath id="2f791bef7c"><path d="M 97.449219 116.277344 L 277.449219 116.277344 L 277.449219 258.777344 L 97.449219 258.777344 Z M 97.449219 116.277344 " clip-rule="nonzero"/></clipPath><clipPath id="01da451168"><path d="M 104 218 L 272 218 L 272 258.777344 L 104 258.777344 Z M 104 218 " clip-rule="nonzero"/></clipPath><clipPath id="8ef301e9c1"><path d="M 99 116.277344 L 277.449219 116.277344 L 277.449219 251 L 99 251 Z M 99 116.277344 " clip-rule="nonzero"/></clipPath><clipPath id="75950b3e42"><path d="M 97.449219 117 L 257 117 L 257 258.777344 L 97.449219 258.777344 Z M 97.449219 117 " clip-rule="nonzero"/></clipPath><clipPath id="05535c19e4"><path d="M 122 165 L 272 165 L 272 258.777344 L 122 258.777344 Z M 122 165 " clip-rule="nonzero"/></clipPath></defs><g clip-path="url(#2f791bef7c)"><path fill="#d89371" d="M 256.71875 243.640625 L 256.71875 258.164062 L 245.980469 258.164062 L 245.980469 243.640625 C 245.980469 242.757812 246.695312 242.042969 247.578125 242.042969 C 247.960938 242.042969 248.269531 241.734375 248.269531 241.351562 L 248.269531 240.792969 L 247.34375 240.792969 L 247.34375 238.761719 C 247.34375 238.464844 247.585938 238.226562 247.875 238.226562 L 254.808594 238.226562 C 255.105469 238.226562 255.339844 238.46875 255.339844 238.761719 L 255.339844 240.792969 L 254.414062 240.792969 L 254.414062 241.351562 C 254.414062 241.734375 254.722656 242.042969 255.105469 242.042969 C 256.003906 242.042969 256.71875 242.757812 256.71875 243.640625 Z M 166.535156 159.496094 L 174.027344 159.496094 C 174.339844 159.496094 174.589844 159.242188 174.589844 158.933594 L 192.578125 158.933594 C 192.578125 159.242188 192.832031 159.496094 193.140625 159.496094 L 195.011719 159.496094 C 199.015625 159.496094 202.261719 156.242188 202.261719 152.246094 L 202.261719 123.757812 C 202.261719 119.761719 199.007812 116.507812 195.011719 116.507812 L 166.53125 116.507812 C 162.535156 116.507812 159.28125 119.761719 159.28125 123.757812 L 159.28125 134.605469 C 159.28125 134.914062 159.53125 135.167969 159.84375 135.167969 L 159.84375 139.710938 C 159.53125 139.710938 159.28125 139.964844 159.28125 140.273438 L 159.28125 152.238281 C 159.285156 156.242188 162.535156 159.496094 166.535156 159.496094 Z M 269.644531 177.207031 L 260.34375 177.207031 C 260.34375 176.898438 260.089844 176.644531 259.78125 176.644531 L 257.253906 176.644531 C 257.015625 176.003906 256.730469 175.386719 256.410156 174.796875 L 253.476562 158.929688 C 253.476562 158.929688 248.871094 161.324219 247.617188 166.511719 C 247.386719 166.460938 247.140625 166.554688 247.011719 166.769531 C 246.992188 166.796875 246.988281 166.832031 246.976562 166.859375 C 246.078125 166.542969 245.109375 166.292969 244.058594 166.132812 C 242.902344 165.960938 241.632812 165.910156 240.265625 165.984375 C 236.730469 159.761719 226.988281 158.929688 224.582031 158.929688 L 227.105469 181.472656 C 226.886719 183.210938 226.875 184.339844 226.875 184.429688 C 226.875 184.515625 226.894531 184.585938 226.925781 184.660156 L 213.363281 190.601562 C 213.363281 190.601562 204.34375 189.074219 193.125 187.753906 L 193.125 175.609375 C 193.125 174.289062 192.054688 173.222656 190.734375 173.222656 L 99.839844 173.222656 C 98.519531 173.222656 97.449219 174.289062 97.449219 175.609375 L 97.449219 238.3125 C 97.449219 239.632812 98.519531 240.699219 99.839844 240.699219 L 137.121094 240.699219 L 137.121094 250.414062 L 132.542969 250.414062 C 132.230469 250.414062 131.980469 250.667969 131.980469 250.976562 L 128.332031 250.976562 L 124.339844 258.46875 L 166.238281 258.46875 L 162.246094 250.976562 L 161.257812 250.976562 C 161.257812 250.667969 161.003906 250.414062 160.695312 250.414062 L 155.0625 250.414062 L 154.050781 249.441406 L 156.445312 240.699219 L 164.742188 240.699219 L 164.765625 240.847656 L 164.792969 240.847656 L 167.136719 254.71875 L 179.898438 254.71875 L 174.398438 249.441406 L 175.582031 240.847656 L 175.601562 240.847656 L 175.625 240.699219 L 190.746094 240.699219 C 192.066406 240.699219 193.132812 239.632812 193.132812 238.3125 L 193.132812 228.4375 L 203.246094 230.972656 L 206.199219 254.726562 L 218.957031 254.726562 L 213.460938 249.445312 L 216.867188 232.277344 C 217.390625 232.164062 217.90625 232.035156 218.421875 231.875 C 218.496094 232.117188 218.722656 232.277344 218.960938 232.277344 C 219.011719 232.277344 219.070312 232.269531 219.125 232.253906 C 219.992188 231.996094 220.828125 231.644531 221.648438 231.214844 L 225.414062 253.535156 L 238.175781 253.535156 L 232.675781 248.253906 L 234.414062 217.347656 C 235.167969 216.046875 235.613281 215.164062 235.683594 215.023438 C 235.8125 214.765625 235.71875 214.46875 235.484375 214.3125 L 244.988281 199.78125 C 244.988281 199.78125 258.226562 202.660156 267.359375 198.667969 C 272.164062 196.570312 274.734375 190.742188 276.082031 185.6875 C 277.308594 181.128906 277.542969 177.207031 277.542969 177.207031 Z M 269.71875 242.042969 C 269.335938 242.042969 269.027344 241.734375 269.027344 241.351562 L 269.027344 240.792969 L 269.957031 240.792969 L 269.957031 238.761719 C 269.957031 238.464844 269.714844 238.226562 269.421875 238.226562 L 262.492188 238.226562 C 262.191406 238.226562 261.957031 238.46875 261.957031 238.761719 L 261.957031 240.792969 L 262.878906 240.792969 L 262.878906 241.351562 C 262.878906 241.734375 262.570312 242.042969 262.1875 242.042969 C 261.304688 242.042969 260.589844 242.757812 260.589844 243.640625 L 260.589844 258.164062 L 271.328125 258.164062 L 271.328125 243.640625 C 271.316406 242.757812 270.601562 242.042969 269.71875 242.042969 Z M 269.71875 242.042969 " fill-opacity="1" fill-rule="nonzero"/></g><g clip-path="url(#01da451168)"><path fill="#7ed6d9" d="M 118.546875 219.566406 C 118.546875 220.183594 118.039062 220.691406 117.421875 220.691406 L 105.859375 220.691406 C 105.242188 220.691406 104.734375 220.183594 104.734375 219.566406 C 104.734375 218.949219 105.242188 218.441406 105.859375 218.441406 L 117.421875 218.441406 C 118.039062 218.441406 118.546875 218.941406 118.546875 219.566406 Z M 245.988281 258.164062 L 256.722656 258.164062 L 256.722656 254.71875 L 245.988281 254.71875 Z M 117.421875 222.765625 L 105.859375 222.765625 C 105.242188 222.765625 104.734375 223.269531 104.734375 223.890625 C 104.734375 224.507812 105.242188 225.011719 105.859375 225.011719 L 117.421875 225.011719 C 118.039062 225.011719 118.546875 224.507812 118.546875 223.890625 C 118.546875 223.269531 118.039062 222.765625 117.421875 222.765625 Z M 262.984375 246.007812 L 262.984375 249.90625 C 262.984375 250.21875 262.734375 250.46875 262.421875 250.46875 C 262.113281 250.46875 261.863281 250.21875 261.863281 249.90625 L 261.863281 246.007812 L 260.578125 246.007812 L 260.578125 254.726562 L 271.316406 254.726562 L 271.316406 246.007812 Z M 255.121094 242.042969 C 254.738281 242.042969 254.429688 241.734375 254.429688 241.351562 L 254.429688 240.792969 L 248.28125 240.792969 L 248.28125 241.351562 C 248.28125 241.734375 247.972656 242.042969 247.589844 242.042969 C 246.707031 242.042969 245.992188 242.757812 245.992188 243.640625 L 245.992188 246 L 247.273438 246 L 247.273438 244.707031 C 247.273438 244.398438 247.527344 244.148438 247.835938 244.148438 C 248.144531 244.148438 248.398438 244.398438 248.398438 244.707031 L 248.398438 246 L 256.730469 246 L 256.730469 243.640625 C 256.71875 242.757812 256.003906 242.042969 255.121094 242.042969 Z M 255.121094 242.042969 " fill-opacity="1" fill-rule="nonzero"/></g><path fill="#d89371" d="M 227.113281 181.480469 L 224.589844 158.933594 C 227 158.933594 236.734375 159.765625 240.269531 165.988281 C 239.585938 166.027344 238.890625 166.082031 238.152344 166.191406 C 233.707031 166.847656 231.109375 170.179688 229.589844 173.816406 C 229.582031 173.8125 229.574219 173.808594 229.570312 173.808594 C 229.277344 173.699219 228.957031 173.855469 228.851562 174.148438 C 227.84375 176.972656 227.355469 179.585938 227.113281 181.480469 Z M 153.449219 240.699219 L 153.449219 250.414062 L 155.0625 250.414062 L 154.050781 249.441406 L 156.445312 240.699219 Z M 175.574219 240.847656 L 164.800781 240.847656 L 167.144531 254.71875 L 179.902344 254.71875 L 174.40625 249.441406 Z M 276.058594 185.6875 C 274.710938 190.742188 272.140625 196.570312 267.335938 198.667969 C 258.203125 202.660156 244.964844 199.78125 244.964844 199.78125 L 235.460938 214.3125 C 235.441406 214.300781 235.425781 214.28125 235.410156 214.273438 C 235.132812 214.132812 234.792969 214.25 234.65625 214.523438 C 234.589844 214.664062 227.613281 228.546875 218.789062 231.171875 C 218.492188 231.261719 218.320312 231.574219 218.410156 231.871094 C 218.410156 231.871094 218.410156 231.871094 218.410156 231.875 C 217.898438 232.027344 217.382812 232.164062 216.855469 232.277344 L 213.449219 249.445312 L 218.945312 254.726562 L 206.1875 254.726562 L 203.234375 230.972656 L 193.125 228.4375 L 193.125 187.757812 C 204.34375 189.074219 213.363281 190.609375 213.363281 190.609375 L 226.925781 184.667969 C 227.015625 184.863281 227.207031 184.996094 227.4375 185.003906 C 227.546875 185.003906 227.640625 184.964844 227.726562 184.914062 C 231.941406 187.921875 238.316406 191.53125 242.621094 189.617188 C 249.226562 186.679688 250.535156 179.847656 244.058594 166.144531 C 245.109375 166.304688 246.078125 166.554688 246.976562 166.871094 C 246.886719 167.125 246.976562 167.410156 247.214844 167.546875 C 249.898438 169.097656 254.660156 172.433594 256.3125 177.386719 C 256.390625 177.617188 256.605469 177.769531 256.847656 177.769531 L 259.777344 177.769531 C 260.085938 177.769531 260.339844 177.515625 260.339844 177.207031 L 269.640625 177.207031 L 269.257812 180.546875 C 269.113281 181.816406 269.820312 183.03125 270.996094 183.53125 Z M 227.960938 204.152344 C 227.078125 200.34375 222.058594 194.894531 207.261719 196.234375 C 197.550781 197.117188 193.027344 205.667969 201.105469 212.152344 C 209.183594 218.640625 213.59375 209.578125 218.34375 209.871094 C 223.09375 210.167969 228.84375 207.96875 227.960938 204.152344 Z M 258.90625 193.0625 C 258.78125 192.777344 258.457031 192.640625 258.167969 192.765625 C 258.128906 192.78125 254.507812 194.273438 251.292969 191.257812 C 251.070312 191.046875 250.710938 191.058594 250.5 191.289062 C 250.289062 191.511719 250.300781 191.871094 250.53125 192.082031 C 252.402344 193.835938 254.378906 194.285156 255.914062 194.285156 C 257.441406 194.285156 258.527344 193.839844 258.613281 193.800781 C 258.894531 193.675781 259.027344 193.34375 258.90625 193.0625 Z M 234.390625 217.339844 C 232.246094 221.035156 227.550781 228.109375 221.625 231.207031 L 225.394531 253.527344 L 238.152344 253.527344 L 232.65625 248.25 Z M 256.410156 174.800781 L 253.476562 158.933594 C 253.476562 158.933594 248.871094 161.328125 247.617188 166.515625 C 247.675781 166.527344 247.730469 166.539062 247.78125 166.574219 C 250.191406 167.960938 254.183594 170.726562 256.410156 174.800781 Z M 153.332031 222.601562 C 152.714844 222.496094 152.140625 222.910156 152.035156 223.523438 L 150.652344 231.714844 L 152.933594 231.714844 L 154.253906 223.898438 C 154.355469 223.28125 153.945312 222.703125 153.332031 222.601562 Z M 169.402344 222.523438 C 169.359375 221.90625 168.820312 221.433594 168.199219 221.484375 C 167.582031 221.527344 167.117188 222.066406 167.160156 222.6875 L 167.828125 231.703125 L 170.082031 231.703125 Z M 186.339844 194.097656 C 186.203125 193.492188 185.597656 193.113281 184.996094 193.25 C 184.386719 193.382812 184.011719 193.984375 184.148438 194.59375 L 184.765625 197.339844 L 180.78125 197.039062 L 180.117188 194.097656 C 179.980469 193.492188 179.375 193.113281 178.773438 193.25 C 178.167969 193.382812 177.789062 193.984375 177.925781 194.59375 L 178.4375 196.863281 L 174.449219 196.558594 L 173.894531 194.097656 C 173.757812 193.492188 173.152344 193.113281 172.550781 193.25 C 171.945312 193.382812 171.566406 193.984375 171.703125 194.59375 L 172.105469 196.386719 L 162.753906 195.675781 C 161.152344 193.191406 158.050781 192.023438 155.152344 192.945312 C 150.820312 194.324219 147.875 198.351562 147.875 202.90625 L 147.875 208.949219 C 147.875 210.335938 148.84375 211.535156 150.191406 211.832031 L 154.089844 212.6875 C 155.363281 212.96875 156.660156 212.378906 157.296875 211.246094 L 159.375 207.53125 C 159.953125 206.496094 161.09375 205.90625 162.277344 206.042969 L 162.6875 206.085938 C 164.96875 206.339844 166.65625 204.007812 165.691406 201.921875 C 165.125 200.691406 164.5 199.34375 163.898438 198.027344 L 172.617188 198.683594 L 173.457031 202.40625 C 173.574219 202.929688 174.039062 203.28125 174.550781 203.28125 C 174.636719 203.28125 174.714844 203.273438 174.800781 203.253906 C 175.40625 203.121094 175.78125 202.519531 175.648438 201.910156 L 174.960938 198.859375 L 178.949219 199.164062 L 179.679688 202.40625 C 179.796875 202.929688 180.261719 203.28125 180.773438 203.28125 C 180.859375 203.28125 180.9375 203.273438 181.023438 203.253906 C 181.628906 203.121094 182.003906 202.519531 181.871094 201.910156 L 181.292969 199.335938 L 185.277344 199.640625 L 185.902344 202.40625 C 186.019531 202.929688 186.484375 203.28125 186.996094 203.28125 C 187.082031 203.28125 187.160156 203.273438 187.242188 203.253906 C 187.851562 203.121094 188.226562 202.519531 188.09375 201.910156 L 187.621094 199.816406 L 190.875 200.0625 L 190.875 197.808594 L 187.101562 197.519531 Z M 183.933594 134.28125 L 183.933594 129.867188 C 183.933594 129.558594 184.1875 129.304688 184.496094 129.304688 L 184.496094 125.847656 L 177.621094 125.847656 L 177.621094 134.28125 C 177.621094 134.589844 177.367188 134.84375 177.058594 134.84375 L 168.628906 134.84375 L 168.628906 141.15625 L 177.058594 141.15625 C 177.367188 141.15625 177.621094 141.40625 177.621094 141.71875 L 177.621094 150.148438 L 183.933594 150.148438 L 183.933594 148.367188 C 183.933594 148.058594 184.1875 147.804688 184.496094 147.804688 L 184.496094 144.554688 C 184.1875 144.554688 183.933594 144.300781 183.933594 143.992188 L 183.933594 141.71875 C 183.933594 141.40625 184.1875 141.15625 184.496094 141.15625 L 192.925781 141.15625 L 192.925781 134.84375 L 184.496094 134.84375 C 184.1875 134.84375 183.933594 134.59375 183.933594 134.28125 Z M 183.933594 134.28125 " fill-opacity="1" fill-rule="nonzero"/><g clip-path="url(#8ef301e9c1)"><path fill="#0a364e" d="M 137.128906 240.699219 L 153.457031 240.699219 L 153.457031 250.414062 L 137.128906 250.414062 Z M 190.878906 175.617188 L 190.878906 187.582031 C 179.019531 186.199219 163.367188 185.519531 156.59375 186.761719 C 153.78125 187.28125 151.511719 188.3125 149.664062 189.703125 C 137.960938 194.636719 122.789062 194.074219 122.789062 194.074219 C 122.789062 194.074219 125.425781 207.566406 142.46875 203.113281 C 141.570312 208.171875 141.769531 213.085938 141.777344 215.722656 C 141.789062 219.207031 142.75 226.136719 143.613281 231.714844 L 99.699219 231.714844 L 99.699219 175.621094 C 99.699219 175.542969 99.761719 175.480469 99.839844 175.480469 L 190.734375 175.480469 C 190.820312 175.46875 190.878906 175.539062 190.878906 175.617188 Z M 118.546875 223.890625 C 118.546875 223.269531 118.039062 222.765625 117.421875 222.765625 L 105.859375 222.765625 C 105.242188 222.765625 104.734375 223.269531 104.734375 223.890625 C 104.734375 224.507812 105.242188 225.011719 105.859375 225.011719 L 117.421875 225.011719 C 118.039062 225.011719 118.546875 224.511719 118.546875 223.890625 Z M 118.546875 219.566406 C 118.546875 218.949219 118.039062 218.441406 117.421875 218.441406 L 105.859375 218.441406 C 105.242188 218.441406 104.734375 218.949219 104.734375 219.566406 C 104.734375 220.183594 105.242188 220.691406 105.859375 220.691406 L 117.421875 220.691406 C 118.039062 220.691406 118.546875 220.183594 118.546875 219.566406 Z M 176.851562 231.707031 L 190.878906 231.707031 L 190.878906 227.875 L 177.816406 224.640625 Z M 158.832031 231.707031 L 163.230469 231.707031 L 161.601562 222.046875 Z M 269.644531 177.207031 L 269.265625 180.546875 C 269.117188 181.816406 269.828125 183.03125 271 183.53125 L 276.058594 185.6875 C 277.285156 181.128906 277.519531 177.207031 277.519531 177.207031 Z M 239.625 175.800781 C 236.882812 175.976562 236.683594 179.558594 236.679688 179.707031 C 236.664062 180.019531 236.90625 180.28125 237.214844 180.292969 C 237.21875 180.292969 237.230469 180.292969 237.242188 180.292969 C 237.539062 180.292969 237.785156 180.058594 237.804688 179.757812 C 237.804688 179.730469 237.949219 177.03125 239.699219 176.921875 C 241.40625 176.8125 241.664062 179.75 241.664062 179.78125 C 241.695312 180.089844 241.96875 180.316406 242.273438 180.292969 C 242.582031 180.265625 242.8125 179.996094 242.785156 179.6875 C 242.660156 178.175781 241.84375 175.65625 239.625 175.800781 Z M 258.167969 192.765625 C 258.128906 192.78125 254.507812 194.273438 251.292969 191.257812 C 251.070312 191.046875 250.710938 191.058594 250.5 191.289062 C 250.289062 191.511719 250.300781 191.871094 250.53125 192.082031 C 252.402344 193.835938 254.378906 194.285156 255.914062 194.285156 C 257.441406 194.285156 258.527344 193.839844 258.613281 193.800781 C 258.898438 193.675781 259.035156 193.351562 258.910156 193.0625 C 258.785156 192.777344 258.457031 192.640625 258.167969 192.765625 Z M 259.78125 176.644531 L 257.253906 176.644531 C 257.015625 176.003906 256.730469 175.386719 256.410156 174.796875 C 254.183594 170.722656 250.191406 167.957031 247.78125 166.566406 C 247.730469 166.539062 247.675781 166.527344 247.617188 166.511719 C 247.386719 166.460938 247.140625 166.554688 247.011719 166.769531 C 246.992188 166.796875 246.988281 166.832031 246.976562 166.859375 C 246.886719 167.113281 246.976562 167.398438 247.214844 167.535156 C 249.898438 169.085938 254.660156 172.425781 256.3125 177.375 C 256.390625 177.605469 256.605469 177.757812 256.847656 177.757812 L 259.777344 177.757812 C 260.085938 177.757812 260.339844 177.503906 260.339844 177.195312 C 260.34375 176.898438 260.089844 176.644531 259.78125 176.644531 Z M 235.460938 214.3125 C 235.441406 214.300781 235.425781 214.28125 235.410156 214.273438 C 235.132812 214.132812 234.792969 214.25 234.65625 214.523438 C 234.589844 214.664062 227.613281 228.546875 218.789062 231.171875 C 218.492188 231.261719 218.320312 231.574219 218.410156 231.871094 C 218.410156 231.871094 218.410156 231.871094 218.410156 231.875 C 218.484375 232.117188 218.710938 232.277344 218.953125 232.277344 C 219.003906 232.277344 219.058594 232.269531 219.113281 232.253906 C 219.980469 231.996094 220.816406 231.644531 221.636719 231.214844 C 227.5625 228.117188 232.25 221.035156 234.402344 217.347656 C 235.15625 216.046875 235.601562 215.164062 235.671875 215.023438 C 235.792969 214.765625 235.695312 214.460938 235.460938 214.3125 Z M 227.445312 184.996094 C 227.550781 184.996094 227.648438 184.957031 227.738281 184.90625 C 227.898438 184.808594 228.011719 184.636719 228.011719 184.4375 C 228.011719 184.390625 228.050781 179.75 229.914062 174.519531 C 230.011719 174.238281 229.867188 173.929688 229.589844 173.816406 C 229.582031 173.8125 229.574219 173.808594 229.570312 173.808594 C 229.277344 173.699219 228.957031 173.855469 228.851562 174.148438 C 227.84375 176.976562 227.355469 179.589844 227.113281 181.484375 C 226.894531 183.222656 226.882812 184.351562 226.882812 184.441406 C 226.882812 184.527344 226.898438 184.597656 226.933594 184.671875 C 227.023438 184.859375 227.214844 184.996094 227.445312 184.996094 Z M 254.816406 238.222656 L 247.886719 238.222656 C 247.589844 238.222656 247.355469 238.464844 247.355469 238.757812 L 247.355469 240.785156 L 255.359375 240.785156 L 255.359375 238.757812 C 255.351562 238.464844 255.117188 238.222656 254.816406 238.222656 Z M 247.824219 244.152344 C 247.515625 244.152344 247.265625 244.40625 247.265625 244.714844 L 247.265625 249.90625 C 247.265625 250.21875 247.515625 250.46875 247.824219 250.46875 C 248.136719 250.46875 248.386719 250.21875 248.386719 249.90625 L 248.386719 244.714844 C 248.386719 244.398438 248.136719 244.152344 247.824219 244.152344 Z M 269.410156 238.222656 L 262.480469 238.222656 C 262.183594 238.222656 261.945312 238.464844 261.945312 238.757812 L 261.945312 240.785156 L 269.945312 240.785156 L 269.945312 238.757812 C 269.949219 238.464844 269.707031 238.222656 269.410156 238.222656 Z M 262.421875 244.152344 C 262.113281 244.152344 261.863281 244.40625 261.863281 244.714844 L 261.863281 249.90625 C 261.863281 250.21875 262.113281 250.46875 262.421875 250.46875 C 262.734375 250.46875 262.984375 250.21875 262.984375 249.90625 L 262.984375 244.714844 C 262.984375 244.398438 262.734375 244.152344 262.421875 244.152344 Z M 195.015625 116.507812 L 166.535156 116.507812 C 162.539062 116.507812 159.285156 119.761719 159.285156 123.757812 L 159.285156 134.605469 C 159.285156 134.914062 159.539062 135.167969 159.847656 135.167969 C 160.15625 135.167969 160.410156 134.914062 160.410156 134.605469 L 160.410156 123.757812 C 160.410156 120.378906 163.160156 117.632812 166.535156 117.632812 L 195.015625 117.632812 C 198.394531 117.632812 201.144531 120.378906 201.144531 123.757812 L 201.144531 152.238281 C 201.144531 155.617188 198.394531 158.367188 195.015625 158.367188 L 193.144531 158.367188 C 192.835938 158.367188 192.582031 158.617188 192.582031 158.929688 C 192.582031 159.238281 192.835938 159.492188 193.144531 159.492188 L 195.015625 159.492188 C 199.019531 159.492188 202.269531 156.234375 202.269531 152.238281 L 202.269531 123.757812 C 202.269531 119.761719 199.019531 116.507812 195.015625 116.507812 Z M 166.535156 159.496094 L 174.027344 159.496094 C 174.339844 159.496094 174.589844 159.242188 174.589844 158.933594 C 174.589844 158.625 174.339844 158.371094 174.027344 158.371094 L 166.535156 158.371094 C 163.160156 158.371094 160.410156 155.625 160.410156 152.246094 L 160.410156 140.273438 C 160.410156 139.964844 160.15625 139.710938 159.847656 139.710938 C 159.539062 139.710938 159.285156 139.964844 159.285156 140.273438 L 159.285156 152.238281 C 159.285156 156.242188 162.535156 159.496094 166.535156 159.496094 Z M 184.496094 124.726562 L 177.058594 124.726562 C 176.75 124.726562 176.496094 124.976562 176.496094 125.289062 L 176.496094 133.71875 L 168.066406 133.71875 C 167.757812 133.71875 167.503906 133.972656 167.503906 134.28125 L 167.503906 141.71875 C 167.503906 142.027344 167.757812 142.277344 168.066406 142.277344 L 176.496094 142.277344 L 176.496094 150.710938 C 176.496094 151.019531 176.75 151.273438 177.058594 151.273438 L 184.496094 151.273438 C 184.804688 151.273438 185.058594 151.019531 185.058594 150.710938 L 185.058594 148.367188 C 185.058594 148.058594 184.804688 147.804688 184.496094 147.804688 C 184.1875 147.804688 183.933594 148.058594 183.933594 148.367188 L 183.933594 150.148438 L 177.621094 150.148438 L 177.621094 141.71875 C 177.621094 141.40625 177.367188 141.15625 177.058594 141.15625 L 168.628906 141.15625 L 168.628906 134.84375 L 177.058594 134.84375 C 177.367188 134.84375 177.621094 134.589844 177.621094 134.28125 L 177.621094 125.847656 L 184.496094 125.847656 C 184.804688 125.847656 185.058594 125.597656 185.058594 125.289062 C 185.058594 124.976562 184.804688 124.726562 184.496094 124.726562 Z M 184.496094 141.160156 C 184.1875 141.160156 183.933594 141.414062 183.933594 141.722656 L 183.933594 144 C 183.933594 144.308594 184.1875 144.5625 184.496094 144.5625 C 184.804688 144.5625 185.058594 144.308594 185.058594 144 L 185.058594 142.285156 L 193.488281 142.285156 C 193.796875 142.285156 194.050781 142.03125 194.050781 141.722656 L 194.050781 134.28125 C 194.050781 133.972656 193.796875 133.71875 193.488281 133.71875 L 185.058594 133.71875 L 185.058594 129.867188 C 185.058594 129.558594 184.804688 129.304688 184.496094 129.304688 C 184.1875 129.304688 183.933594 129.558594 183.933594 129.867188 L 183.933594 134.28125 C 183.933594 134.589844 184.1875 134.84375 184.496094 134.84375 L 192.925781 134.84375 L 192.925781 141.15625 L 184.496094 141.15625 Z M 184.496094 141.160156 " fill-opacity="1" fill-rule="nonzero"/></g><g clip-path="url(#75950b3e42)"><path fill="#3872c0" d="M 190.738281 173.222656 L 99.839844 173.222656 C 98.519531 173.222656 97.449219 174.289062 97.449219 175.609375 L 97.449219 238.3125 C 97.449219 239.632812 98.519531 240.699219 99.839844 240.699219 L 190.734375 240.699219 C 192.054688 240.699219 193.125 239.632812 193.125 238.3125 L 193.125 175.617188 C 193.128906 174.296875 192.054688 173.222656 190.738281 173.222656 Z M 190.878906 187.578125 L 190.878906 231.707031 L 99.699219 231.707031 L 99.699219 175.617188 C 99.699219 175.539062 99.761719 175.476562 99.839844 175.476562 L 190.734375 175.476562 C 190.8125 175.476562 190.875 175.539062 190.875 175.617188 L 190.875 187.578125 Z M 256.71875 246.007812 L 256.71875 254.726562 L 245.980469 254.726562 L 245.980469 246.007812 L 247.265625 246.007812 L 247.265625 249.90625 C 247.265625 250.21875 247.515625 250.46875 247.824219 250.46875 C 248.136719 250.46875 248.386719 250.21875 248.386719 249.90625 L 248.386719 246.007812 Z M 195.015625 117.632812 L 166.535156 117.632812 C 163.160156 117.632812 160.410156 120.378906 160.410156 123.757812 L 160.410156 134.605469 C 160.410156 134.914062 160.15625 135.167969 159.847656 135.167969 L 159.847656 139.710938 C 160.15625 139.710938 160.410156 139.964844 160.410156 140.273438 L 160.410156 152.238281 C 160.410156 155.617188 163.160156 158.367188 166.535156 158.367188 L 174.027344 158.367188 C 174.339844 158.367188 174.589844 158.617188 174.589844 158.929688 L 192.578125 158.929688 C 192.578125 158.617188 192.832031 158.367188 193.140625 158.367188 L 195.011719 158.367188 C 198.390625 158.367188 201.140625 155.617188 201.140625 152.238281 L 201.140625 123.757812 C 201.144531 120.378906 198.394531 117.632812 195.015625 117.632812 Z M 194.050781 141.722656 C 194.050781 142.03125 193.796875 142.285156 193.488281 142.285156 L 185.058594 142.285156 L 185.058594 144 C 185.058594 144.308594 184.804688 144.5625 184.496094 144.5625 L 184.496094 147.808594 C 184.804688 147.808594 185.058594 148.0625 185.058594 148.371094 L 185.058594 150.714844 C 185.058594 151.023438 184.804688 151.277344 184.496094 151.277344 L 177.058594 151.277344 C 176.75 151.277344 176.496094 151.023438 176.496094 150.714844 L 176.496094 142.285156 L 168.066406 142.285156 C 167.757812 142.285156 167.503906 142.03125 167.503906 141.722656 L 167.503906 134.28125 C 167.503906 133.972656 167.757812 133.71875 168.066406 133.71875 L 176.496094 133.71875 L 176.496094 125.289062 C 176.496094 124.976562 176.75 124.726562 177.058594 124.726562 L 184.496094 124.726562 C 184.804688 124.726562 185.058594 124.976562 185.058594 125.289062 C 185.058594 125.597656 184.804688 125.847656 184.496094 125.847656 L 184.496094 129.304688 C 184.804688 129.304688 185.058594 129.558594 185.058594 129.867188 L 185.058594 133.71875 L 193.488281 133.71875 C 193.796875 133.71875 194.050781 133.972656 194.050781 134.28125 Z M 162.246094 250.976562 L 166.238281 258.46875 L 124.339844 258.46875 L 128.332031 250.976562 L 131.980469 250.976562 C 131.980469 251.285156 132.230469 251.539062 132.542969 251.539062 L 160.695312 251.539062 C 161.003906 251.539062 161.257812 251.285156 161.257812 250.976562 Z M 162.246094 250.976562 " fill-opacity="1" fill-rule="nonzero"/></g><g clip-path="url(#05535c19e4)"><path fill="#965b3e" d="M 190.878906 187.578125 L 190.878906 197.800781 L 187.109375 197.515625 L 186.339844 194.09375 C 186.203125 193.484375 185.597656 193.109375 184.996094 193.242188 C 184.386719 193.378906 184.011719 193.980469 184.148438 194.585938 L 184.765625 197.335938 L 180.78125 197.03125 L 180.117188 194.09375 C 179.980469 193.484375 179.375 193.109375 178.773438 193.242188 C 178.167969 193.378906 177.789062 193.980469 177.925781 194.585938 L 178.4375 196.859375 L 174.449219 196.554688 L 173.894531 194.09375 C 173.757812 193.484375 173.152344 193.109375 172.550781 193.242188 C 171.945312 193.378906 171.566406 193.980469 171.703125 194.585938 L 172.105469 196.378906 L 162.753906 195.671875 C 161.152344 193.1875 158.050781 192.019531 155.152344 192.941406 C 150.820312 194.316406 147.875 198.347656 147.875 202.902344 L 147.875 208.941406 C 147.875 210.332031 148.84375 211.527344 150.191406 211.828125 L 154.089844 212.679688 C 155.363281 212.960938 156.660156 212.371094 157.296875 211.242188 L 159.375 207.527344 C 159.953125 206.492188 161.09375 205.902344 162.277344 206.035156 L 162.6875 206.082031 C 164.96875 206.335938 166.65625 204.003906 165.691406 201.917969 C 165.125 200.6875 164.5 199.335938 163.898438 198.023438 L 172.617188 198.679688 L 173.457031 202.398438 C 173.574219 202.921875 174.039062 203.277344 174.550781 203.277344 C 174.636719 203.277344 174.714844 203.265625 174.800781 203.25 C 175.40625 203.113281 175.78125 202.511719 175.648438 201.90625 L 174.960938 198.855469 L 178.949219 199.15625 L 179.679688 202.398438 C 179.796875 202.921875 180.261719 203.277344 180.773438 203.277344 C 180.859375 203.277344 180.9375 203.265625 181.023438 203.25 C 181.628906 203.113281 182.003906 202.511719 181.871094 201.90625 L 181.292969 199.332031 L 185.277344 199.636719 L 185.902344 202.398438 C 186.019531 202.921875 186.484375 203.277344 186.996094 203.277344 C 187.082031 203.277344 187.160156 203.265625 187.242188 203.25 C 187.851562 203.113281 188.226562 202.511719 188.09375 201.90625 L 187.621094 199.808594 L 190.875 200.054688 L 190.875 227.875 L 177.8125 224.640625 L 176.84375 231.707031 L 170.082031 231.707031 L 169.402344 222.523438 C 169.359375 221.90625 168.820312 221.433594 168.199219 221.484375 C 167.582031 221.527344 167.117188 222.066406 167.160156 222.6875 L 167.828125 231.703125 L 163.226562 231.703125 L 161.59375 222.039062 L 158.824219 231.703125 L 152.921875 231.703125 L 154.242188 223.890625 C 154.34375 223.277344 153.933594 222.699219 153.320312 222.589844 C 152.703125 222.484375 152.128906 222.898438 152.023438 223.511719 L 150.640625 231.703125 L 143.613281 231.703125 C 142.742188 226.132812 141.78125 219.195312 141.777344 215.710938 C 141.769531 213.070312 141.570312 208.160156 142.46875 203.101562 C 125.425781 207.554688 122.789062 194.066406 122.789062 194.066406 C 122.789062 194.066406 137.960938 194.625 149.664062 189.691406 C 151.511719 188.308594 153.78125 187.269531 156.59375 186.75 C 163.367188 185.519531 179.019531 186.199219 190.878906 187.578125 Z M 164.773438 240.847656 L 175.597656 240.847656 L 175.621094 240.699219 L 164.75 240.699219 Z M 244.066406 166.140625 C 250.539062 179.84375 249.230469 186.671875 242.625 189.613281 C 238.328125 191.523438 231.953125 187.914062 227.730469 184.90625 C 227.894531 184.808594 228.007812 184.636719 228.007812 184.4375 C 228.007812 184.390625 228.046875 179.75 229.90625 174.519531 C 230.007812 174.238281 229.863281 173.929688 229.585938 173.816406 C 231.109375 170.179688 233.699219 166.855469 238.148438 166.191406 C 238.882812 166.082031 239.585938 166.023438 240.265625 165.988281 C 241.636719 165.914062 242.90625 165.964844 244.066406 166.140625 Z M 242.785156 179.6875 C 242.660156 178.175781 241.84375 175.65625 239.625 175.796875 C 236.882812 175.972656 236.683594 179.550781 236.679688 179.703125 C 236.664062 180.011719 236.90625 180.277344 237.214844 180.289062 C 237.21875 180.289062 237.230469 180.289062 237.242188 180.289062 C 237.539062 180.289062 237.785156 180.050781 237.804688 179.753906 C 237.804688 179.726562 237.949219 177.027344 239.699219 176.914062 C 241.40625 176.808594 241.664062 179.742188 241.664062 179.777344 C 241.695312 180.085938 241.96875 180.308594 242.273438 180.289062 C 242.582031 180.269531 242.8125 179.996094 242.785156 179.6875 Z M 207.261719 196.238281 C 197.550781 197.121094 193.027344 205.671875 201.105469 212.15625 C 209.183594 218.644531 213.59375 209.582031 218.34375 209.875 C 223.09375 210.167969 228.84375 207.96875 227.960938 204.160156 C 227.078125 200.347656 222.066406 194.894531 207.261719 196.238281 Z M 260.578125 258.164062 L 271.316406 258.164062 L 271.316406 254.71875 L 260.578125 254.71875 Z M 269.71875 242.042969 C 269.335938 242.042969 269.027344 241.734375 269.027344 241.351562 L 269.027344 240.792969 L 262.875 240.792969 L 262.875 241.351562 C 262.875 241.734375 262.5625 242.042969 262.183594 242.042969 C 261.300781 242.042969 260.585938 242.757812 260.585938 243.640625 L 260.585938 246 L 261.867188 246 L 261.867188 244.707031 C 261.867188 244.398438 262.121094 244.148438 262.429688 244.148438 C 262.738281 244.148438 262.992188 244.398438 262.992188 244.707031 L 262.992188 246 L 271.320312 246 L 271.320312 243.640625 C 271.316406 242.757812 270.601562 242.042969 269.71875 242.042969 Z M 160.695312 250.414062 L 132.546875 250.414062 C 132.238281 250.414062 131.984375 250.667969 131.984375 250.976562 C 131.984375 251.285156 132.238281 251.539062 132.546875 251.539062 L 160.703125 251.539062 C 161.011719 251.539062 161.265625 251.285156 161.265625 250.976562 C 161.265625 250.667969 161.003906 250.414062 160.695312 250.414062 Z M 160.695312 250.414062 " fill-opacity="1" fill-rule="nonzero"/></g></svg>