<svg xmlns="http://www.w3.org/2000/svg" xmlns:xlink="http://www.w3.org/1999/xlink" width="500" zoomAndPan="magnify" viewBox="0 0 375 374.999991" height="500" preserveAspectRatio="xMidYMid meet" version="1.0"><defs><clipPath id="79d68544e7"><path d="M 230 94.535156 L 250 94.535156 L 250 114 L 230 114 Z M 230 94.535156 " clip-rule="nonzero"/></clipPath><clipPath id="8d6717ab77"><path d="M 125 94.535156 L 145 94.535156 L 145 114 L 125 114 Z M 125 94.535156 " clip-rule="nonzero"/></clipPath><clipPath id="8b7f0c6597"><path d="M 203 94.535156 L 222 94.535156 L 222 114 L 203 114 Z M 203 94.535156 " clip-rule="nonzero"/></clipPath><clipPath id="cf14b6d50f"><path d="M 178 94.535156 L 197 94.535156 L 197 114 L 178 114 Z M 178 94.535156 " clip-rule="nonzero"/></clipPath><clipPath id="21640a6120"><path d="M 153 94.535156 L 173 94.535156 L 173 114 L 153 114 Z M 153 94.535156 " clip-rule="nonzero"/></clipPath><clipPath id="60706d5f69"><path d="M 94.535156 153 L 114 153 L 114 173 L 94.535156 173 Z M 94.535156 153 " clip-rule="nonzero"/></clipPath><clipPath id="90e33d9a57"><path d="M 94.535156 178 L 114 178 L 114 197 L 94.535156 197 Z M 94.535156 178 " clip-rule="nonzero"/></clipPath><clipPath id="d11a46dc24"><path d="M 94.535156 203 L 114 203 L 114 222 L 94.535156 222 Z M 94.535156 203 " clip-rule="nonzero"/></clipPath><clipPath id="cae5da6dde"><path d="M 261 203 L 280.535156 203 L 280.535156 222 L 261 222 Z M 261 203 " clip-rule="nonzero"/></clipPath><clipPath id="a6fe48237d"><path d="M 261 178 L 280.535156 178 L 280.535156 197 L 261 197 Z M 261 178 " clip-rule="nonzero"/></clipPath><clipPath id="932496339e"><path d="M 261 153 L 280.535156 153 L 280.535156 173 L 261 173 Z M 261 153 " clip-rule="nonzero"/></clipPath><clipPath id="2ce60f45f8"><path d="M 230 261 L 250 261 L 250 280.535156 L 230 280.535156 Z M 230 261 " clip-rule="nonzero"/></clipPath><clipPath id="92f2bc90af"><path d="M 125 261 L 145 261 L 145 280.535156 L 125 280.535156 Z M 125 261 " clip-rule="nonzero"/></clipPath><clipPath id="87eff80cc4"><path d="M 203 261 L 222 261 L 222 280.535156 L 203 280.535156 Z M 203 261 " clip-rule="nonzero"/></clipPath><clipPath id="07def5bfeb"><path d="M 178 261 L 197 261 L 197 280.535156 L 178 280.535156 Z M 178 261 " clip-rule="nonzero"/></clipPath><clipPath id="b86d842238"><path d="M 153 261 L 173 261 L 173 280.535156 L 153 280.535156 Z M 153 261 " clip-rule="nonzero"/></clipPath><clipPath id="292b5b20b1"><path d="M 94.535156 94.535156 L 280.535156 94.535156 L 280.535156 280.535156 L 94.535156 280.535156 Z M 94.535156 94.535156 " clip-rule="nonzero"/></clipPath></defs><path fill="#4f83d1" d="M 162.734375 144.132812 C 161.027344 144.132812 159.632812 142.742188 159.632812 141.035156 L 159.632812 113.132812 C 159.632812 111.425781 161.027344 110.035156 162.734375 110.035156 C 164.441406 110.035156 165.835938 111.425781 165.835938 113.132812 L 165.835938 141.035156 C 165.835938 142.742188 164.441406 144.132812 162.734375 144.132812 " fill-opacity="1" fill-rule="nonzero"/><path fill="#4f83d1" d="M 187.535156 144.132812 C 185.828125 144.132812 184.433594 142.742188 184.433594 141.035156 L 184.433594 113.132812 C 184.433594 111.425781 185.828125 110.035156 187.535156 110.035156 C 189.242188 110.035156 190.632812 111.425781 190.632812 113.132812 L 190.632812 141.035156 C 190.632812 142.742188 189.242188 144.132812 187.535156 144.132812 " fill-opacity="1" fill-rule="nonzero"/><path fill="#4f83d1" d="M 212.335938 144.132812 C 210.625 144.132812 209.234375 142.742188 209.234375 141.035156 L 209.234375 113.132812 C 209.234375 111.425781 210.625 110.035156 212.335938 110.035156 C 214.042969 110.035156 215.433594 111.425781 215.433594 113.132812 L 215.433594 141.035156 C 215.433594 142.742188 214.042969 144.132812 212.335938 144.132812 " fill-opacity="1" fill-rule="nonzero"/><path fill="#4f83d1" d="M 224.734375 144.132812 C 223.027344 144.132812 221.632812 142.742188 221.632812 141.035156 L 221.632812 125.535156 C 221.632812 123.828125 223.027344 122.433594 224.734375 122.433594 L 237.132812 122.433594 L 237.132812 110.035156 C 237.132812 108.328125 238.527344 106.933594 240.234375 106.933594 C 241.941406 106.933594 243.335938 108.328125 243.335938 110.035156 L 243.335938 125.535156 C 243.335938 127.242188 241.941406 128.632812 240.234375 128.632812 L 227.835938 128.632812 L 227.835938 141.035156 C 227.835938 142.742188 226.441406 144.132812 224.734375 144.132812 " fill-opacity="1" fill-rule="nonzero"/><path fill="#4f83d1" d="M 150.335938 144.132812 C 148.625 144.132812 147.234375 142.742188 147.234375 141.035156 L 147.234375 128.632812 L 134.835938 128.632812 C 133.125 128.632812 131.734375 127.242188 131.734375 125.535156 L 131.734375 110.035156 C 131.734375 108.328125 133.125 106.933594 134.835938 106.933594 C 136.542969 106.933594 137.933594 108.328125 137.933594 110.035156 L 137.933594 122.433594 L 150.335938 122.433594 C 152.042969 122.433594 153.433594 123.828125 153.433594 125.535156 L 153.433594 141.035156 C 153.433594 142.742188 152.042969 144.132812 150.335938 144.132812 " fill-opacity="1" fill-rule="nonzero"/><path fill="#4f83d1" d="M 141.035156 215.433594 L 110.035156 215.433594 C 108.328125 215.433594 106.933594 214.042969 106.933594 212.335938 C 106.933594 210.625 108.328125 209.234375 110.035156 209.234375 L 141.035156 209.234375 C 142.742188 209.234375 144.132812 210.625 144.132812 212.335938 C 144.132812 214.042969 142.742188 215.433594 141.035156 215.433594 " fill-opacity="1" fill-rule="nonzero"/><path fill="#4f83d1" d="M 141.035156 190.632812 L 110.035156 190.632812 C 108.328125 190.632812 106.933594 189.242188 106.933594 187.535156 C 106.933594 185.828125 108.328125 184.433594 110.035156 184.433594 L 141.035156 184.433594 C 142.742188 184.433594 144.132812 185.828125 144.132812 187.535156 C 144.132812 189.242188 142.742188 190.632812 141.035156 190.632812 " fill-opacity="1" fill-rule="nonzero"/><path fill="#4f83d1" d="M 141.035156 165.835938 L 110.035156 165.835938 C 108.328125 165.835938 106.933594 164.441406 106.933594 162.734375 C 106.933594 161.027344 108.328125 159.632812 110.035156 159.632812 L 141.035156 159.632812 C 142.742188 159.632812 144.132812 161.027344 144.132812 162.734375 C 144.132812 164.441406 142.742188 165.835938 141.035156 165.835938 " fill-opacity="1" fill-rule="nonzero"/><path fill="#4f83d1" d="M 265.035156 165.835938 L 234.035156 165.835938 C 232.328125 165.835938 230.933594 164.441406 230.933594 162.734375 C 230.933594 161.027344 232.328125 159.632812 234.035156 159.632812 L 265.035156 159.632812 C 266.742188 159.632812 268.132812 161.027344 268.132812 162.734375 C 268.132812 164.441406 266.742188 165.835938 265.035156 165.835938 " fill-opacity="1" fill-rule="nonzero"/><path fill="#4f83d1" d="M 265.035156 190.632812 L 234.035156 190.632812 C 232.328125 190.632812 230.933594 189.242188 230.933594 187.535156 C 230.933594 185.828125 232.328125 184.433594 234.035156 184.433594 L 265.035156 184.433594 C 266.742188 184.433594 268.132812 185.828125 268.132812 187.535156 C 268.132812 189.242188 266.742188 190.632812 265.035156 190.632812 " fill-opacity="1" fill-rule="nonzero"/><path fill="#4f83d1" d="M 265.035156 215.433594 L 234.035156 215.433594 C 232.328125 215.433594 230.933594 214.042969 230.933594 212.335938 C 230.933594 210.625 232.328125 209.234375 234.035156 209.234375 L 265.035156 209.234375 C 266.742188 209.234375 268.132812 210.625 268.132812 212.335938 C 268.132812 214.042969 266.742188 215.433594 265.035156 215.433594 " fill-opacity="1" fill-rule="nonzero"/><path fill="#4f83d1" d="M 162.734375 265.035156 C 161.027344 265.035156 159.632812 263.640625 159.632812 261.933594 L 159.632812 234.035156 C 159.632812 232.328125 161.027344 230.933594 162.734375 230.933594 C 164.441406 230.933594 165.835938 232.328125 165.835938 234.035156 L 165.835938 261.933594 C 165.835938 263.640625 164.441406 265.035156 162.734375 265.035156 " fill-opacity="1" fill-rule="nonzero"/><path fill="#4f83d1" d="M 187.535156 265.035156 C 185.828125 265.035156 184.433594 263.640625 184.433594 261.933594 L 184.433594 234.035156 C 184.433594 232.328125 185.828125 230.933594 187.535156 230.933594 C 189.242188 230.933594 190.632812 232.328125 190.632812 234.035156 L 190.632812 261.933594 C 190.632812 263.640625 189.242188 265.035156 187.535156 265.035156 " fill-opacity="1" fill-rule="nonzero"/><path fill="#4f83d1" d="M 212.335938 265.035156 C 210.625 265.035156 209.234375 263.640625 209.234375 261.933594 L 209.234375 234.035156 C 209.234375 232.328125 210.625 230.933594 212.335938 230.933594 C 214.042969 230.933594 215.433594 232.328125 215.433594 234.035156 L 215.433594 261.933594 C 215.433594 263.640625 214.042969 265.035156 212.335938 265.035156 " fill-opacity="1" fill-rule="nonzero"/><path fill="#4f83d1" d="M 240.234375 268.132812 C 238.527344 268.132812 237.132812 266.742188 237.132812 265.035156 L 237.132812 252.632812 L 224.734375 252.632812 C 223.027344 252.632812 221.632812 251.242188 221.632812 249.535156 L 221.632812 234.035156 C 221.632812 232.328125 223.027344 230.933594 224.734375 230.933594 C 226.441406 230.933594 227.835938 232.328125 227.835938 234.035156 L 227.835938 246.433594 L 240.234375 246.433594 C 241.941406 246.433594 243.335938 247.828125 243.335938 249.535156 L 243.335938 265.035156 C 243.335938 266.742188 241.941406 268.132812 240.234375 268.132812 " fill-opacity="1" fill-rule="nonzero"/><path fill="#4f83d1" d="M 134.835938 268.132812 C 133.125 268.132812 131.734375 266.742188 131.734375 265.035156 L 131.734375 249.535156 C 131.734375 247.828125 133.125 246.433594 134.835938 246.433594 L 147.234375 246.433594 L 147.234375 234.035156 C 147.234375 232.328125 148.625 230.933594 150.335938 230.933594 C 152.042969 230.933594 153.433594 232.328125 153.433594 234.035156 L 153.433594 249.535156 C 153.433594 251.242188 152.042969 252.632812 150.335938 252.632812 L 137.933594 252.632812 L 137.933594 265.035156 C 137.933594 266.742188 136.542969 268.132812 134.835938 268.132812 " fill-opacity="1" fill-rule="nonzero"/><path fill="#7cb8eb" d="M 221.632812 137.933594 L 153.433594 137.933594 C 144.886719 137.933594 137.933594 144.886719 137.933594 153.433594 L 137.933594 221.632812 C 137.933594 230.183594 144.886719 237.132812 153.433594 237.132812 L 221.632812 237.132812 C 230.183594 237.132812 237.132812 230.183594 237.132812 221.632812 L 237.132812 153.433594 C 237.132812 144.886719 230.183594 137.933594 221.632812 137.933594 " fill-opacity="1" fill-rule="nonzero"/><path fill="#cdeef6" d="M 215.433594 215.433594 L 159.632812 215.433594 L 159.632812 159.632812 L 215.433594 159.632812 L 215.433594 215.433594 " fill-opacity="1" fill-rule="nonzero"/><g clip-path="url(#79d68544e7)"><path fill="#ffffff" d="M 240.234375 94.535156 C 235.101562 94.535156 230.933594 98.699219 230.933594 103.835938 C 230.933594 108.96875 235.101562 113.132812 240.234375 113.132812 C 245.367188 113.132812 249.535156 108.96875 249.535156 103.835938 C 249.535156 98.699219 245.367188 94.535156 240.234375 94.535156 " fill-opacity="1" fill-rule="nonzero"/></g><g clip-path="url(#8d6717ab77)"><path fill="#ffffff" d="M 134.835938 94.535156 C 129.699219 94.535156 125.535156 98.699219 125.535156 103.835938 C 125.535156 108.96875 129.699219 113.132812 134.835938 113.132812 C 139.96875 113.132812 144.132812 108.96875 144.132812 103.835938 C 144.132812 98.699219 139.96875 94.535156 134.835938 94.535156 " fill-opacity="1" fill-rule="nonzero"/></g><g clip-path="url(#8b7f0c6597)"><path fill="#ffffff" d="M 212.335938 94.535156 C 207.199219 94.535156 203.035156 98.699219 203.035156 103.835938 C 203.035156 108.96875 207.199219 113.132812 212.335938 113.132812 C 217.46875 113.132812 221.632812 108.96875 221.632812 103.835938 C 221.632812 98.699219 217.46875 94.535156 212.335938 94.535156 " fill-opacity="1" fill-rule="nonzero"/></g><g clip-path="url(#cf14b6d50f)"><path fill="#ffffff" d="M 187.535156 94.535156 C 182.398438 94.535156 178.234375 98.699219 178.234375 103.835938 C 178.234375 108.96875 182.398438 113.132812 187.535156 113.132812 C 192.667969 113.132812 196.835938 108.96875 196.835938 103.835938 C 196.835938 98.699219 192.667969 94.535156 187.535156 94.535156 " fill-opacity="1" fill-rule="nonzero"/></g><g clip-path="url(#21640a6120)"><path fill="#ffffff" d="M 162.734375 94.535156 C 157.601562 94.535156 153.433594 98.699219 153.433594 103.835938 C 153.433594 108.96875 157.601562 113.132812 162.734375 113.132812 C 167.867188 113.132812 172.035156 108.96875 172.035156 103.835938 C 172.035156 98.699219 167.867188 94.535156 162.734375 94.535156 " fill-opacity="1" fill-rule="nonzero"/></g><g clip-path="url(#60706d5f69)"><path fill="#ffffff" d="M 103.835938 153.433594 C 98.699219 153.433594 94.535156 157.601562 94.535156 162.734375 C 94.535156 167.867188 98.699219 172.035156 103.835938 172.035156 C 108.96875 172.035156 113.132812 167.867188 113.132812 162.734375 C 113.132812 157.601562 108.96875 153.433594 103.835938 153.433594 " fill-opacity="1" fill-rule="nonzero"/></g><g clip-path="url(#90e33d9a57)"><path fill="#ffffff" d="M 103.835938 178.234375 C 98.699219 178.234375 94.535156 182.398438 94.535156 187.535156 C 94.535156 192.667969 98.699219 196.835938 103.835938 196.835938 C 108.96875 196.835938 113.132812 192.667969 113.132812 187.535156 C 113.132812 182.398438 108.96875 178.234375 103.835938 178.234375 " fill-opacity="1" fill-rule="nonzero"/></g><g clip-path="url(#d11a46dc24)"><path fill="#ffffff" d="M 103.835938 203.035156 C 98.699219 203.035156 94.535156 207.199219 94.535156 212.335938 C 94.535156 217.46875 98.699219 221.632812 103.835938 221.632812 C 108.96875 221.632812 113.132812 217.46875 113.132812 212.335938 C 113.132812 207.199219 108.96875 203.035156 103.835938 203.035156 " fill-opacity="1" fill-rule="nonzero"/></g><g clip-path="url(#cae5da6dde)"><path fill="#ffffff" d="M 271.234375 203.035156 C 266.101562 203.035156 261.933594 207.199219 261.933594 212.335938 C 261.933594 217.46875 266.101562 221.632812 271.234375 221.632812 C 276.367188 221.632812 280.535156 217.46875 280.535156 212.335938 C 280.535156 207.199219 276.367188 203.035156 271.234375 203.035156 " fill-opacity="1" fill-rule="nonzero"/></g><g clip-path="url(#a6fe48237d)"><path fill="#ffffff" d="M 271.234375 178.234375 C 266.101562 178.234375 261.933594 182.398438 261.933594 187.535156 C 261.933594 192.667969 266.101562 196.835938 271.234375 196.835938 C 276.367188 196.835938 280.535156 192.667969 280.535156 187.535156 C 280.535156 182.398438 276.367188 178.234375 271.234375 178.234375 " fill-opacity="1" fill-rule="nonzero"/></g><g clip-path="url(#932496339e)"><path fill="#ffffff" d="M 271.234375 172.035156 C 276.367188 172.035156 280.535156 167.867188 280.535156 162.734375 C 280.535156 157.601562 276.367188 153.433594 271.234375 153.433594 C 266.101562 153.433594 261.933594 157.601562 261.933594 162.734375 C 261.933594 167.867188 266.101562 172.035156 271.234375 172.035156 " fill-opacity="1" fill-rule="nonzero"/></g><g clip-path="url(#2ce60f45f8)"><path fill="#ffffff" d="M 240.234375 261.933594 C 235.101562 261.933594 230.933594 266.101562 230.933594 271.234375 C 230.933594 276.367188 235.101562 280.535156 240.234375 280.535156 C 245.367188 280.535156 249.535156 276.367188 249.535156 271.234375 C 249.535156 266.101562 245.367188 261.933594 240.234375 261.933594 " fill-opacity="1" fill-rule="nonzero"/></g><g clip-path="url(#92f2bc90af)"><path fill="#ffffff" d="M 134.835938 261.933594 C 129.699219 261.933594 125.535156 266.101562 125.535156 271.234375 C 125.535156 276.367188 129.699219 280.535156 134.835938 280.535156 C 139.96875 280.535156 144.132812 276.367188 144.132812 271.234375 C 144.132812 266.101562 139.96875 261.933594 134.835938 261.933594 " fill-opacity="1" fill-rule="nonzero"/></g><g clip-path="url(#87eff80cc4)"><path fill="#ffffff" d="M 212.335938 261.933594 C 207.199219 261.933594 203.035156 266.101562 203.035156 271.234375 C 203.035156 276.367188 207.199219 280.535156 212.335938 280.535156 C 217.46875 280.535156 221.632812 276.367188 221.632812 271.234375 C 221.632812 266.101562 217.46875 261.933594 212.335938 261.933594 " fill-opacity="1" fill-rule="nonzero"/></g><g clip-path="url(#07def5bfeb)"><path fill="#ffffff" d="M 187.535156 261.933594 C 182.398438 261.933594 178.234375 266.101562 178.234375 271.234375 C 178.234375 276.367188 182.398438 280.535156 187.535156 280.535156 C 192.667969 280.535156 196.835938 276.367188 196.835938 271.234375 C 196.835938 266.101562 192.667969 261.933594 187.535156 261.933594 " fill-opacity="1" fill-rule="nonzero"/></g><g clip-path="url(#b86d842238)"><path fill="#ffffff" d="M 162.734375 261.933594 C 157.601562 261.933594 153.433594 266.101562 153.433594 271.234375 C 153.433594 276.367188 157.601562 280.535156 162.734375 280.535156 C 167.867188 280.535156 172.035156 276.367188 172.035156 271.234375 C 172.035156 266.101562 167.867188 261.933594 162.734375 261.933594 " fill-opacity="1" fill-rule="nonzero"/></g><path fill="#4f83d1" d="M 203.035156 168.933594 L 181.335938 168.933594 L 181.335938 175.132812 L 199.933594 175.132812 L 199.933594 206.132812 L 206.132812 206.132812 L 206.132812 168.933594 L 203.035156 168.933594 " fill-opacity="1" fill-rule="nonzero"/><path fill="#4f83d1" d="M 193.734375 206.132812 L 168.933594 206.132812 L 168.933594 168.933594 L 175.132812 168.933594 L 175.132812 199.933594 L 193.734375 199.933594 L 193.734375 206.132812 " fill-opacity="1" fill-rule="nonzero"/><g clip-path="url(#292b5b20b1)"><path fill="#4f83d1" d="M 230.933594 221.632812 C 230.933594 226.769531 226.769531 230.933594 221.632812 230.933594 L 153.433594 230.933594 C 148.300781 230.933594 144.132812 226.769531 144.132812 221.632812 L 144.132812 153.433594 C 144.132812 148.300781 148.300781 144.132812 153.433594 144.132812 L 221.632812 144.132812 C 226.769531 144.132812 230.933594 148.300781 230.933594 153.433594 Z M 271.234375 184.433594 C 272.941406 184.433594 274.335938 185.828125 274.335938 187.535156 C 274.335938 189.242188 272.941406 190.632812 271.234375 190.632812 C 269.527344 190.632812 268.132812 189.242188 268.132812 187.535156 C 268.132812 185.828125 269.527344 184.433594 271.234375 184.433594 Z M 271.234375 209.234375 C 272.941406 209.234375 274.335938 210.625 274.335938 212.335938 C 274.335938 214.042969 272.941406 215.433594 271.234375 215.433594 C 269.527344 215.433594 268.132812 214.042969 268.132812 212.335938 C 268.132812 210.625 269.527344 209.234375 271.234375 209.234375 Z M 240.234375 274.335938 C 238.527344 274.335938 237.132812 272.941406 237.132812 271.234375 C 237.132812 269.527344 238.527344 268.132812 240.234375 268.132812 C 241.941406 268.132812 243.335938 269.527344 243.335938 271.234375 C 243.335938 272.941406 241.941406 274.335938 240.234375 274.335938 Z M 212.335938 274.335938 C 210.625 274.335938 209.234375 272.941406 209.234375 271.234375 C 209.234375 269.527344 210.625 268.132812 212.335938 268.132812 C 214.042969 268.132812 215.433594 269.527344 215.433594 271.234375 C 215.433594 272.941406 214.042969 274.335938 212.335938 274.335938 Z M 187.535156 274.335938 C 185.828125 274.335938 184.433594 272.941406 184.433594 271.234375 C 184.433594 269.527344 185.828125 268.132812 187.535156 268.132812 C 189.242188 268.132812 190.632812 269.527344 190.632812 271.234375 C 190.632812 272.941406 189.242188 274.335938 187.535156 274.335938 Z M 162.734375 274.335938 C 161.027344 274.335938 159.632812 272.941406 159.632812 271.234375 C 159.632812 269.527344 161.027344 268.132812 162.734375 268.132812 C 164.441406 268.132812 165.835938 269.527344 165.835938 271.234375 C 165.835938 272.941406 164.441406 274.335938 162.734375 274.335938 Z M 134.835938 274.335938 C 133.125 274.335938 131.734375 272.941406 131.734375 271.234375 C 131.734375 269.527344 133.125 268.132812 134.835938 268.132812 C 136.542969 268.132812 137.933594 269.527344 137.933594 271.234375 C 137.933594 272.941406 136.542969 274.335938 134.835938 274.335938 Z M 103.835938 215.433594 C 102.125 215.433594 100.734375 214.042969 100.734375 212.335938 C 100.734375 210.625 102.125 209.234375 103.835938 209.234375 C 105.542969 209.234375 106.933594 210.625 106.933594 212.335938 C 106.933594 214.042969 105.542969 215.433594 103.835938 215.433594 Z M 103.835938 190.632812 C 102.125 190.632812 100.734375 189.242188 100.734375 187.535156 C 100.734375 185.828125 102.125 184.433594 103.835938 184.433594 C 105.542969 184.433594 106.933594 185.828125 106.933594 187.535156 C 106.933594 189.242188 105.542969 190.632812 103.835938 190.632812 Z M 103.835938 165.835938 C 102.125 165.835938 100.734375 164.441406 100.734375 162.734375 C 100.734375 161.027344 102.125 159.632812 103.835938 159.632812 C 105.542969 159.632812 106.933594 161.027344 106.933594 162.734375 C 106.933594 164.441406 105.542969 165.835938 103.835938 165.835938 Z M 134.835938 100.734375 C 136.542969 100.734375 137.933594 102.125 137.933594 103.835938 C 137.933594 105.542969 136.542969 106.933594 134.835938 106.933594 C 133.125 106.933594 131.734375 105.542969 131.734375 103.835938 C 131.734375 102.125 133.125 100.734375 134.835938 100.734375 Z M 162.734375 100.734375 C 164.441406 100.734375 165.835938 102.125 165.835938 103.835938 C 165.835938 105.542969 164.441406 106.933594 162.734375 106.933594 C 161.027344 106.933594 159.632812 105.542969 159.632812 103.835938 C 159.632812 102.125 161.027344 100.734375 162.734375 100.734375 Z M 187.535156 100.734375 C 189.242188 100.734375 190.632812 102.125 190.632812 103.835938 C 190.632812 105.542969 189.242188 106.933594 187.535156 106.933594 C 185.828125 106.933594 184.433594 105.542969 184.433594 103.835938 C 184.433594 102.125 185.828125 100.734375 187.535156 100.734375 Z M 212.335938 100.734375 C 214.042969 100.734375 215.433594 102.125 215.433594 103.835938 C 215.433594 105.542969 214.042969 106.933594 212.335938 106.933594 C 210.625 106.933594 209.234375 105.542969 209.234375 103.835938 C 209.234375 102.125 210.625 100.734375 212.335938 100.734375 Z M 240.234375 100.734375 C 241.941406 100.734375 243.335938 102.125 243.335938 103.835938 C 243.335938 105.542969 241.941406 106.933594 240.234375 106.933594 C 238.527344 106.933594 237.132812 105.542969 237.132812 103.835938 C 237.132812 102.125 238.527344 100.734375 240.234375 100.734375 Z M 271.234375 159.632812 C 272.941406 159.632812 274.335938 161.027344 274.335938 162.734375 C 274.335938 164.441406 272.941406 165.835938 271.234375 165.835938 C 269.527344 165.835938 268.132812 164.441406 268.132812 162.734375 C 268.132812 161.027344 269.527344 159.632812 271.234375 159.632812 Z M 237.132812 165.835938 L 262.503906 165.835938 C 263.785156 169.429688 267.203125 172.035156 271.234375 172.035156 C 276.367188 172.035156 280.535156 167.867188 280.535156 162.734375 C 280.535156 157.601562 276.367188 153.433594 271.234375 153.433594 C 267.203125 153.433594 263.785156 156.039062 262.503906 159.632812 L 237.132812 159.632812 L 237.132812 153.433594 C 237.132812 147.101562 233.296875 141.652344 227.835938 139.242188 L 227.835938 128.632812 L 240.234375 128.632812 C 241.941406 128.632812 243.335938 127.242188 243.335938 125.535156 L 243.335938 112.566406 C 246.929688 111.28125 249.535156 107.867188 249.535156 103.835938 C 249.535156 98.699219 245.367188 94.535156 240.234375 94.535156 C 235.101562 94.535156 230.933594 98.699219 230.933594 103.835938 C 230.933594 107.867188 233.539062 111.28125 237.132812 112.566406 L 237.132812 122.433594 L 224.734375 122.433594 C 223.027344 122.433594 221.632812 123.828125 221.632812 125.535156 L 221.632812 137.933594 L 215.433594 137.933594 L 215.433594 113.132812 C 215.433594 112.941406 215.363281 112.78125 215.324219 112.601562 C 218.980469 111.34375 221.632812 107.914062 221.632812 103.835938 C 221.632812 98.699219 217.46875 94.535156 212.335938 94.535156 C 207.199219 94.535156 203.035156 98.699219 203.035156 103.835938 C 203.035156 107.914062 205.6875 111.34375 209.34375 112.601562 C 209.308594 112.78125 209.234375 112.941406 209.234375 113.132812 L 209.234375 137.933594 L 190.632812 137.933594 L 190.632812 113.132812 C 190.632812 112.941406 190.5625 112.78125 190.523438 112.601562 C 194.183594 111.34375 196.835938 107.914062 196.835938 103.835938 C 196.835938 98.699219 192.667969 94.535156 187.535156 94.535156 C 182.398438 94.535156 178.234375 98.699219 178.234375 103.835938 C 178.234375 107.914062 180.886719 111.34375 184.542969 112.601562 C 184.507812 112.78125 184.433594 112.941406 184.433594 113.132812 L 184.433594 137.933594 L 165.835938 137.933594 L 165.835938 113.132812 C 165.835938 112.941406 165.761719 112.78125 165.726562 112.601562 C 169.382812 111.34375 172.035156 107.914062 172.035156 103.835938 C 172.035156 98.699219 167.867188 94.535156 162.734375 94.535156 C 157.601562 94.535156 153.433594 98.699219 153.433594 103.835938 C 153.433594 107.914062 156.085938 111.34375 159.742188 112.601562 C 159.707031 112.78125 159.632812 112.941406 159.632812 113.132812 L 159.632812 137.933594 L 153.433594 137.933594 L 153.433594 125.535156 C 153.433594 123.828125 152.042969 122.433594 150.335938 122.433594 L 137.933594 122.433594 L 137.933594 112.566406 C 141.53125 111.28125 144.132812 107.867188 144.132812 103.835938 C 144.132812 98.699219 139.96875 94.535156 134.835938 94.535156 C 129.699219 94.535156 125.535156 98.699219 125.535156 103.835938 C 125.535156 107.867188 128.136719 111.28125 131.734375 112.566406 L 131.734375 125.535156 C 131.734375 127.242188 133.125 128.632812 134.835938 128.632812 L 147.234375 128.632812 L 147.234375 139.242188 C 141.773438 141.652344 137.933594 147.101562 137.933594 153.433594 L 137.933594 159.632812 L 112.566406 159.632812 C 111.28125 156.039062 107.867188 153.433594 103.835938 153.433594 C 98.699219 153.433594 94.535156 157.601562 94.535156 162.734375 C 94.535156 167.867188 98.699219 172.035156 103.835938 172.035156 C 107.867188 172.035156 111.28125 169.429688 112.566406 165.835938 L 137.933594 165.835938 L 137.933594 184.433594 L 112.566406 184.433594 C 111.28125 180.835938 107.867188 178.234375 103.835938 178.234375 C 98.699219 178.234375 94.535156 182.398438 94.535156 187.535156 C 94.535156 192.667969 98.699219 196.835938 103.835938 196.835938 C 107.867188 196.835938 111.28125 194.230469 112.566406 190.632812 L 137.933594 190.632812 L 137.933594 209.234375 L 112.566406 209.234375 C 111.28125 205.636719 107.867188 203.035156 103.835938 203.035156 C 98.699219 203.035156 94.535156 207.199219 94.535156 212.335938 C 94.535156 217.46875 98.699219 221.632812 103.835938 221.632812 C 107.867188 221.632812 111.28125 219.03125 112.566406 215.433594 L 137.933594 215.433594 L 137.933594 221.632812 C 137.933594 227.96875 141.773438 233.417969 147.234375 235.828125 L 147.234375 246.433594 L 134.835938 246.433594 C 133.125 246.433594 131.734375 247.828125 131.734375 249.535156 L 131.734375 262.503906 C 128.136719 263.785156 125.535156 267.203125 125.535156 271.234375 C 125.535156 276.367188 129.699219 280.535156 134.835938 280.535156 C 139.96875 280.535156 144.132812 276.367188 144.132812 271.234375 C 144.132812 267.203125 141.53125 263.785156 137.933594 262.503906 L 137.933594 252.632812 L 150.335938 252.632812 C 152.042969 252.632812 153.433594 251.242188 153.433594 249.535156 L 153.433594 237.132812 L 159.632812 237.132812 L 159.632812 261.933594 C 159.632812 262.128906 159.707031 262.285156 159.742188 262.46875 C 156.085938 263.726562 153.433594 267.152344 153.433594 271.234375 C 153.433594 276.367188 157.601562 280.535156 162.734375 280.535156 C 167.867188 280.535156 172.035156 276.367188 172.035156 271.234375 C 172.035156 267.152344 169.382812 263.726562 165.726562 262.46875 C 165.761719 262.285156 165.835938 262.128906 165.835938 261.933594 L 165.835938 237.132812 L 184.433594 237.132812 L 184.433594 261.933594 C 184.433594 262.128906 184.507812 262.285156 184.542969 262.46875 C 180.886719 263.726562 178.234375 267.152344 178.234375 271.234375 C 178.234375 276.367188 182.398438 280.535156 187.535156 280.535156 C 192.667969 280.535156 196.835938 276.367188 196.835938 271.234375 C 196.835938 267.152344 194.183594 263.726562 190.523438 262.46875 C 190.5625 262.285156 190.632812 262.128906 190.632812 261.933594 L 190.632812 237.132812 L 209.234375 237.132812 L 209.234375 261.933594 C 209.234375 262.128906 209.308594 262.285156 209.34375 262.46875 C 205.6875 263.726562 203.035156 267.152344 203.035156 271.234375 C 203.035156 276.367188 207.199219 280.535156 212.335938 280.535156 C 217.46875 280.535156 221.632812 276.367188 221.632812 271.234375 C 221.632812 267.152344 218.980469 263.726562 215.324219 262.46875 C 215.363281 262.285156 215.433594 262.128906 215.433594 261.933594 L 215.433594 237.132812 L 221.632812 237.132812 L 221.632812 249.535156 C 221.632812 251.242188 223.027344 252.632812 224.734375 252.632812 L 237.132812 252.632812 L 237.132812 262.503906 C 233.539062 263.785156 230.933594 267.203125 230.933594 271.234375 C 230.933594 276.367188 235.101562 280.535156 240.234375 280.535156 C 245.367188 280.535156 249.535156 276.367188 249.535156 271.234375 C 249.535156 267.203125 246.929688 263.785156 243.335938 262.503906 L 243.335938 249.535156 C 243.335938 247.828125 241.941406 246.433594 240.234375 246.433594 L 227.835938 246.433594 L 227.835938 235.828125 C 233.296875 233.417969 237.132812 227.96875 237.132812 221.632812 L 237.132812 215.433594 L 262.503906 215.433594 C 263.785156 219.03125 267.203125 221.632812 271.234375 221.632812 C 276.367188 221.632812 280.535156 217.46875 280.535156 212.335938 C 280.535156 207.199219 276.367188 203.035156 271.234375 203.035156 C 267.203125 203.035156 263.785156 205.636719 262.503906 209.234375 L 237.132812 209.234375 L 237.132812 190.632812 L 262.503906 190.632812 C 263.785156 194.230469 267.203125 196.835938 271.234375 196.835938 C 276.367188 196.835938 280.535156 192.667969 280.535156 187.535156 C 280.535156 182.398438 276.367188 178.234375 271.234375 178.234375 C 267.203125 178.234375 263.785156 180.835938 262.503906 184.433594 L 237.132812 184.433594 L 237.132812 165.835938 " fill-opacity="1" fill-rule="nonzero"/></g><path fill="#4f83d1" d="M 212.335938 212.335938 L 162.734375 212.335938 L 162.734375 162.734375 L 212.335938 162.734375 Z M 215.433594 156.535156 L 159.632812 156.535156 C 157.925781 156.535156 156.535156 157.925781 156.535156 159.632812 L 156.535156 215.433594 C 156.535156 217.140625 157.925781 218.535156 159.632812 218.535156 L 215.433594 218.535156 C 217.140625 218.535156 218.535156 217.140625 218.535156 215.433594 L 218.535156 159.632812 C 218.535156 157.925781 217.140625 156.535156 215.433594 156.535156 " fill-opacity="1" fill-rule="nonzero"/><path fill="#4f83d1" d="M 199.933594 206.132812 L 206.132812 206.132812 L 206.132812 168.933594 L 181.335938 168.933594 L 181.335938 175.132812 L 199.933594 175.132812 L 199.933594 206.132812 " fill-opacity="1" fill-rule="nonzero"/><path fill="#4f83d1" d="M 193.734375 199.933594 L 175.132812 199.933594 L 175.132812 168.933594 L 168.933594 168.933594 L 168.933594 206.132812 L 193.734375 206.132812 L 193.734375 199.933594 " fill-opacity="1" fill-rule="nonzero"/></svg>